<?xml version="1.0" encoding="utf-8"?>
<!-- Generator: Adobe Illustrator 23.0.4, SVG Export Plug-In . SVG Version: 6.00 Build 0)  -->
<svg version="1.1" id="Layer_1" xmlns="http://www.w3.org/2000/svg" xmlns:xlink="http://www.w3.org/1999/xlink" x="0px" y="0px"
	 viewBox="0 0 2250 799.6" style="enable-background:new 0 0 2250 799.6;" xml:space="preserve">
<style type="text/css">
	.st0{fill:#FFFFFF;}
	.st1{fill:none;stroke:#FFFFFF;stroke-width:5;stroke-linejoin:round;stroke-miterlimit:10;}
	.st2{fill:none;}
	.st3{font-family:'FiraGO-Book';}
	.st4{font-size:19px;}
	.st5{letter-spacing:10;}
	.st6{letter-spacing:3;}
	.st7{font-family:'FiraGO-ExtraBoldItalic';}
	.st8{font-size:28px;}
	.st9{letter-spacing:2;}
	.st10{letter-spacing:4;}
	.st11{letter-spacing:14;}
	.st12{letter-spacing:1;}
	.st13{font-family:'DelaGothicOne-Regular';}
	.st14{font-size:63px;}
	.st15{display:none;}
	.st16{display:inline;}
</style>
<g id="Layer_3">
</g>
<g id="Layer_4">
</g>
<g id="varskvlaavebi">
</g>
<g id="Layer_7">
</g>
<g id="Layer_8">
</g>
<g id="Layer_9">
	<path class="st0" d="M2247.5,623.7h-567.8c-1.4,0-2.5-1.1-2.5-2.5V53.4c0-1.4,1.1-2.5,2.5-2.5h567.8c1.4,0,2.5,1.1,2.5,2.5v567.8
		C2250,622.6,2248.9,623.7,2247.5,623.7z M1682.2,618.7H2245V55.9h-562.8V618.7z"/>
	<path class="st0" d="M1408.7,718.2H840.9c-1.4,0-2.5-1.1-2.5-2.5V147.9c0-1.4,1.1-2.5,2.5-2.5h567.8c1.4,0,2.5,1.1,2.5,2.5v567.8
		C1411.2,717.1,1410.1,718.2,1408.7,718.2z M843.4,713.2h562.8V150.4H843.4V713.2z"/>
	<path class="st1" d="M2247.5,621.2"/>
	<path class="st0" d="M570.3,623.7H2.5c-1.4,0-2.5-1.1-2.5-2.5V53.4c0-1.4,1.1-2.5,2.5-2.5h567.8c1.4,0,2.5,1.1,2.5,2.5v567.8
		C572.8,622.6,571.7,623.7,570.3,623.7z M5,618.7h562.8V55.9H5V618.7z"/>
	<path class="st1" d="M570.3,621.2"/>
	<rect x="87.7" y="328.3" class="st2" width="395.7" height="129.4"/>
	<text transform="matrix(1 0 0 1 87.6761 342.596)" class="st0 st3 st4">We</text>
	<text transform="matrix(1 0 0 1 113.5761 342.596)" class="st0 st3 st4 st5"> </text>
	<text transform="matrix(1 0 0 1 129.9761 342.596)" class="st0 st3 st4">provide</text>
	<text transform="matrix(1 0 0 1 195.1761 342.596)" class="st0 st3 st4 st5"> </text>
	<text transform="matrix(1 0 0 1 211.4761 342.596)" class="st0 st3 st4">highly-secured</text>
	<text transform="matrix(1 0 0 1 338.7761 342.596)" class="st0 st3 st4 st5"> </text>
	<text transform="matrix(1 0 0 1 355.076 342.596)" class="st0 st3 st4">cryptocurrency </text>
	<text transform="matrix(1 0 0 1 87.6761 365.396)" class="st0 st3 st4">platforms</text>
	<text transform="matrix(1 0 0 1 170.9761 365.396)" class="st0 st3 st4 st6"> </text>
	<text transform="matrix(1 0 0 1 180.9761 365.396)" class="st0 st3 st4">where</text>
	<text transform="matrix(1 0 0 1 233.3761 365.396)" class="st0 st3 st4 st6"> </text>
	<text transform="matrix(1 0 0 1 243.3761 365.396)" class="st0 st3 st4">you</text>
	<text transform="matrix(1 0 0 1 274.576 365.396)" class="st0 st3 st4 st6"> </text>
	<text transform="matrix(1 0 0 1 284.576 365.396)" class="st0 st3 st4">can</text>
	<text transform="matrix(1 0 0 1 314.8761 365.396)" class="st0 st3 st4 st6"> </text>
	<text transform="matrix(1 0 0 1 324.8761 365.396)" class="st0 st3 st4">get</text>
	<text transform="matrix(1 0 0 1 351.7761 365.396)" class="st0 st3 st4 st6"> </text>
	<text transform="matrix(1 0 0 1 361.8761 365.396)" class="st0 st3 st4">in</text>
	<text transform="matrix(1 0 0 1 378.076 365.396)" class="st0 st3 st4 st6"> </text>
	<text transform="matrix(1 0 0 1 388.076 365.396)" class="st0 st3 st4">touch</text>
	<text transform="matrix(1 0 0 1 436.8761 365.396)" class="st0 st3 st4 st6"> </text>
	<text transform="matrix(1 0 0 1 446.8761 365.396)" class="st0 st3 st4">with </text>
	<text transform="matrix(1 0 0 1 87.6761 388.196)" class="st0 st3 st4">buyers</text>
	<text transform="matrix(1 0 0 1 145.2761 388.196)" class="st0 st3 st4"> </text>
	<text transform="matrix(1 0 0 1 149.8761 388.196)" class="st0 st3 st4">and</text>
	<text transform="matrix(1 0 0 1 182.2761 388.196)" class="st0 st3 st4"> </text>
	<text transform="matrix(1 0 0 1 186.8761 388.196)" class="st0 st3 st4">sellers</text>
	<text transform="matrix(1 0 0 1 243.576 388.196)" class="st0 st3 st4"> </text>
	<text transform="matrix(1 0 0 1 248.076 388.196)" class="st0 st3 st4">without</text>
	<text transform="matrix(1 0 0 1 313.3761 388.196)" class="st0 st3 st4"> </text>
	<text transform="matrix(1 0 0 1 317.9761 388.196)" class="st0 st3 st4">any</text>
	<text transform="matrix(1 0 0 1 348.576 388.196)" class="st0 st3 st4"> </text>
	<text transform="matrix(1 0 0 1 353.1761 388.196)" class="st0 st3 st4">risk.</text>
	<text transform="matrix(1 0 0 1 388.3761 388.196)" class="st0 st3 st4"> </text>
	<text transform="matrix(1 0 0 1 392.9761 388.196)" class="st0 st3 st4">With</text>
	<text transform="matrix(1 0 0 1 431.576 388.196)" class="st0 st3 st4"> </text>
	<text transform="matrix(1 0 0 1 436.1761 388.196)" class="st0 st3 st4">these </text>
	<text transform="matrix(1 0 0 1 87.6761 410.996)" class="st0 st3 st4">cryptocurrency</text>
	<text transform="matrix(1 0 0 1 215.9761 410.996)" class="st0 st3 st4"> </text>
	<text transform="matrix(1 0 0 1 223.076 410.996)" class="st0 st3 st4">platforms,</text>
	<text transform="matrix(1 0 0 1 310.6761 410.996)" class="st0 st3 st4"> </text>
	<text transform="matrix(1 0 0 1 317.7761 410.996)" class="st0 st3 st4">you</text>
	<text transform="matrix(1 0 0 1 348.9761 410.996)" class="st0 st3 st4"> </text>
	<text transform="matrix(1 0 0 1 355.9761 410.996)" class="st0 st3 st4">will</text>
	<text transform="matrix(1 0 0 1 385.8761 410.996)" class="st0 st3 st4"> </text>
	<text transform="matrix(1 0 0 1 392.8761 410.996)" class="st0 st3 st4">be</text>
	<text transform="matrix(1 0 0 1 414.2761 410.996)" class="st0 st3 st4"> </text>
	<text transform="matrix(1 0 0 1 421.2761 410.996)" class="st0 st3 st4">able</text>
	<text transform="matrix(1 0 0 1 458.576 410.996)" class="st0 st3 st4"> </text>
	<text transform="matrix(1 0 0 1 465.576 410.996)" class="st0 st3 st4">to </text>
	<text transform="matrix(1 0 0 1 87.6761 433.796)" class="st0 st3 st4">trade</text>
	<text transform="matrix(1 0 0 1 133.4761 433.796)" class="st0 st3 st4 st6"> </text>
	<text transform="matrix(1 0 0 1 143.0761 433.796)" class="st0 st3 st4">coins</text>
	<text transform="matrix(1 0 0 1 188.1761 433.796)" class="st0 st3 st4 st6"> </text>
	<text transform="matrix(1 0 0 1 197.8761 433.796)" class="st0 st3 st4">and</text>
	<text transform="matrix(1 0 0 1 230.2761 433.796)" class="st0 st3 st4 st6"> </text>
	<text transform="matrix(1 0 0 1 239.8761 433.796)" class="st0 st3 st4">get</text>
	<text transform="matrix(1 0 0 1 266.8761 433.796)" class="st0 st3 st4 st6"> </text>
	<text transform="matrix(1 0 0 1 276.4761 433.796)" class="st0 st3 st4">a</text>
	<text transform="matrix(1 0 0 1 286.7761 433.796)" class="st0 st3 st4 st6"> </text>
	<text transform="matrix(1 0 0 1 296.3761 433.796)" class="st0 st3 st4">commission</text>
	<text transform="matrix(1 0 0 1 398.8761 433.796)" class="st0 st3 st4 st6"> </text>
	<text transform="matrix(1 0 0 1 408.576 433.796)" class="st0 st3 st4">for</text>
	<text transform="matrix(1 0 0 1 433.076 433.796)" class="st0 st3 st4 st6"> </text>
	<text transform="matrix(1 0 0 1 442.7761 433.796)" class="st0 st3 st4">each </text>
	<text transform="matrix(1 0 0 1 87.6761 456.596)" class="st0 st3 st4">trade</text>
	<g>
		<rect x="87.7" y="221.8" class="st2" width="395.7" height="74"/>
		<text transform="matrix(1 0 0 1 87.6761 243.1214)" class="st0 st7 st8">Cryptocurrency</text>
		<text transform="matrix(1 0 0 1 281.1761 243.1214)" class="st0 st7 st8 st9"> </text>
		<text transform="matrix(1 0 0 1 290.7761 243.1214)" class="st0 st7 st8">Exchange</text>
		<text transform="matrix(1 0 0 1 411.1761 243.1214)" class="st0 st7 st8 st9"> </text>
		<text transform="matrix(1 0 0 1 420.7761 243.1214)" class="st0 st7 st8">Plat</text>
		<text transform="matrix(1 0 0 1 472.1761 243.1214)" class="st0 st7 st8">-</text>
		<text transform="matrix(1 0 0 1 87.6761 276.7213)" class="st0 st7 st8">form</text>
	</g>
	<rect x="927" y="422.8" class="st2" width="395.7" height="185.5"/>
	<text transform="matrix(1 0 0 1 926.9821 437.1057)" class="st0 st3 st4">Wave</text>
	<text transform="matrix(1 0 0 1 972.4821 437.1057)" class="st0 st3 st4"> </text>
	<text transform="matrix(1 0 0 1 977.4821 437.1057)" class="st0 st3 st4">goodbye</text>
	<text transform="matrix(1 0 0 1 1051.082 437.1057)" class="st0 st3 st4"> </text>
	<text transform="matrix(1 0 0 1 1056.082 437.1057)" class="st0 st3 st4">to</text>
	<text transform="matrix(1 0 0 1 1073.8821 437.1057)" class="st0 st3 st4"> </text>
	<text transform="matrix(1 0 0 1 1078.8821 437.1057)" class="st0 st3 st4">the</text>
	<text transform="matrix(1 0 0 1 1106.9821 437.1057)" class="st0 st3 st4"> </text>
	<text transform="matrix(1 0 0 1 1111.9821 437.1057)" class="st0 st3 st4">low-value,</text>
	<text transform="matrix(1 0 0 1 1200.4821 437.1057)" class="st0 st3 st4"> </text>
	<text transform="matrix(1 0 0 1 1205.4821 437.1057)" class="st0 st3 st4">repetitive</text>
	<text transform="matrix(1 0 0 1 1287.9821 437.1057)" class="st0 st3 st4"> </text>
	<text transform="matrix(1 0 0 1 1292.9821 437.1057)" class="st0 st3 st4">op</text>
	<text transform="matrix(1 0 0 1 1315.082 437.1057)" class="st0 st3 st4">-</text>
	<text transform="matrix(1 0 0 1 926.9821 459.9057)" class="st0 st3 st4">erational processes. Get our team on board to </text>
	<text transform="matrix(1 0 0 1 926.9821 482.7057)" class="st0 st3 st4">develop</text>
	<text transform="matrix(1 0 0 1 995.682 482.7057)" class="st0 st3 st4 st10"> </text>
	<text transform="matrix(1 0 0 1 1005.9821 482.7057)" class="st0 st3 st4">self-executing</text>
	<text transform="matrix(1 0 0 1 1127.082 482.7057)" class="st0 st3 st4 st10"> </text>
	<text transform="matrix(1 0 0 1 1137.3821 482.7057)" class="st0 st3 st4">EVM</text>
	<text transform="matrix(1 0 0 1 1172.7821 482.7057)" class="st0 st3 st4 st10"> </text>
	<text transform="matrix(1 0 0 1 1183.082 482.7057)" class="st0 st3 st4">smart</text>
	<text transform="matrix(1 0 0 1 1232.3821 482.7057)" class="st0 st3 st4 st10"> </text>
	<text transform="matrix(1 0 0 1 1242.6821 482.7057)" class="st0 st3 st4">contracts </text>
	<text transform="matrix(1 0 0 1 926.9821 505.5058)" class="st0 st3 st4">that</text>
	<text transform="matrix(1 0 0 1 961.8821 505.5058)" class="st0 st3 st4"> </text>
	<text transform="matrix(1 0 0 1 966.3821 505.5058)" class="st0 st3 st4">cannot</text>
	<text transform="matrix(1 0 0 1 1025.582 505.5058)" class="st0 st3 st4"> </text>
	<text transform="matrix(1 0 0 1 1030.082 505.5058)" class="st0 st3 st4">be</text>
	<text transform="matrix(1 0 0 1 1051.4821 505.5058)" class="st0 st3 st4"> </text>
	<text transform="matrix(1 0 0 1 1055.9821 505.5058)" class="st0 st3 st4">breached,</text>
	<text transform="matrix(1 0 0 1 1140.7821 505.5058)" class="st0 st3 st4"> </text>
	<text transform="matrix(1 0 0 1 1145.2821 505.5058)" class="st0 st3 st4">compromised</text>
	<text transform="matrix(1 0 0 1 1262.4821 505.5058)" class="st0 st3 st4"> </text>
	<text transform="matrix(1 0 0 1 1267.082 505.5058)" class="st0 st3 st4">or</text>
	<text transform="matrix(1 0 0 1 1285.282 505.5058)" class="st0 st3 st4"> </text>
	<text transform="matrix(1 0 0 1 1289.8821 505.5058)" class="st0 st3 st4">dis</text>
	<text transform="matrix(1 0 0 1 1315.082 505.5058)" class="st0 st3 st4">-</text>
	<text transform="matrix(1 0 0 1 926.9821 528.3057)" class="st0 st3 st4">regarded.</text>
	<text transform="matrix(1 0 0 1 1008.8821 528.3057)" class="st0 st3 st4 st10"> </text>
	<text transform="matrix(1 0 0 1 1019.2821 528.3057)" class="st0 st3 st4">Conduct</text>
	<text transform="matrix(1 0 0 1 1089.7821 528.3057)" class="st0 st3 st4 st10"> </text>
	<text transform="matrix(1 0 0 1 1100.182 528.3057)" class="st0 st3 st4">secure,</text>
	<text transform="matrix(1 0 0 1 1161.182 528.3057)" class="st0 st3 st4 st10"> </text>
	<text transform="matrix(1 0 0 1 1171.682 528.3057)" class="st0 st3 st4">fast</text>
	<text transform="matrix(1 0 0 1 1203.8821 528.3057)" class="st0 st3 st4 st10"> </text>
	<text transform="matrix(1 0 0 1 1214.282 528.3057)" class="st0 st3 st4">and</text>
	<text transform="matrix(1 0 0 1 1246.782 528.3057)" class="st0 st3 st4 st10"> </text>
	<text transform="matrix(1 0 0 1 1257.1821 528.3057)" class="st0 st3 st4">reliable </text>
	<text transform="matrix(1 0 0 1 926.9821 551.1057)" class="st0 st3 st4">transactions without intermediaries</text>
	<g>
		<rect x="927" y="316.3" class="st2" width="395.7" height="74"/>
		<text transform="matrix(1 0 0 1 926.9818 337.6321)" class="st0 st7 st8">Smart contracts</text>
	</g>
	<rect x="1765.8" y="328.3" class="st2" width="395.7" height="168.5"/>
	<text transform="matrix(1 0 0 1 1765.7605 342.594)" class="st0 st3 st4">At</text>
	<text transform="matrix(1 0 0 1 1783.3606 342.594)" class="st0 st3 st4 st11"> </text>
	<text transform="matrix(1 0 0 1 1804.0605 342.594)" class="st0 st3 st4">BlocksNode</text>
	<text transform="matrix(1 0 0 1 1905.0605 342.594)" class="st0 st3 st4 st11"> </text>
	<text transform="matrix(1 0 0 1 1925.7605 342.594)" class="st0 st3 st4">we</text>
	<text transform="matrix(1 0 0 1 1949.6604 342.594)" class="st0 st3 st4 st11"> </text>
	<text transform="matrix(1 0 0 1 1970.2605 342.594)" class="st0 st3 st4">can</text>
	<text transform="matrix(1 0 0 1 2000.6604 342.594)" class="st0 st3 st4 st11"> </text>
	<text transform="matrix(1 0 0 1 2021.3606 342.594)" class="st0 st3 st4">create</text>
	<text transform="matrix(1 0 0 1 2075.2605 342.594)" class="st0 st3 st4 st11"> </text>
	<text transform="matrix(1 0 0 1 2095.9604 342.594)" class="st0 st3 st4">reliable </text>
	<text transform="matrix(1 0 0 1 1765.7605 365.394)" class="st0 st3 st4">web-based/online</text>
	<text transform="matrix(1 0 0 1 1923.9604 365.394)" class="st0 st3 st4 st11"> </text>
	<text transform="matrix(1 0 0 1 1944.2605 365.394)" class="st0 st3 st4">application</text>
	<text transform="matrix(1 0 0 1 2040.8606 365.394)" class="st0 st3 st4 st11"> </text>
	<text transform="matrix(1 0 0 1 2061.0605 365.394)" class="st0 st3 st4">which</text>
	<text transform="matrix(1 0 0 1 2110.8606 365.394)" class="st0 st3 st4 st11"> </text>
	<text transform="matrix(1 0 0 1 2131.1604 365.394)" class="st0 st3 st4">can </text>
	<text transform="matrix(1 0 0 1 1765.7605 388.194)" class="st0 st3 st4">easily</text>
	<text transform="matrix(1 0 0 1 1815.1604 388.194)" class="st0 st3 st4 st10"> </text>
	<text transform="matrix(1 0 0 1 1825.4604 388.194)" class="st0 st3 st4">be</text>
	<text transform="matrix(1 0 0 1 1846.7605 388.194)" class="st0 st3 st4 st10"> </text>
	<text transform="matrix(1 0 0 1 1857.0605 388.194)" class="st0 st3 st4">integrated</text>
	<text transform="matrix(1 0 0 1 1945.8606 388.194)" class="st0 st3 st4 st10"> </text>
	<text transform="matrix(1 0 0 1 1956.1604 388.194)" class="st0 st3 st4">with</text>
	<text transform="matrix(1 0 0 1 1992.6604 388.194)" class="st0 st3 st4 st10"> </text>
	<text transform="matrix(1 0 0 1 2002.9604 388.194)" class="st0 st3 st4">CRM,</text>
	<text transform="matrix(1 0 0 1 2044.0605 388.194)" class="st0 st3 st4 st10"> </text>
	<text transform="matrix(1 0 0 1 2054.3606 388.194)" class="st0 st3 st4">e-commerce </text>
	<text transform="matrix(1 0 0 1 1765.7605 410.994)" class="st0 st3 st4">systems,</text>
	<text transform="matrix(1 0 0 1 1839.1604 410.994)" class="st0 st3 st4 st12"> </text>
	<text transform="matrix(1 0 0 1 1846.9604 410.994)" class="st0 st3 st4">blockchain</text>
	<text transform="matrix(1 0 0 1 1939.7605 410.994)" class="st0 st3 st4 st12"> </text>
	<text transform="matrix(1 0 0 1 1947.6604 410.994)" class="st0 st3 st4">applications,</text>
	<text transform="matrix(1 0 0 1 2057.4604 410.994)" class="st0 st3 st4 st12"> </text>
	<text transform="matrix(1 0 0 1 2065.3606 410.994)" class="st0 st3 st4">ICOs,</text>
	<text transform="matrix(1 0 0 1 2107.8606 410.994)" class="st0 st3 st4 st12"> </text>
	<text transform="matrix(1 0 0 1 2115.6604 410.994)" class="st0 st3 st4">Cryp</text>
	<text transform="matrix(1 0 0 1 2153.8606 410.994)" class="st0 st3 st4">-</text>
	<text transform="matrix(1 0 0 1 1765.7605 433.794)" class="st0 st3 st4">tocurrency Mining, Forex trading, etc.</text>
	<g>
		<rect x="1765.8" y="221.8" class="st2" width="395.7" height="74"/>
		<text transform="matrix(1 0 0 1 1765.7603 243.1204)" class="st0 st7 st8">Multi-Level</text>
		<text transform="matrix(1 0 0 1 1907.1602 243.1204)" class="st0 st7 st8"> </text>
		<text transform="matrix(1 0 0 1 1914.3604 243.1204)" class="st0 st7 st8">Services</text>
		<text transform="matrix(1 0 0 1 2019.7603 243.1204)" class="st0 st7 st8"> </text>
		<text transform="matrix(1 0 0 1 2027.0603 243.1204)" class="st0 st7 st8">integrated </text>
		<text transform="matrix(1 0 0 1 1765.7603 276.7204)" class="st0 st7 st8">with Blockchain API</text>
	</g>
</g>
<line class="st1" x1="2247.5" y1="621.2" x2="1408.7" y2="715.7"/>
<polygon class="st1" points="1679.7,53.4 1679.7,621.2 1408.7,715.7 1408.7,147.9 "/>
<polygon class="st1" points="840.9,715.7 2.5,621.2 570.3,621.2 "/>
<line class="st1" x1="840.9" y1="147.9" x2="570.3" y2="53.4"/>
<g>
	<text transform="matrix(1 0 0 1 226.6893 785.8313)" class="st0 st13 st14">04</text>
</g>
<g>
	<text transform="matrix(1 0 0 1 1906.0664 785.8318)" class="st0 st13 st14">06</text>
</g>
<g>
	<text transform="matrix(1 0 0 1 1050.1583 54.3676)" class="st0 st13 st14">05</text>
</g>
<g id="Layer_5" class="st15">
	<g class="st16">
		<path class="st0" d="M4241.7-1095.7c0.9-0.9,1.4-2.2,1.4-4.1c0-1.3-0.2-2.2-0.7-2.9s-1.3-1.1-2.3-1.4c1-0.3,1.7-0.8,2.1-1.4
			c0.4-0.7,0.7-1.7,0.7-2.9c0-1.7-0.4-2.9-1.3-3.6c-0.9-0.8-2.4-1.1-4.4-1.1h-3.8v18.8h4C4239.3-1094.4,4240.8-1094.8,4241.7-1095.7
			z M4236.1-1111h1c1.1,0,1.9,0.2,2.3,0.7c0.5,0.4,0.7,1.2,0.7,2.2s-0.2,1.7-0.7,2.2s-1.2,0.7-2.3,0.7h-1V-1111z M4236.1-1096.8
			v-6.3h1c1.2,0,2,0.3,2.5,0.8s0.8,1.3,0.8,2.5c0,1.1-0.2,1.9-0.7,2.4c-0.5,0.4-1.3,0.7-2.6,0.7L4236.1-1096.8L4236.1-1096.8z"/>
		<polygon class="st0" points="4254.7,-1096.7 4248.8,-1096.7 4248.8,-1113.2 4246,-1113.2 4246,-1094.4 4254.7,-1094.4 		"/>
		<path class="st0" d="M4261.3-1094.2c2.1,0,3.5-0.7,4.4-2.2s1.4-4,1.4-7.4c0-3.5-0.5-5.9-1.4-7.4s-2.4-2.2-4.4-2.2
			c-2.1,0-3.6,0.7-4.5,2.2s-1.4,4-1.4,7.4s0.5,5.9,1.4,7.4C4257.7-1094.9,4259.2-1094.2,4261.3-1094.2z M4258.9-1109.5
			c0.5-1.1,1.2-1.6,2.3-1.6c1.1,0,1.9,0.5,2.3,1.6c0.5,1.1,0.7,3,0.7,5.7c0,2.8-0.2,4.7-0.7,5.7c-0.4,1-1.2,1.6-2.3,1.6
			c-1.1,0-1.9-0.5-2.4-1.6c-0.5-1.1-0.7-3-0.7-5.6C4258.2-1106.5,4258.5-1108.4,4258.9-1109.5z"/>
		<path class="st0" d="M4275.7-1094.2c0.5,0,1-0.1,1.5-0.2c0.5-0.1,0.9-0.3,1.4-0.5v-2.5c-0.5,0.2-0.9,0.4-1.3,0.5
			c-0.4,0.1-0.8,0.2-1.2,0.2c-1.3,0-2.3-0.6-3-1.7c-0.6-1.2-1-2.9-1-5.3c0-2.6,0.3-4.5,1-5.6c0.7-1.2,1.7-1.8,3.2-1.8
			c0.3,0,0.7,0,1,0.1c0.4,0.1,0.7,0.2,1.1,0.4v-2.4c-0.4-0.2-0.8-0.3-1.2-0.4c-0.4-0.1-0.9-0.1-1.3-0.1c-2.2,0-3.8,0.8-4.9,2.5
			c-1.1,1.7-1.7,4.1-1.7,7.3c0,3.2,0.5,5.5,1.6,7.1C4272-1095,4273.6-1094.2,4275.7-1094.2z"/>
		<polygon class="st0" points="4289.1,-1113.2 4284.3,-1104.3 4284.3,-1113.2 4281.5,-1113.2 4281.5,-1094.4 4284.3,-1094.4 
			4284.3,-1104.1 4289,-1094.4 4292,-1094.4 4287.1,-1104.3 4292,-1113.2 		"/>
		<path class="st0" d="M4301.8-1101.9c-0.5-0.8-1.3-1.6-2.5-2.5c-0.1-0.1-0.2-0.2-0.4-0.3c-2-1.5-3-2.8-3-3.8c0-0.8,0.3-1.4,0.8-1.9
			s1.2-0.7,2.1-0.7c0.5,0,1,0.1,1.5,0.3s1,0.4,1.6,0.8v-2.5c-0.6-0.3-1.2-0.5-1.8-0.6c-0.6-0.1-1.2-0.2-1.8-0.2
			c-1.5,0-2.7,0.5-3.7,1.4c-1,0.9-1.5,2.1-1.5,3.5c0,1,0.2,1.9,0.7,2.6c0.5,0.8,1.3,1.6,2.6,2.6c0.1,0.1,0.3,0.2,0.5,0.4
			c1.9,1.4,2.9,2.7,2.9,3.8c0,0.8-0.2,1.4-0.7,1.8c-0.5,0.5-1.2,0.7-2,0.7c-0.5,0-1-0.1-1.6-0.3c-0.6-0.2-1.2-0.4-1.8-0.8v2.6
			c0.6,0.3,1.2,0.6,1.8,0.7c0.6,0.2,1.2,0.2,1.7,0.2c1.6,0,2.8-0.5,3.8-1.4c1-0.9,1.5-2.1,1.5-3.6
			C4302.5-1100.2,4302.3-1101.1,4301.8-1101.9z"/>
		<polygon class="st0" points="4241.5,-1074 4236,-1087.1 4233.5,-1087.1 4233.5,-1068.3 4236.1,-1068.3 4236.1,-1081.4 
			4241.5,-1068.3 4244.1,-1068.3 4244.1,-1087.1 4241.5,-1087.1 		"/>
		<path class="st0" d="M4252.7-1087.3c-2.1,0-3.6,0.7-4.5,2.2s-1.4,4-1.4,7.4s0.5,5.9,1.4,7.4s2.4,2.2,4.5,2.2s3.5-0.7,4.4-2.2
			s1.4-4,1.4-7.4c0-3.5-0.5-5.9-1.4-7.4S4254.7-1087.3,4252.7-1087.3z M4255-1072c-0.4,1-1.2,1.6-2.3,1.6c-1.1,0-1.9-0.5-2.4-1.6
			c-0.5-1.1-0.7-3-0.7-5.6c0-2.7,0.2-4.6,0.7-5.6c0.5-1.1,1.2-1.6,2.3-1.6c1.1,0,1.9,0.5,2.3,1.6c0.5,1.1,0.7,3,0.7,5.7
			C4255.7-1074.9,4255.5-1073,4255-1072z"/>
		<path class="st0" d="M4264.7-1087.1h-3.7v18.8h3.7c2.8,0,4.8-0.7,5.9-2.1c1.1-1.4,1.7-3.8,1.7-7.3s-0.6-5.9-1.7-7.3
			C4269.4-1086.4,4267.5-1087.1,4264.7-1087.1z M4268.5-1072.2c-0.6,1-1.7,1.5-3.3,1.5h-1.4v-14h1.4c1.6,0,2.7,0.5,3.3,1.5
			c0.6,1,0.9,2.8,0.9,5.5C4269.5-1075.1,4269.2-1073.3,4268.5-1072.2z"/>
		<polygon class="st0" points="4274.9,-1068.3 4283.1,-1068.3 4283.1,-1070.6 4277.7,-1070.6 4277.7,-1077 4282.6,-1077 
			4282.6,-1079.2 4277.7,-1079.2 4277.7,-1084.8 4283.1,-1084.8 4283.1,-1087.1 4274.9,-1087.1 		"/>
		<path class="st0" d="M4163.6-1124.2v45.2l11.8,10.8h49.2v-45.2l-11.8-10.8H4163.6z M4188.3-1101.5h11.5v10.5h-11.5V-1101.5z
			 M4199.8-1104.2h-12.4l-7.8-7.2h20.2L4199.8-1104.2L4199.8-1104.2z M4188.3-1088.2h12.4l7.8,7.2h-20.2L4188.3-1088.2
			L4188.3-1088.2z M4166.6-1121.4h44.1v38.5l-7.8-7.2v-12.7v-11.4h-28.4v41.3l-7.8-7.2v-41.3H4166.6z M4221.5-1071h-44.1v-38.5
			l7.8,7.2v12.7v11.4h28.4v-41.3l7.8,7.2v41.3H4221.5z"/>
	</g>
	<g class="st16">
		<text transform="matrix(1 0 0 1 6322.5957 -1140.0438)" class="st0" style="font-family:'FiraGO-Regular'; font-size:20px;">ABOUT</text>
	</g>
	
		<text transform="matrix(1 0 0 1 6523.5903 -1140.0438)" style="display:inline;fill:#FFFFFF; font-family:'FiraGO-Regular'; font-size:20px;">SERVICES</text>
	
		<text transform="matrix(1 0 0 1 6309.6357 -1036.4149)" style="display:inline;fill:#FFFFFF; font-family:'FiraGO-Regular'; font-size:20px;">PROJECTS</text>
	
		<text transform="matrix(1 0 0 1 6523.6001 -1036.4149)" style="display:inline;fill:#FFFFFF; font-family:'FiraGO-Regular'; font-size:20px;">CONTACT</text>
</g>
<g id="Layer_11">
</g>
<g id="Layer_13">
</g>
<g id="Layer_12">
</g>
</svg>
