<?xml version="1.0" encoding="utf-8"?>
<!-- Generator: Adobe Illustrator 23.0.4, SVG Export Plug-In . SVG Version: 6.00 Build 0)  -->
<svg version="1.1" id="Layer_1" xmlns="http://www.w3.org/2000/svg" xmlns:xlink="http://www.w3.org/1999/xlink" x="0px" y="0px"
	 viewBox="0 0 2171.3 941" style="enable-background:new 0 0 2171.3 941;" xml:space="preserve">
<style type="text/css">
	.st0{fill:#FFFFFF;}
	.st1{fill:#5E239D;}
	.st2{display:none;}
	.st3{display:inline;}
</style>
<g id="Layer_3">
</g>
<g id="Layer_4">
</g>
<g id="varskvlaavebi">
</g>
<g id="Layer_7">
	<path class="st0" d="M2.5,941c-0.4,0-0.7-0.1-1.1-0.2c-0.9-0.4-1.4-1.3-1.4-2.3V519.3c0-0.8,0.3-1.5,0.9-2L648.3,0.5
		c0.8-0.6,1.8-0.7,2.6-0.3c0.9,0.4,1.4,1.3,1.4,2.3v418.4c0,0.8-0.3,1.5-0.9,2L4.1,940.5C3.6,940.8,3.1,941,2.5,941z M5,520.5v412.8
		l642.4-513.6V7.7L5,520.5z"/>
	<path class="st0" d="M1521.3,941H2.5c-1.4,0-2.5-1.1-2.5-2.5V519.3c0-1.4,1.1-2.5,2.5-2.5h1518.8c1.4,0,2.5,1.1,2.5,2.5v419.2
		C1523.8,939.9,1522.7,941,1521.3,941z M5,936h1513.8V521.8H5V936z"/>
	<path class="st0" d="M1521.3,940.2c-0.4,0-0.7-0.1-1.1-0.2c-0.9-0.4-1.4-1.3-1.4-2.3V519.3c0-0.8,0.3-1.5,0.9-2L2167.2,0.5
		c0.8-0.6,1.8-0.7,2.6-0.3c0.9,0.4,1.4,1.3,1.4,2.3v418.4c0,0.8-0.3,1.5-0.9,2l-647.5,516.8C1522.4,940,1521.9,940.2,1521.3,940.2z
		 M1523.8,520.5v412l642.5-512.8V7.7L1523.8,520.5z"/>
	<g>
		<rect x="649.9" y="2.5" class="st1" width="1518.8" height="418.4"/>
		<path class="st0" d="M2168.7,423.4H649.9c-1.4,0-2.5-1.1-2.5-2.5V2.5c0-1.4,1.1-2.5,2.5-2.5h1518.8c1.4,0,2.5,1.1,2.5,2.5v418.4
			C2171.2,422.3,2170.1,423.4,2168.7,423.4z M652.4,418.4h1513.8V5H652.4V418.4z"/>
	</g>
	<rect x="647.4" y="519.3" class="st0" width="5" height="419.2"/>
</g>
<g id="Layer_8">
</g>
<g id="Layer_9">
</g>
<g id="Layer_10">
</g>
<g id="Layer_5" class="st2">
	<g class="st3">
		<path class="st0" d="M7484.2,1093.7c0.9-0.9,1.4-2.2,1.4-4.1c0-1.3-0.2-2.2-0.7-2.9c-0.5-0.7-1.3-1.1-2.3-1.4
			c1-0.3,1.7-0.8,2.1-1.4c0.4-0.7,0.7-1.7,0.7-2.9c0-1.7-0.4-2.9-1.3-3.6c-0.9-0.8-2.4-1.1-4.4-1.1h-3.8v18.8h4
			C7481.8,1095,7483.2,1094.6,7484.2,1093.7z M7478.5,1078.4h1c1.1,0,1.9,0.2,2.3,0.7c0.5,0.4,0.7,1.2,0.7,2.2s-0.2,1.7-0.7,2.2
			s-1.2,0.7-2.3,0.7h-1V1078.4z M7478.5,1092.6v-6.3h1c1.2,0,2,0.3,2.5,0.8s0.8,1.3,0.8,2.5c0,1.1-0.2,1.9-0.7,2.4
			c-0.5,0.4-1.3,0.7-2.6,0.7L7478.5,1092.6L7478.5,1092.6z"/>
		<polygon class="st0" points="7497.1,1092.6 7491.2,1092.6 7491.2,1076.2 7488.4,1076.2 7488.4,1095 7497.1,1095 		"/>
		<path class="st0" d="M7503.7,1095.2c2.1,0,3.5-0.7,4.4-2.2s1.4-4,1.4-7.4c0-3.5-0.5-5.9-1.4-7.4s-2.4-2.2-4.4-2.2
			c-2.1,0-3.6,0.7-4.5,2.2s-1.4,4-1.4,7.4s0.5,5.9,1.4,7.4C7500.2,1094.5,7501.7,1095.2,7503.7,1095.2z M7501.4,1079.9
			c0.5-1.1,1.2-1.6,2.3-1.6c1.1,0,1.9,0.5,2.3,1.6c0.5,1.1,0.7,3,0.7,5.7c0,2.8-0.2,4.7-0.7,5.7s-1.2,1.6-2.3,1.6
			c-1.1,0-1.9-0.5-2.4-1.6s-0.7-3-0.7-5.6C7500.7,1082.9,7500.9,1081,7501.4,1079.9z"/>
		<path class="st0" d="M7518.2,1095.2c0.5,0,1-0.1,1.5-0.2s0.9-0.3,1.4-0.5v-2.5c-0.5,0.2-0.9,0.4-1.3,0.5s-0.8,0.2-1.2,0.2
			c-1.3,0-2.3-0.6-3-1.7s-1-2.9-1-5.3c0-2.6,0.3-4.5,1-5.6c0.7-1.2,1.7-1.8,3.2-1.8c0.3,0,0.7,0,1,0.1s0.7,0.2,1.1,0.4v-2.4
			c-0.4-0.2-0.8-0.3-1.2-0.4c-0.4-0.1-0.9-0.1-1.3-0.1c-2.2,0-3.8,0.8-4.9,2.5s-1.7,4.1-1.7,7.3c0,3.2,0.5,5.5,1.6,7.1
			S7516.1,1095.2,7518.2,1095.2z"/>
		<polygon class="st0" points="7531.5,1076.2 7526.7,1085.1 7526.7,1076.2 7524,1076.2 7524,1095 7526.7,1095 7526.7,1085.3 
			7531.5,1095 7534.4,1095 7529.5,1085.1 7534.4,1076.2 		"/>
		<path class="st0" d="M7544.3,1087.5c-0.5-0.8-1.3-1.6-2.5-2.5c-0.1-0.1-0.2-0.2-0.4-0.3c-2-1.5-3-2.8-3-3.8c0-0.8,0.3-1.4,0.8-1.9
			s1.2-0.7,2.1-0.7c0.5,0,1,0.1,1.5,0.3s1,0.4,1.6,0.8v-2.5c-0.6-0.3-1.2-0.5-1.8-0.6c-0.6-0.1-1.2-0.2-1.8-0.2
			c-1.5,0-2.7,0.5-3.7,1.4s-1.5,2.1-1.5,3.5c0,1,0.2,1.9,0.7,2.6c0.5,0.8,1.3,1.6,2.6,2.6c0.1,0.1,0.3,0.2,0.5,0.4
			c1.9,1.4,2.9,2.7,2.9,3.8c0,0.8-0.2,1.4-0.7,1.8c-0.5,0.5-1.2,0.7-2,0.7c-0.5,0-1-0.1-1.6-0.3c-0.6-0.2-1.2-0.4-1.8-0.8v2.6
			c0.6,0.3,1.2,0.6,1.8,0.7c0.6,0.2,1.2,0.2,1.7,0.2c1.6,0,2.8-0.5,3.8-1.4s1.5-2.1,1.5-3.6
			C7545,1089.2,7544.8,1088.3,7544.3,1087.5z"/>
		<polygon class="st0" points="7483.9,1115.4 7478.5,1102.3 7475.9,1102.3 7475.9,1121.1 7478.5,1121.1 7478.5,1108 7483.9,1121.1 
			7486.5,1121.1 7486.5,1102.3 7483.9,1102.3 		"/>
		<path class="st0" d="M7495.1,1102.1c-2.1,0-3.6,0.7-4.5,2.2s-1.4,4-1.4,7.4s0.5,5.9,1.4,7.4s2.4,2.2,4.5,2.2s3.5-0.7,4.4-2.2
			s1.4-4,1.4-7.4c0-3.5-0.5-5.9-1.4-7.4C7498.7,1102.8,7497.2,1102.1,7495.1,1102.1z M7497.5,1117.4c-0.4,1-1.2,1.6-2.3,1.6
			c-1.1,0-1.9-0.5-2.4-1.6s-0.7-3-0.7-5.6c0-2.7,0.2-4.6,0.7-5.6s1.2-1.6,2.3-1.6c1.1,0,1.9,0.5,2.3,1.6c0.5,1.1,0.7,3,0.7,5.7
			C7498.2,1114.5,7497.9,1116.4,7497.5,1117.4z"/>
		<path class="st0" d="M7507.1,1102.3h-3.7v18.8h3.7c2.8,0,4.8-0.7,5.9-2.1s1.7-3.8,1.7-7.3s-0.6-5.9-1.7-7.3
			S7509.9,1102.3,7507.1,1102.3z M7511,1117.2c-0.6,1-1.7,1.5-3.3,1.5h-1.4v-14h1.4c1.6,0,2.7,0.5,3.3,1.5c0.6,1,0.9,2.8,0.9,5.5
			C7511.9,1114.3,7511.6,1116.1,7511,1117.2z"/>
		<polygon class="st0" points="7517.3,1121.1 7525.5,1121.1 7525.5,1118.8 7520.1,1118.8 7520.1,1112.4 7525.1,1112.4 
			7525.1,1110.2 7520.1,1110.2 7520.1,1104.6 7525.5,1104.6 7525.5,1102.3 7517.3,1102.3 		"/>
		<path class="st0" d="M7406,1065.2v45.2l11.8,10.8h49.2V1076l-11.8-10.8H7406z M7430.8,1087.9h11.5v10.5h-11.5V1087.9z
			 M7442.3,1085.2h-12.4l-7.8-7.2h20.2L7442.3,1085.2L7442.3,1085.2z M7430.8,1101.2h12.4l7.8,7.2h-20.2L7430.8,1101.2
			L7430.8,1101.2z M7409.1,1068h44.1v38.5l-7.8-7.2v-12.8v-11.4H7417v41.3l-7.8-7.2V1068H7409.1z M7464,1118.4h-44.1v-38.5l7.8,7.2
			v12.7v11.4h28.4v-41.3l7.8,7.2v41.3H7464z"/>
	</g>
	<g class="st3">
		<text transform="matrix(1 0 0 1 9565.0479 1049.3671)" class="st0" style="font-family:'FiraGO-Regular'; font-size:20px;">ABOUT</text>
	</g>
	
		<text transform="matrix(1 0 0 1 9766.042 1049.3671)" style="display:inline;fill:#FFFFFF; font-family:'FiraGO-Regular'; font-size:20px;">SERVICES</text>
	
		<text transform="matrix(1 0 0 1 9552.0879 1152.996)" style="display:inline;fill:#FFFFFF; font-family:'FiraGO-Regular'; font-size:20px;">PROJECTS</text>
	
		<text transform="matrix(1 0 0 1 9766.0527 1152.996)" style="display:inline;fill:#FFFFFF; font-family:'FiraGO-Regular'; font-size:20px;">CONTACT</text>
</g>
<g id="Layer_11">
</g>
<g id="Layer_13">
</g>
<g id="Layer_12">
</g>
</svg>
