<?xml version="1.0" encoding="utf-8"?>
<!-- Generator: Adobe Illustrator 23.0.4, SVG Export Plug-In . SVG Version: 6.00 Build 0)  -->
<svg version="1.1" id="Layer_1" xmlns="http://www.w3.org/2000/svg" xmlns:xlink="http://www.w3.org/1999/xlink" x="0px" y="0px"
	 viewBox="0 0 2250 822.3" style="enable-background:new 0 0 2250 822.3;" xml:space="preserve">
<style type="text/css">
	.st0{fill:#FFFFFF;}
	.st1{fill:none;stroke:#FFFFFF;stroke-width:5;stroke-linejoin:round;stroke-miterlimit:10;}
	.st2{font-family:'DelaGothicOne-Regular';}
	.st3{font-size:63px;}
	.st4{display:none;}
	.st5{display:inline;}
</style>
<g id="Layer_3">
</g>
<g id="Layer_4">
</g>
<g id="varskvlaavebi">
</g>
<g id="Layer_7">
</g>
<g id="Layer_8">
</g>
<g id="Layer_9">
	<path class="st0" d="M570.3,743.7H2.5c-1.4,0-2.5-1.1-2.5-2.5V173.4c0-1.4,1.1-2.5,2.5-2.5h567.8c1.4,0,2.5,1.1,2.5,2.5v567.8
		C572.8,742.5,571.7,743.7,570.3,743.7z M5,738.7h562.8V175.9H5V738.7z"/>
	<path class="st0" d="M1391.6,649.2H823.8c-1.4,0-2.5-1.1-2.5-2.5V78.9c0-1.4,1.1-2.5,2.5-2.5h567.8c1.4,0,2.5,1.1,2.5,2.5v567.8
		C1394.1,648,1393,649.2,1391.6,649.2z M826.3,644.2h562.8V81.4H826.3V644.2z"/>
	<path class="st1" d="M2.5,173.4"/>
	<path class="st0" d="M2247.5,743.7h-567.8c-1.4,0-2.5-1.1-2.5-2.5V173.4c0-1.4,1.1-2.5,2.5-2.5h567.8c1.4,0,2.5,1.1,2.5,2.5v567.8
		C2250,742.5,2248.9,743.7,2247.5,743.7z M1682.2,738.7H2245V175.9h-562.8V738.7z"/>
	<path class="st1" d="M1679.7,173.4"/>
</g>
<g id="Layer_10">
	<g>
		<text transform="matrix(1 0 0 1 237.2724 72.1923)" class="st0 st2 st3">01</text>
	</g>
	<g>
		<text transform="matrix(1 0 0 1 1905.2783 72.1923)" class="st0 st2 st3">03</text>
	</g>
	<g>
		<text transform="matrix(1 0 0 1 1051.7001 793.9732)" class="st0 st2 st3">02</text>
	</g>
	
		<rect x="-0.2" y="123.6" transform="matrix(0.9935 -0.1142 0.1142 0.9935 -11.7027 48.0265)" class="st0" width="826.7" height="5"/>
	
		<rect x="561.8" y="123.6" transform="matrix(0.937 -0.3492 0.3492 0.937 -0.1583 251.3461)" class="st0" width="270.5" height="5"/>
	
		<rect x="561.8" y="691.4" transform="matrix(0.937 -0.3492 0.3492 0.937 -198.4321 287.0894)" class="st0" width="270.5" height="5"/>
	
		<rect x="1817" y="-304.4" transform="matrix(0.1097 -0.994 0.994 0.1097 1494.5164 1920.8318)" class="st0" width="5" height="861.1"/>
	
		<rect x="1533.1" y="-25.5" transform="matrix(0.3117 -0.9502 0.9502 0.3117 937.2003 1545.9651)" class="st0" width="5" height="303.2"/>
	
		<rect x="1533.2" y="542.3" transform="matrix(0.3117 -0.9502 0.9502 0.3117 397.6823 1936.7979)" class="st0" width="5" height="303.2"/>
</g>
<g id="Layer_5" class="st4">
	<g class="st5">
		<path class="st0" d="M7473.5-1070.2c0.9-0.9,1.4-2.2,1.4-4.1c0-1.3-0.2-2.2-0.7-2.9c-0.5-0.7-1.3-1.1-2.3-1.4
			c1-0.3,1.7-0.8,2.1-1.4c0.4-0.7,0.7-1.7,0.7-2.9c0-1.7-0.4-2.9-1.3-3.6c-0.9-0.8-2.4-1.1-4.4-1.1h-3.8v18.8h4
			C7471.1-1068.9,7472.5-1069.3,7473.5-1070.2z M7467.8-1085.5h1c1.1,0,1.9,0.2,2.3,0.7c0.5,0.4,0.7,1.2,0.7,2.2s-0.2,1.7-0.7,2.2
			s-1.2,0.7-2.3,0.7h-1V-1085.5z M7467.8-1071.3v-6.3h1c1.2,0,2,0.3,2.5,0.8s0.8,1.3,0.8,2.5c0,1.1-0.2,1.9-0.7,2.4
			c-0.5,0.4-1.3,0.7-2.6,0.7h-1V-1071.3z"/>
		<polygon class="st0" points="7486.4,-1071.2 7480.5,-1071.2 7480.5,-1087.7 7477.7,-1087.7 7477.7,-1068.9 7486.4,-1068.9 		"/>
		<path class="st0" d="M7493-1068.7c2.1,0,3.5-0.7,4.4-2.2s1.4-4,1.4-7.4c0-3.5-0.5-5.9-1.4-7.4s-2.4-2.2-4.4-2.2
			c-2.1,0-3.6,0.7-4.5,2.2s-1.4,4-1.4,7.4c0,3.4,0.5,5.9,1.4,7.4C7489.5-1069.4,7491-1068.7,7493-1068.7z M7490.7-1084
			c0.5-1.1,1.2-1.6,2.3-1.6c1.1,0,1.9,0.5,2.3,1.6c0.5,1.1,0.7,3,0.7,5.7c0,2.8-0.2,4.7-0.7,5.7c-0.4,1-1.2,1.6-2.3,1.6
			c-1.1,0-1.9-0.5-2.4-1.6s-0.7-3-0.7-5.6C7490-1081,7490.2-1082.9,7490.7-1084z"/>
		<path class="st0" d="M7507.5-1068.7c0.5,0,1-0.1,1.5-0.2s0.9-0.3,1.4-0.5v-2.5c-0.5,0.2-0.9,0.4-1.3,0.5s-0.8,0.2-1.2,0.2
			c-1.3,0-2.3-0.6-3-1.7c-0.6-1.2-1-2.9-1-5.3c0-2.6,0.3-4.5,1-5.6c0.7-1.2,1.7-1.8,3.2-1.8c0.3,0,0.7,0,1,0.1
			c0.4,0.1,0.7,0.2,1.1,0.4v-2.4c-0.4-0.2-0.8-0.3-1.2-0.4c-0.4-0.1-0.9-0.1-1.3-0.1c-2.2,0-3.8,0.8-4.9,2.5
			c-1.1,1.7-1.7,4.1-1.7,7.3c0,3.2,0.5,5.5,1.6,7.1S7505.4-1068.7,7507.5-1068.7z"/>
		<polygon class="st0" points="7520.8,-1087.7 7516,-1078.8 7516,-1087.7 7513.3,-1087.7 7513.3,-1068.9 7516,-1068.9 7516,-1078.6 
			7520.8,-1068.9 7523.7,-1068.9 7518.8,-1078.8 7523.7,-1087.7 		"/>
		<path class="st0" d="M7533.6-1076.4c-0.5-0.8-1.3-1.6-2.5-2.5c-0.1-0.1-0.2-0.2-0.4-0.3c-2-1.5-3-2.8-3-3.8c0-0.8,0.3-1.4,0.8-1.9
			s1.2-0.7,2.1-0.7c0.5,0,1,0.1,1.5,0.3c0.5,0.2,1,0.4,1.6,0.8v-2.5c-0.6-0.3-1.2-0.5-1.8-0.6c-0.6-0.1-1.2-0.2-1.8-0.2
			c-1.5,0-2.7,0.5-3.7,1.4s-1.5,2.1-1.5,3.5c0,1,0.2,1.9,0.7,2.6c0.5,0.8,1.3,1.6,2.6,2.6c0.1,0.1,0.3,0.2,0.5,0.4
			c1.9,1.4,2.9,2.7,2.9,3.8c0,0.8-0.2,1.4-0.7,1.8c-0.5,0.5-1.2,0.7-2,0.7c-0.5,0-1-0.1-1.6-0.3s-1.2-0.4-1.8-0.8v2.6
			c0.6,0.3,1.2,0.6,1.8,0.7c0.6,0.2,1.2,0.2,1.7,0.2c1.6,0,2.8-0.5,3.8-1.4s1.5-2.1,1.5-3.6
			C7534.3-1074.7,7534.1-1075.6,7533.6-1076.4z"/>
		<polygon class="st0" points="7473.2,-1048.5 7467.8,-1061.6 7465.2,-1061.6 7465.2,-1042.8 7467.8,-1042.8 7467.8,-1055.9 
			7473.2,-1042.8 7475.8,-1042.8 7475.8,-1061.6 7473.2,-1061.6 		"/>
		<path class="st0" d="M7484.4-1061.8c-2.1,0-3.6,0.7-4.5,2.2s-1.4,4-1.4,7.4c0,3.4,0.5,5.9,1.4,7.4s2.4,2.2,4.5,2.2
			s3.5-0.7,4.4-2.2s1.4-4,1.4-7.4c0-3.5-0.5-5.9-1.4-7.4C7488-1061.1,7486.5-1061.8,7484.4-1061.8z M7486.8-1046.5
			c-0.4,1-1.2,1.6-2.3,1.6c-1.1,0-1.9-0.5-2.4-1.6s-0.7-3-0.7-5.6c0-2.7,0.2-4.6,0.7-5.6c0.5-1.1,1.2-1.6,2.3-1.6
			c1.1,0,1.9,0.5,2.3,1.6c0.5,1.1,0.7,3,0.7,5.7C7487.5-1049.4,7487.2-1047.5,7486.8-1046.5z"/>
		<path class="st0" d="M7496.4-1061.6h-3.7v18.8h3.7c2.8,0,4.8-0.7,5.9-2.1s1.7-3.8,1.7-7.3s-0.6-5.9-1.7-7.3
			C7501.2-1060.9,7499.2-1061.6,7496.4-1061.6z M7500.3-1046.7c-0.6,1-1.7,1.5-3.3,1.5h-1.4v-14h1.4c1.6,0,2.7,0.5,3.3,1.5
			c0.6,1,0.9,2.8,0.9,5.5C7501.2-1049.6,7500.9-1047.8,7500.3-1046.7z"/>
		<polygon class="st0" points="7506.6,-1042.8 7514.8,-1042.8 7514.8,-1045.1 7509.4,-1045.1 7509.4,-1051.5 7514.4,-1051.5 
			7514.4,-1053.7 7509.4,-1053.7 7509.4,-1059.3 7514.8,-1059.3 7514.8,-1061.6 7506.6,-1061.6 		"/>
		<path class="st0" d="M7395.3-1098.7v45.2l11.8,10.8h49.2v-45.2l-11.8-10.8H7395.3z M7420.1-1076h11.5v10.5h-11.5V-1076z
			 M7431.6-1078.7h-12.4l-7.8-7.2h20.2L7431.6-1078.7L7431.6-1078.7z M7420.1-1062.7h12.4l7.8,7.2h-20.2L7420.1-1062.7
			L7420.1-1062.7z M7398.4-1095.9h44.1v38.5l-7.8-7.2v-12.7v-11.4h-28.4v41.3l-7.8-7.2v-41.3H7398.4z M7453.3-1045.5h-44.1v-38.5
			l7.8,7.2v12.7v11.4h28.4v-41.3l7.8,7.2v41.3H7453.3z"/>
	</g>
	<g class="st5">
		<text transform="matrix(1 0 0 1 9554.3477 -1114.5593)" class="st0" style="font-family:'FiraGO-Regular'; font-size:20px;">ABOUT</text>
	</g>
	
		<text transform="matrix(1 0 0 1 9755.3418 -1114.5593)" style="display:inline;fill:#FFFFFF; font-family:'FiraGO-Regular'; font-size:20px;">SERVICES</text>
	
		<text transform="matrix(1 0 0 1 9541.3877 -1010.9305)" style="display:inline;fill:#FFFFFF; font-family:'FiraGO-Regular'; font-size:20px;">PROJECTS</text>
	
		<text transform="matrix(1 0 0 1 9755.3525 -1010.9305)" style="display:inline;fill:#FFFFFF; font-family:'FiraGO-Regular'; font-size:20px;">CONTACT</text>
</g>
<g id="Layer_11">
</g>
<g id="Layer_13">
</g>
<g id="Layer_12">
</g>
</svg>
