<?xml version="1.0" encoding="utf-8"?>
<!-- Generator: Adobe Illustrator 23.0.4, SVG Export Plug-In . SVG Version: 6.00 Build 0)  -->
<svg version="1.1" id="Layer_1" xmlns="http://www.w3.org/2000/svg" xmlns:xlink="http://www.w3.org/1999/xlink" x="0px" y="0px"
	 viewBox="0 0 2250 810.4" style="enable-background:new 0 0 2250 810.4;" xml:space="preserve">
<style type="text/css">
	.st0{fill:#FFFFFF;}
	.st1{fill:none;}
	.st2{font-family:'FiraGO-Book';}
	.st3{font-size:19px;}
	.st4{letter-spacing:2;}
	.st5{font-family:'FiraGO-ExtraBoldItalic';}
	.st6{font-size:28px;}
	.st7{fill:none;stroke:#FFFFFF;stroke-width:5;stroke-linejoin:round;stroke-miterlimit:10;}
	.st8{letter-spacing:3;}
	.st9{letter-spacing:6;}
	.st10{letter-spacing:5;}
	.st11{letter-spacing:7;}
	.st12{font-family:'DelaGothicOne-Regular';}
	.st13{font-size:63px;}
	.st14{display:none;}
	.st15{display:inline;}
</style>
<g id="Layer_3">
</g>
<g id="Layer_4">
</g>
<g id="varskvlaavebi">
</g>
<g id="Layer_7">
</g>
<g id="Layer_8">
</g>
<path class="st0" d="M570.3,728.3H2.5c-1.4,0-2.5-1.1-2.5-2.5V158c0-1.4,1.1-2.5,2.5-2.5h567.8c1.4,0,2.5,1.1,2.5,2.5v567.8
	C572.8,727.1,571.7,728.3,570.3,728.3z M5,723.3h562.8V160.5H5V723.3z"/>
<rect x="88.5" y="432.9" class="st1" width="395.7" height="129.4"/>
<text transform="matrix(1 0 0 1 88.5264 447.1979)" class="st0 st2 st3">The</text>
<text transform="matrix(1 0 0 1 119.5264 447.1979)" class="st0 st2 st3"> </text>
<text transform="matrix(1 0 0 1 124.8264 447.1979)" class="st0 st2 st3">driving</text>
<text transform="matrix(1 0 0 1 183.7264 447.1979)" class="st0 st2 st3"> </text>
<text transform="matrix(1 0 0 1 189.0264 447.1979)" class="st0 st2 st3">factor</text>
<text transform="matrix(1 0 0 1 239.6265 447.1979)" class="st0 st2 st3"> </text>
<text transform="matrix(1 0 0 1 244.9264 447.1979)" class="st0 st2 st3">for</text>
<text transform="matrix(1 0 0 1 269.5264 447.1979)" class="st0 st2 st3"> </text>
<text transform="matrix(1 0 0 1 274.8264 447.1979)" class="st0 st2 st3">our</text>
<text transform="matrix(1 0 0 1 303.9264 447.1979)" class="st0 st2 st3"> </text>
<text transform="matrix(1 0 0 1 309.2264 447.1979)" class="st0 st2 st3">company’s</text>
<text transform="matrix(1 0 0 1 400.2264 447.1979)" class="st0 st2 st3"> </text>
<text transform="matrix(1 0 0 1 405.5264 447.1979)" class="st0 st2 st3">growth</text>
<text transform="matrix(1 0 0 1 464.9264 447.1979)" class="st0 st2 st3"> </text>
<text transform="matrix(1 0 0 1 470.2264 447.1979)" class="st0 st2 st3">is </text>
<text transform="matrix(1 0 0 1 88.5264 469.9979)" class="st0 st2 st3">due</text>
<text transform="matrix(1 0 0 1 120.9265 469.9979)" class="st0 st2 st3"> </text>
<text transform="matrix(1 0 0 1 125.8264 469.9979)" class="st0 st2 st3">to</text>
<text transform="matrix(1 0 0 1 143.6264 469.9979)" class="st0 st2 st3"> </text>
<text transform="matrix(1 0 0 1 148.5264 469.9979)" class="st0 st2 st3">the</text>
<text transform="matrix(1 0 0 1 176.6264 469.9979)" class="st0 st2 st3"> </text>
<text transform="matrix(1 0 0 1 181.5264 469.9979)" class="st0 st2 st3">wide</text>
<text transform="matrix(1 0 0 1 221.7264 469.9979)" class="st0 st2 st3"> </text>
<text transform="matrix(1 0 0 1 226.7264 469.9979)" class="st0 st2 st3">range</text>
<text transform="matrix(1 0 0 1 275.3264 469.9979)" class="st0 st2 st3"> </text>
<text transform="matrix(1 0 0 1 280.2264 469.9979)" class="st0 st2 st3">of</text>
<text transform="matrix(1 0 0 1 297.6265 469.9979)" class="st0 st2 st3"> </text>
<text transform="matrix(1 0 0 1 302.5264 469.9979)" class="st0 st2 st3">customized</text>
<text transform="matrix(1 0 0 1 400.1265 469.9979)" class="st0 st2 st3"> </text>
<text transform="matrix(1 0 0 1 405.0264 469.9979)" class="st0 st2 st3">solutions </text>
<text transform="matrix(1 0 0 1 88.5264 492.7979)" class="st0 st2 st3">for</text>
<text transform="matrix(1 0 0 1 113.1264 492.7979)" class="st0 st2 st3 st4"> </text>
<text transform="matrix(1 0 0 1 121.4265 492.7979)" class="st0 st2 st3">diversified</text>
<text transform="matrix(1 0 0 1 210.9265 492.7979)" class="st0 st2 st3 st4"> </text>
<text transform="matrix(1 0 0 1 219.2264 492.7979)" class="st0 st2 st3">industries.</text>
<text transform="matrix(1 0 0 1 309.1265 492.7979)" class="st0 st2 st3 st4"> </text>
<text transform="matrix(1 0 0 1 317.4264 492.7979)" class="st0 st2 st3">Our</text>
<text transform="matrix(1 0 0 1 348.7264 492.7979)" class="st0 st2 st3 st4"> </text>
<text transform="matrix(1 0 0 1 357.0264 492.7979)" class="st0 st2 st3">team</text>
<text transform="matrix(1 0 0 1 400.6265 492.7979)" class="st0 st2 st3 st4"> </text>
<text transform="matrix(1 0 0 1 408.9264 492.7979)" class="st0 st2 st3">of</text>
<text transform="matrix(1 0 0 1 426.3264 492.7979)" class="st0 st2 st3 st4"> </text>
<text transform="matrix(1 0 0 1 434.6265 492.7979)" class="st0 st2 st3">adept </text>
<text transform="matrix(1 0 0 1 88.5264 515.5979)" class="st0 st2 st3">blockchain</text>
<text transform="matrix(1 0 0 1 181.3264 515.5979)" class="st0 st2 st3 st4"> </text>
<text transform="matrix(1 0 0 1 190.2264 515.5979)" class="st0 st2 st3">developers</text>
<text transform="matrix(1 0 0 1 285.3264 515.5979)" class="st0 st2 st3 st4"> </text>
<text transform="matrix(1 0 0 1 294.2264 515.5979)" class="st0 st2 st3">can</text>
<text transform="matrix(1 0 0 1 324.5264 515.5979)" class="st0 st2 st3 st4"> </text>
<text transform="matrix(1 0 0 1 333.4264 515.5979)" class="st0 st2 st3">provide</text>
<text transform="matrix(1 0 0 1 398.7264 515.5979)" class="st0 st2 st3 st4"> </text>
<text transform="matrix(1 0 0 1 407.6265 515.5979)" class="st0 st2 st3">you</text>
<text transform="matrix(1 0 0 1 438.8264 515.5979)" class="st0 st2 st3 st4"> </text>
<text transform="matrix(1 0 0 1 447.7264 515.5979)" class="st0 st2 st3">with </text>
<text transform="matrix(1 0 0 1 88.5264 538.3979)" class="st0 st2 st3">tailor-made solutions as per requirements</text>
<g>
	<rect x="88.5" y="326.4" class="st1" width="395.7" height="74"/>
	<text transform="matrix(1 0 0 1 88.5264 347.7233)" class="st0 st5 st6">Blockchain System</text>
	<text transform="matrix(1 0 0 1 88.5264 381.3233)" class="st0 st5 st6">Development</text>
</g>
<rect x="823.8" y="63.5" class="st7" width="567.8" height="567.8"/>
<path class="st7" d="M2.5,158"/>
<path class="st0" d="M2247.5,728.3h-567.8c-1.4,0-2.5-1.1-2.5-2.5V158c0-1.4,1.1-2.5,2.5-2.5h567.8c1.4,0,2.5,1.1,2.5,2.5v567.8
	C2250,727.1,2248.9,728.3,2247.5,728.3z M1682.2,723.3H2245V160.5h-562.8V723.3z"/>
<path class="st7" d="M1679.7,158"/>
<rect x="909.9" y="338.4" class="st1" width="395.7" height="159.2"/>
<text transform="matrix(1 0 0 1 909.8834 352.6852)" class="st0 st2 st3">Supply</text>
<text transform="matrix(1 0 0 1 968.0834 352.6852)" class="st0 st2 st3"> </text>
<text transform="matrix(1 0 0 1 973.9834 352.6852)" class="st0 st2 st3">chain</text>
<text transform="matrix(1 0 0 1 1020.4834 352.6852)" class="st0 st2 st3"> </text>
<text transform="matrix(1 0 0 1 1026.3834 352.6852)" class="st0 st2 st3">management,</text>
<text transform="matrix(1 0 0 1 1142.8834 352.6852)" class="st0 st2 st3"> </text>
<text transform="matrix(1 0 0 1 1148.6835 352.6852)" class="st0 st2 st3">provenance</text>
<text transform="matrix(1 0 0 1 1249.1833 352.6852)" class="st0 st2 st3"> </text>
<text transform="matrix(1 0 0 1 1255.0835 352.6852)" class="st0 st2 st3">track</text>
<text transform="matrix(1 0 0 1 1297.9834 352.6852)" class="st0 st2 st3">-</text>
<text transform="matrix(1 0 0 1 909.8834 375.4852)" class="st0 st2 st3">ing,</text>
<text transform="matrix(1 0 0 1 940.2834 375.4852)" class="st0 st2 st3 st8"> </text>
<text transform="matrix(1 0 0 1 949.6835 375.4852)" class="st0 st2 st3">digital</text>
<text transform="matrix(1 0 0 1 1003.6835 375.4852)" class="st0 st2 st3 st8"> </text>
<text transform="matrix(1 0 0 1 1012.9834 375.4852)" class="st0 st2 st3">identity</text>
<text transform="matrix(1 0 0 1 1078.6835 375.4852)" class="st0 st2 st3 st8"> </text>
<text transform="matrix(1 0 0 1 1087.9834 375.4852)" class="st0 st2 st3">management,</text>
<text transform="matrix(1 0 0 1 1204.4834 375.4852)" class="st0 st2 st3 st8"> </text>
<text transform="matrix(1 0 0 1 1213.7834 375.4852)" class="st0 st2 st3">healthcare </text>
<text transform="matrix(1 0 0 1 909.8834 398.2852)" class="st0 st2 st3">data</text>
<text transform="matrix(1 0 0 1 948.3834 398.2852)" class="st0 st2 st3"> </text>
<text transform="matrix(1 0 0 1 955.1835 398.2852)" class="st0 st2 st3">storage,</text>
<text transform="matrix(1 0 0 1 1023.8834 398.2852)" class="st0 st2 st3"> </text>
<text transform="matrix(1 0 0 1 1030.5834 398.2852)" class="st0 st2 st3">automated</text>
<text transform="matrix(1 0 0 1 1124.2834 398.2852)" class="st0 st2 st3"> </text>
<text transform="matrix(1 0 0 1 1131.0834 398.2852)" class="st0 st2 st3">insurance</text>
<text transform="matrix(1 0 0 1 1214.8834 398.2852)" class="st0 st2 st3"> </text>
<text transform="matrix(1 0 0 1 1221.5835 398.2852)" class="st0 st2 st3">quotes</text>
<text transform="matrix(1 0 0 1 1280.5835 398.2852)" class="st0 st2 st3"> </text>
<text transform="matrix(1 0 0 1 1287.3834 398.2852)" class="st0 st2 st3">or </text>
<text transform="matrix(1 0 0 1 909.8834 421.0852)" class="st0 st2 st3">voting</text>
<text transform="matrix(1 0 0 1 962.9834 421.0852)" class="st0 st2 st3 st9"> </text>
<text transform="matrix(1 0 0 1 975.1835 421.0852)" class="st0 st2 st3">–</text>
<text transform="matrix(1 0 0 1 985.0834 421.0852)" class="st0 st2 st3 st9"> </text>
<text transform="matrix(1 0 0 1 997.2834 421.0852)" class="st0 st2 st3">market-ready</text>
<text transform="matrix(1 0 0 1 1113.3834 421.0852)" class="st0 st2 st3 st9"> </text>
<text transform="matrix(1 0 0 1 1125.5834 421.0852)" class="st0 st2 st3">business</text>
<text transform="matrix(1 0 0 1 1200.5835 421.0852)" class="st0 st2 st3 st9"> </text>
<text transform="matrix(1 0 0 1 1212.7834 421.0852)" class="st0 st2 st3">blockchain </text>
<text transform="matrix(1 0 0 1 909.8834 443.8852)" class="st0 st2 st3">use cases are multiplying</text>
<g>
	<rect x="909.9" y="231.9" class="st1" width="395.7" height="74"/>
	<text transform="matrix(1 0 0 1 909.8834 253.2116)" class="st0 st5 st6">Business blockchain platforms</text>
</g>
<rect x="1765.8" y="432.9" class="st1" width="395.7" height="197.2"/>
<text transform="matrix(1 0 0 1 1765.762 447.1969)" class="st0 st2 st3">Launch</text>
<text transform="matrix(1 0 0 1 1827.3621 447.1969)" class="st0 st2 st3"> </text>
<text transform="matrix(1 0 0 1 1831.562 447.1969)" class="st0 st2 st3">a</text>
<text transform="matrix(1 0 0 1 1841.8621 447.1969)" class="st0 st2 st3"> </text>
<text transform="matrix(1 0 0 1 1845.9619 447.1969)" class="st0 st2 st3">standalone</text>
<text transform="matrix(1 0 0 1 1942.262 447.1969)" class="st0 st2 st3"> </text>
<text transform="matrix(1 0 0 1 1946.4619 447.1969)" class="st0 st2 st3">cold</text>
<text transform="matrix(1 0 0 1 1983.1619 447.1969)" class="st0 st2 st3"> </text>
<text transform="matrix(1 0 0 1 1987.3621 447.1969)" class="st0 st2 st3">wallet</text>
<text transform="matrix(1 0 0 1 2039.3621 447.1969)" class="st0 st2 st3"> </text>
<text transform="matrix(1 0 0 1 2043.562 447.1969)" class="st0 st2 st3">for</text>
<text transform="matrix(1 0 0 1 2068.1619 447.1969)" class="st0 st2 st3"> </text>
<text transform="matrix(1 0 0 1 2072.262 447.1969)" class="st0 st2 st3">cryptocur</text>
<text transform="matrix(1 0 0 1 2153.8621 447.1969)" class="st0 st2 st3">-</text>
<text transform="matrix(1 0 0 1 1765.762 469.9969)" class="st0 st2 st3">rencies</text>
<text transform="matrix(1 0 0 1 1827.6619 469.9969)" class="st0 st2 st3 st10"> </text>
<text transform="matrix(1 0 0 1 1839.6619 469.9969)" class="st0 st2 st3">or</text>
<text transform="matrix(1 0 0 1 1857.8621 469.9969)" class="st0 st2 st3 st10"> </text>
<text transform="matrix(1 0 0 1 1869.8621 469.9969)" class="st0 st2 st3">incorporate</text>
<text transform="matrix(1 0 0 1 1970.062 469.9969)" class="st0 st2 st3 st10"> </text>
<text transform="matrix(1 0 0 1 1982.062 469.9969)" class="st0 st2 st3">a</text>
<text transform="matrix(1 0 0 1 1992.3621 469.9969)" class="st0 st2 st3 st10"> </text>
<text transform="matrix(1 0 0 1 2004.3621 469.9969)" class="st0 st2 st3">secure</text>
<text transform="matrix(1 0 0 1 2060.9619 469.9969)" class="st0 st2 st3 st10"> </text>
<text transform="matrix(1 0 0 1 2072.9619 469.9969)" class="st0 st2 st3">multi-coin </text>
<text transform="matrix(1 0 0 1 1765.762 492.7969)" class="st0 st2 st3">blockchain</text>
<text transform="matrix(1 0 0 1 1858.562 492.7969)" class="st0 st2 st3 st4"> </text>
<text transform="matrix(1 0 0 1 1866.6619 492.7969)" class="st0 st2 st3">wallet</text>
<text transform="matrix(1 0 0 1 1918.762 492.7969)" class="st0 st2 st3 st4"> </text>
<text transform="matrix(1 0 0 1 1926.8621 492.7969)" class="st0 st2 st3">into</text>
<text transform="matrix(1 0 0 1 1960.8621 492.7969)" class="st0 st2 st3 st4"> </text>
<text transform="matrix(1 0 0 1 1968.9619 492.7969)" class="st0 st2 st3">your</text>
<text transform="matrix(1 0 0 1 2007.3621 492.7969)" class="st0 st2 st3 st4"> </text>
<text transform="matrix(1 0 0 1 2015.4619 492.7969)" class="st0 st2 st3">existing</text>
<text transform="matrix(1 0 0 1 2081.762 492.7969)" class="st0 st2 st3 st4"> </text>
<text transform="matrix(1 0 0 1 2089.8621 492.7969)" class="st0 st2 st3">product. </text>
<text transform="matrix(1 0 0 1 1765.762 515.5969)" class="st0 st2 st3">Our</text>
<text transform="matrix(1 0 0 1 1797.062 515.5969)" class="st0 st2 st3 st11"> </text>
<text transform="matrix(1 0 0 1 1810.262 515.5969)" class="st0 st2 st3">UX/UI</text>
<text transform="matrix(1 0 0 1 1860.8621 515.5969)" class="st0 st2 st3 st11"> </text>
<text transform="matrix(1 0 0 1 1874.062 515.5969)" class="st0 st2 st3">team</text>
<text transform="matrix(1 0 0 1 1917.562 515.5969)" class="st0 st2 st3 st11"> </text>
<text transform="matrix(1 0 0 1 1930.762 515.5969)" class="st0 st2 st3">will</text>
<text transform="matrix(1 0 0 1 1960.6619 515.5969)" class="st0 st2 st3 st11"> </text>
<text transform="matrix(1 0 0 1 1973.762 515.5969)" class="st0 st2 st3">ensure</text>
<text transform="matrix(1 0 0 1 2032.3621 515.5969)" class="st0 st2 st3 st11"> </text>
<text transform="matrix(1 0 0 1 2045.562 515.5969)" class="st0 st2 st3">its</text>
<text transform="matrix(1 0 0 1 2066.3621 515.5969)" class="st0 st2 st3 st11"> </text>
<text transform="matrix(1 0 0 1 2079.562 515.5969)" class="st0 st2 st3">attractive </text>
<text transform="matrix(1 0 0 1 1765.762 538.3969)" class="st0 st2 st3">front-end,</text>
<text transform="matrix(1 0 0 1 1852.562 538.3969)" class="st0 st2 st3"> </text>
<text transform="matrix(1 0 0 1 1859.6619 538.3969)" class="st0 st2 st3">while</text>
<text transform="matrix(1 0 0 1 1905.262 538.3969)" class="st0 st2 st3"> </text>
<text transform="matrix(1 0 0 1 1912.3621 538.3969)" class="st0 st2 st3">our</text>
<text transform="matrix(1 0 0 1 1941.562 538.3969)" class="st0 st2 st3"> </text>
<text transform="matrix(1 0 0 1 1948.6619 538.3969)" class="st0 st2 st3">blockchain</text>
<text transform="matrix(1 0 0 1 2041.4619 538.3969)" class="st0 st2 st3"> </text>
<text transform="matrix(1 0 0 1 2048.562 538.3969)" class="st0 st2 st3">development </text>
<text transform="matrix(1 0 0 1 1765.762 561.1969)" class="st0 st2 st3">team will make it fully secure to use</text>
<g>
	<rect x="1765.8" y="326.4" class="st1" width="395.7" height="74"/>
	<text transform="matrix(1 0 0 1 1765.762 347.7233)" class="st0 st5 st6">Blockchain wallets</text>
</g>
<g id="Layer_10">
	<g>
		<text transform="matrix(1 0 0 1 237.2724 56.7976)" class="st0 st12 st13">01</text>
	</g>
	<g>
		<text transform="matrix(1 0 0 1 1905.2783 56.7976)" class="st0 st12 st13">03</text>
	</g>
	<g>
		<text transform="matrix(1 0 0 1 1051.7001 778.5785)" class="st0 st12 st13">02</text>
	</g>
	
		<rect x="-0.2" y="108.2" transform="matrix(0.9935 -0.1142 0.1142 0.9935 -9.9439 47.9257)" class="st0" width="826.7" height="5"/>
	<rect x="561.8" y="108.2" transform="matrix(0.937 -0.3492 0.3492 0.937 5.2175 250.377)" class="st0" width="270.5" height="5"/>
	
		<rect x="561.8" y="676" transform="matrix(0.937 -0.3492 0.3492 0.937 -193.0563 286.1203)" class="st0" width="270.5" height="5"/>
	
		<rect x="1817" y="-319.8" transform="matrix(0.1097 -0.994 0.994 0.1097 1509.8181 1907.1265)" class="st0" width="5" height="861.1"/>
	
		<rect x="1533.1" y="-40.9" transform="matrix(0.3117 -0.9502 0.9502 0.3117 951.8282 1535.3685)" class="st0" width="5" height="303.2"/>
	
		<rect x="1533.2" y="526.9" transform="matrix(0.3117 -0.9502 0.9502 0.3117 412.3102 1926.2013)" class="st0" width="5" height="303.2"/>
</g>
<g id="Layer_5" class="st14">
	<g class="st15">
		<path class="st0" d="M7473.5-1085.6c0.9-0.9,1.4-2.2,1.4-4.1c0-1.3-0.2-2.2-0.7-2.9s-1.3-1.1-2.3-1.4c1-0.3,1.7-0.8,2.1-1.4
			c0.4-0.7,0.7-1.7,0.7-2.9c0-1.7-0.4-2.9-1.3-3.6c-0.9-0.8-2.4-1.1-4.4-1.1h-3.8v18.8h4C7471.1-1084.3,7472.5-1084.7,7473.5-1085.6
			z M7467.8-1100.9h1c1.1,0,1.9,0.2,2.3,0.7c0.5,0.4,0.7,1.2,0.7,2.2s-0.2,1.7-0.7,2.2s-1.2,0.7-2.3,0.7h-1V-1100.9z M7467.8-1086.7
			v-6.3h1c1.2,0,2,0.3,2.5,0.8s0.8,1.3,0.8,2.5c0,1.1-0.2,1.9-0.7,2.4c-0.5,0.4-1.3,0.7-2.6,0.7L7467.8-1086.7L7467.8-1086.7z"/>
		<polygon class="st0" points="7486.4,-1086.6 7480.5,-1086.6 7480.5,-1103.1 7477.7,-1103.1 7477.7,-1084.3 7486.4,-1084.3 		"/>
		<path class="st0" d="M7493-1084.1c2.1,0,3.5-0.7,4.4-2.2s1.4-4,1.4-7.4c0-3.5-0.5-5.9-1.4-7.4s-2.4-2.2-4.4-2.2
			c-2.1,0-3.6,0.7-4.5,2.2s-1.4,4-1.4,7.4s0.5,5.9,1.4,7.4C7489.5-1084.8,7491-1084.1,7493-1084.1z M7490.7-1099.4
			c0.5-1.1,1.2-1.6,2.3-1.6c1.1,0,1.9,0.5,2.3,1.6c0.5,1.1,0.7,3,0.7,5.7c0,2.8-0.2,4.7-0.7,5.7c-0.4,1-1.2,1.6-2.3,1.6
			c-1.1,0-1.9-0.5-2.4-1.6c-0.5-1.1-0.7-3-0.7-5.6C7490-1096.4,7490.2-1098.3,7490.7-1099.4z"/>
		<path class="st0" d="M7507.5-1084.1c0.5,0,1-0.1,1.5-0.2c0.5-0.1,0.9-0.3,1.4-0.5v-2.5c-0.5,0.2-0.9,0.4-1.3,0.5
			c-0.4,0.1-0.8,0.2-1.2,0.2c-1.3,0-2.3-0.6-3-1.7c-0.6-1.2-1-2.9-1-5.3c0-2.6,0.3-4.5,1-5.6c0.7-1.2,1.7-1.8,3.2-1.8
			c0.3,0,0.7,0,1,0.1c0.4,0.1,0.7,0.2,1.1,0.4v-2.4c-0.4-0.2-0.8-0.3-1.2-0.4c-0.4-0.1-0.9-0.1-1.3-0.1c-2.2,0-3.8,0.8-4.9,2.5
			c-1.1,1.7-1.7,4.1-1.7,7.3c0,3.2,0.5,5.5,1.6,7.1C7503.8-1084.9,7505.4-1084.1,7507.5-1084.1z"/>
		<polygon class="st0" points="7520.8,-1103.1 7516,-1094.2 7516,-1103.1 7513.3,-1103.1 7513.3,-1084.3 7516,-1084.3 7516,-1094 
			7520.8,-1084.3 7523.7,-1084.3 7518.8,-1094.2 7523.7,-1103.1 		"/>
		<path class="st0" d="M7533.6-1091.8c-0.5-0.8-1.3-1.6-2.5-2.5c-0.1-0.1-0.2-0.2-0.4-0.3c-2-1.5-3-2.8-3-3.8c0-0.8,0.3-1.4,0.8-1.9
			s1.2-0.7,2.1-0.7c0.5,0,1,0.1,1.5,0.3s1,0.4,1.6,0.8v-2.5c-0.6-0.3-1.2-0.5-1.8-0.6c-0.6-0.1-1.2-0.2-1.8-0.2
			c-1.5,0-2.7,0.5-3.7,1.4c-1,0.9-1.5,2.1-1.5,3.5c0,1,0.2,1.9,0.7,2.6c0.5,0.8,1.3,1.6,2.6,2.6c0.1,0.1,0.3,0.2,0.5,0.4
			c1.9,1.4,2.9,2.7,2.9,3.8c0,0.8-0.2,1.4-0.7,1.8c-0.5,0.5-1.2,0.7-2,0.7c-0.5,0-1-0.1-1.6-0.3c-0.6-0.2-1.2-0.4-1.8-0.8v2.6
			c0.6,0.3,1.2,0.6,1.8,0.7c0.6,0.2,1.2,0.2,1.7,0.2c1.6,0,2.8-0.5,3.8-1.4c1-0.9,1.5-2.1,1.5-3.6
			C7534.3-1090.1,7534.1-1091,7533.6-1091.8z"/>
		<polygon class="st0" points="7473.2,-1063.9 7467.8,-1077 7465.2,-1077 7465.2,-1058.2 7467.8,-1058.2 7467.8,-1071.3 
			7473.2,-1058.2 7475.8,-1058.2 7475.8,-1077 7473.2,-1077 		"/>
		<path class="st0" d="M7484.4-1077.2c-2.1,0-3.6,0.7-4.5,2.2s-1.4,4-1.4,7.4s0.5,5.9,1.4,7.4s2.4,2.2,4.5,2.2s3.5-0.7,4.4-2.2
			s1.4-4,1.4-7.4c0-3.5-0.5-5.9-1.4-7.4C7488-1076.5,7486.5-1077.2,7484.4-1077.2z M7486.8-1061.9c-0.4,1-1.2,1.6-2.3,1.6
			c-1.1,0-1.9-0.5-2.4-1.6c-0.5-1.1-0.7-3-0.7-5.6c0-2.7,0.2-4.6,0.7-5.6c0.5-1.1,1.2-1.6,2.3-1.6c1.1,0,1.9,0.5,2.3,1.6
			c0.5,1.1,0.7,3,0.7,5.7C7487.5-1064.8,7487.2-1062.9,7486.8-1061.9z"/>
		<path class="st0" d="M7496.4-1077h-3.7v18.8h3.7c2.8,0,4.8-0.7,5.9-2.1c1.1-1.4,1.7-3.8,1.7-7.3s-0.6-5.9-1.7-7.3
			C7501.2-1076.3,7499.2-1077,7496.4-1077z M7500.3-1062.1c-0.6,1-1.7,1.5-3.3,1.5h-1.4v-14h1.4c1.6,0,2.7,0.5,3.3,1.5
			c0.6,1,0.9,2.8,0.9,5.5C7501.2-1065,7500.9-1063.2,7500.3-1062.1z"/>
		<polygon class="st0" points="7506.6,-1058.2 7514.8,-1058.2 7514.8,-1060.5 7509.4,-1060.5 7509.4,-1066.9 7514.4,-1066.9 
			7514.4,-1069.1 7509.4,-1069.1 7509.4,-1074.7 7514.8,-1074.7 7514.8,-1077 7506.6,-1077 		"/>
		<path class="st0" d="M7395.3-1114.1v45.2l11.8,10.8h49.2v-45.2l-11.8-10.8H7395.3z M7420.1-1091.4h11.5v10.5h-11.5V-1091.4z
			 M7431.6-1094.1h-12.4l-7.8-7.2h20.2L7431.6-1094.1L7431.6-1094.1z M7420.1-1078.1h12.4l7.8,7.2h-20.2L7420.1-1078.1
			L7420.1-1078.1z M7398.4-1111.3h44.1v38.5l-7.8-7.2v-12.7v-11.4h-28.4v41.3l-7.8-7.2v-41.3H7398.4z M7453.3-1060.9h-44.1v-38.5
			l7.8,7.2v12.7v11.4h28.4v-41.3l7.8,7.2v41.3H7453.3z"/>
	</g>
	<g class="st15">
		<text transform="matrix(1 0 0 1 9554.3477 -1129.9541)" class="st0" style="font-family:'FiraGO-Regular'; font-size:20px;">ABOUT</text>
	</g>
	
		<text transform="matrix(1 0 0 1 9755.3418 -1129.9541)" style="display:inline;fill:#FFFFFF; font-family:'FiraGO-Regular'; font-size:20px;">SERVICES</text>
	
		<text transform="matrix(1 0 0 1 9541.3877 -1026.3252)" style="display:inline;fill:#FFFFFF; font-family:'FiraGO-Regular'; font-size:20px;">PROJECTS</text>
	
		<text transform="matrix(1 0 0 1 9755.3525 -1026.3252)" style="display:inline;fill:#FFFFFF; font-family:'FiraGO-Regular'; font-size:20px;">CONTACT</text>
</g>
<g id="Layer_11">
</g>
<g id="Layer_13">
</g>
<g id="Layer_12">
</g>
</svg>
