<svg id="Layer_1" data-name="Layer 1" xmlns="http://www.w3.org/2000/svg" viewBox="0 0 26.08 26.08"><defs><style>.cls-1{fill:#fff;}</style></defs><title>2</title><path class="cls-1" d="M13.13,0A13,13,0,1,1,0,13,13,13,0,0,1,13.13,0m-.06,1.36a11.7,11.7,0,1,0,11.7,11.49A11.68,11.68,0,0,0,13.07,1.36"/><path class="cls-1" d="M20.66,20.83H17.45c0-.24,0-.43,0-.63,0-1.51,0-3,0-4.54a7,7,0,0,0-.15-1.44A1.34,1.34,0,0,0,16,13.07a1.6,1.6,0,0,0-1.81.9,3.76,3.76,0,0,0-.27,1.29c0,1.67,0,3.35,0,5v.47a12.66,12.66,0,0,1-3.23.05V10.49h3.09v1.19a2.19,2.19,0,0,0,.33-.29,3.45,3.45,0,0,1,2.85-1.21,4.18,4.18,0,0,1,2,.46,2.9,2.9,0,0,1,1.47,2A13.28,13.28,0,0,1,20.68,15c0,1.84,0,3.68,0,5.51,0,.1,0,.2,0,.36"/><path class="cls-1" d="M5.43,10.47H8.59V20.84H5.44c-.13-.46-.15-9.89,0-10.37"/><path class="cls-1" d="M7,9.05a1.85,1.85,0,0,1-1.86-2,1.89,1.89,0,1,1,3.78.1A1.87,1.87,0,0,1,7,9.05"/></svg>