<svg id="Layer_1" data-name="Layer 1" xmlns="http://www.w3.org/2000/svg" viewBox="0 0 26.17 26.18"><defs><style>.cls-1{fill:#fff;}</style></defs><title>2</title><path class="cls-1" d="M13.16,0a13.09,13.09,0,0,1,0,26.18A13.19,13.19,0,0,1,0,12.91,13.14,13.14,0,0,1,13.16,0M24.78,13A11.69,11.69,0,1,0,13.26,24.85,11.69,11.69,0,0,0,24.78,13"/><path class="cls-1" d="M6,7.89A10.1,10.1,0,0,0,10.48,11a7.9,7.9,0,0,0,2.36.43v-.48a3.42,3.42,0,0,1,3.69-3.64A2.89,2.89,0,0,1,18.34,8a.79.79,0,0,0,.93.18l1.53-.6a4.45,4.45,0,0,1-1.08,1.72L21.21,9A4.41,4.41,0,0,1,20,10.32a.93.93,0,0,0-.39.82,9.57,9.57,0,0,1-14.2,8.38,1.44,1.44,0,0,1-.37-.3,7.13,7.13,0,0,0,4.52-1.31A17.16,17.16,0,0,1,7.81,17,2.6,2.6,0,0,1,6.7,15.41H7.84a3.7,3.7,0,0,1-2.36-3.36l1.21.32A3.74,3.74,0,0,1,6,7.89"/></svg>