<svg id="Layer_1" data-name="Layer 1" xmlns="http://www.w3.org/2000/svg" viewBox="0 0 26.09 26.09"><defs><style>.cls-1{fill:#fff;}</style></defs><title>2</title><path class="cls-1" d="M13.08,26.09a13,13,0,1,1,13-12.49,13,13,0,0,1-13,12.49M17,24a11.67,11.67,0,0,0-6.9-22.27A11.63,11.63,0,0,0,1.74,16a11.28,11.28,0,0,0,5.65,7.31,10.78,10.78,0,0,0,5.77,1.44V16.3H10.07c0-1.26-.05-2.46,0-3.66,1.07-.06,2.07,0,3.1-.05,0-.46,0-.85,0-1.23,0-.82,0-1.66.11-2.47A4.11,4.11,0,0,1,17,5.23a13.24,13.24,0,0,1,3.61.09s.06,0,.09.07a13.5,13.5,0,0,1-.07,3.2c-.53,0-1.07,0-1.62,0a5.68,5.68,0,0,0-1,.11,1,1,0,0,0-.87.9,16.69,16.69,0,0,0-.07,3c.64,0,1.22,0,1.8,0a10.59,10.59,0,0,1,1.77.05l-.47,3.65H17c0,2.6,0,5.13,0,7.68"/></svg>