<svg id="Layer_1" data-name="Layer 1" xmlns="http://www.w3.org/2000/svg" xmlns:xlink="http://www.w3.org/1999/xlink" viewBox="0 0 1303.64 635.15"><defs><style>.cls-1,.cls-6{fill:none;}.cls-2{clip-path:url(#clip-path);}.cls-3{fill:url(#linear-gradient);}.cls-4{clip-path:url(#clip-path-2);}.cls-5{fill:url(#linear-gradient-2);}.cls-6{stroke:#fff;stroke-linejoin:round;stroke-width:5px;}.cls-12,.cls-7,.cls-9{font-size:26.1px;fill:#fff;}.cls-12,.cls-7{font-family:FiraGO-ExtraBold, FiraGO;font-weight:800;}.cls-7{letter-spacing:0.01em;}.cls-8{letter-spacing:0em;}.cls-9{font-family:FiraGO-BookItalic, FiraGO;font-style:italic;}.cls-10{letter-spacing:-0.01em;}.cls-11{letter-spacing:-0.01em;}.cls-13{letter-spacing:0em;}</style><clipPath id="clip-path"><polygon class="cls-1" points="1020.07 181.37 1020.07 630.91 1219.62 92.57 1020.07 181.37"/></clipPath><linearGradient id="linear-gradient" x1="-4114.22" y1="4858.17" x2="-4113.22" y2="4858.17" gradientTransform="matrix(0, -157.14, -157.14, 0, 764536.92, -646149.05)" gradientUnits="userSpaceOnUse"><stop offset="0" stop-color="#65c3a3"/><stop offset="0.02" stop-color="#65b9a2"/><stop offset="0.11" stop-color="#63959e"/><stop offset="0.2" stop-color="#62769a"/><stop offset="0.3" stop-color="#615d97"/><stop offset="0.42" stop-color="#604995"/><stop offset="0.55" stop-color="#5f3b93"/><stop offset="0.71" stop-color="#5f3392"/><stop offset="1" stop-color="#5f3192"/></linearGradient><clipPath id="clip-path-2"><polygon class="cls-1" points="1020.07 181.37 12.81 181.7 1219.62 92.57 1020.07 181.37"/></clipPath><linearGradient id="linear-gradient-2" x1="-4152.64" y1="4842.17" x2="-4151.64" y2="4842.17" gradientTransform="translate(362152.16 310187.57) rotate(90) scale(74.66)" gradientUnits="userSpaceOnUse"><stop offset="0" stop-color="#65c3a3"/><stop offset="0.09" stop-color="#64a29f"/><stop offset="0.21" stop-color="#627f9b"/><stop offset="0.33" stop-color="#616398"/><stop offset="0.46" stop-color="#604d95"/><stop offset="0.6" stop-color="#5f3d93"/><stop offset="0.77" stop-color="#5f3492"/><stop offset="1" stop-color="#5f3192"/></linearGradient></defs><title>2</title><g class="cls-2"><rect class="cls-3" x="832.78" y="175.92" width="574.12" height="371.64" transform="translate(396.91 1290.32) rotate(-70)"/></g><g class="cls-4"><rect class="cls-5" x="11.17" y="50.59" width="1210.08" height="173.1" transform="translate(-8.07 43.32) rotate(-4)"/></g><polygon class="cls-6" points="1291.82 46.82 1291.82 203.27 1178.59 203.27 1191.96 167.17 1255.71 167.17 1255.71 10.72 1291.82 46.82"/><polygon class="cls-6" points="1171.47 82.93 1171.47 96.11 1135.37 98.77 1135.37 46.82 1171.47 82.93"/><polygon class="cls-6" points="1191.96 167.17 1178.58 203.27 1135.36 203.27 1135.36 98.77 1171.47 96.11 1171.47 167.17 1191.96 167.17"/><polygon class="cls-6" points="1256.53 11.54 1254.9 167.98 1219.17 131.5 1220.05 47.26 1135.81 46.38 1135.26 98.33 1099.14 100.61 1100.08 9.91 1256.53 11.54"/><polygon class="cls-6" points="1135.37 98.77 1135.37 203.27 1099.26 167.18 1099.26 101.43 1135.37 98.77"/><rect class="cls-6" x="1171.47" y="82.93" width="48.14" height="48.13"/><polygon class="cls-6" points="1219.62 46.82 1219.62 82.93 1171.47 82.93 1135.37 46.82 1219.62 46.82"/><polygon class="cls-6" points="1255.71 167.17 1191.96 167.17 1205.35 131.06 1219.61 131.06 1255.71 167.17"/><polygon class="cls-6" points="1205.35 131.06 1191.96 167.17 1171.47 167.17 1171.47 131.06 1205.35 131.06"/><line class="cls-6" x1="1020.07" y1="181.37" x2="1219.61" y2="92.57"/><line class="cls-6" x1="1219.62" y1="92.57" x2="1171.47" y2="96.11"/><line class="cls-6" x1="1099.26" y1="101.43" x2="12.8" y2="181.37"/><line class="cls-6" x1="1178.58" y1="203.27" x2="1020.07" y2="630.91"/><line class="cls-6" x1="1219.62" y1="92.57" x2="1205.35" y2="131.06"/><polygon class="cls-6" points="1020.07 181.37 1020.07 630.91 12.81 630.91 12.81 181.37 516.44 406.14 1020.07 181.37"/><text class="cls-7" transform="translate(114.65 524.07)">M<tspan class="cls-8" x="20.75" y="0">ail: </tspan></text><text class="cls-9" transform="translate(171.57 524.07)">mail@blocksnod<tspan class="cls-10" x="198.57" y="0">e</tspan><tspan x="211.72" y="0">.</tspan><tspan class="cls-11" x="217.78" y="0">c</tspan><tspan x="229.94" y="0">om</tspan></text><text class="cls-12" transform="translate(114.65 555.39)"><tspan class="cls-13">P</tspan><tspan x="15.71" y="0">hone: </tspan></text><text class="cls-9" transform="translate(195.71 555.39)">+995 595 959 559</text><polygon class="cls-6" points="1020.07 181.37 516.44 406.14 12.81 181.37 1020.07 181.37"/></svg>