<svg id="Layer_1" data-name="Layer 1" xmlns="http://www.w3.org/2000/svg" viewBox="0 0 2250.02 667.3"><defs><style>.cls-1{fill:none;stroke:#fff;stroke-linejoin:round;stroke-width:5px;}.cls-2{font-size:19px;font-family:FiraGO-Book, FiraGO;}.cls-2,.cls-33{fill:#fff;}.cls-3{letter-spacing:-0.03em;}.cls-4{letter-spacing:0.25em;}.cls-5{letter-spacing:0em;}.cls-6{letter-spacing:-0.01em;}.cls-7{letter-spacing:-0.01em;}.cls-8{letter-spacing:0.25em;}.cls-9{letter-spacing:0em;}.cls-10{letter-spacing:0em;}.cls-11{letter-spacing:-0.01em;}.cls-12{letter-spacing:0.03em;}.cls-13{letter-spacing:-0.01em;}.cls-14{letter-spacing:0em;}.cls-15{letter-spacing:0.02em;}.cls-16{letter-spacing:-0.01em;}.cls-17{letter-spacing:0em;}.cls-18{letter-spacing:-0.01em;}.cls-19{letter-spacing:0em;}.cls-20{letter-spacing:-0.01em;}.cls-21{letter-spacing:0em;}.cls-22{letter-spacing:0.01em;}.cls-23{letter-spacing:-0.04em;}.cls-24{letter-spacing:-0.02em;}.cls-25{letter-spacing:0.02em;}.cls-26{letter-spacing:-0.01em;}.cls-27{letter-spacing:0.02em;}.cls-28{letter-spacing:-0.01em;}.cls-29{letter-spacing:-0.01em;}.cls-30{letter-spacing:0em;}.cls-31{letter-spacing:-0.01em;}.cls-32{letter-spacing:-0.01em;}.cls-33{font-size:28px;font-family:FiraGO-ExtraBoldItalic, FiraGO;font-weight:800;font-style:italic;}.cls-34{letter-spacing:0em;}.cls-35{letter-spacing:0.03em;}.cls-36{letter-spacing:0em;}.cls-37{letter-spacing:0em;}.cls-38{letter-spacing:-0.01em;}.cls-39{letter-spacing:0.02em;}.cls-40{letter-spacing:0em;}.cls-41{letter-spacing:0.65em;}.cls-42{letter-spacing:0em;}.cls-43{letter-spacing:-0.01em;}.cls-44{letter-spacing:-0.01em;}.cls-45{letter-spacing:0em;}.cls-46{letter-spacing:-0.01em;}.cls-47{letter-spacing:0em;}.cls-48{letter-spacing:-0.03em;}.cls-49{letter-spacing:-0.01em;}.cls-50{letter-spacing:0.05em;}.cls-51{letter-spacing:-0.01em;}.cls-52{letter-spacing:0em;}.cls-53{letter-spacing:0.05em;}.cls-54{letter-spacing:-0.01em;}.cls-55{letter-spacing:0em;}.cls-56{letter-spacing:0em;}.cls-57{letter-spacing:0em;}.cls-58{letter-spacing:-0.01em;}.cls-59{letter-spacing:0.05em;}.cls-60{letter-spacing:0.05em;}.cls-61{letter-spacing:0em;}.cls-62{letter-spacing:-0.01em;}.cls-63{letter-spacing:-0.01em;}.cls-64{letter-spacing:-0.03em;}.cls-65{letter-spacing:0.02em;}.cls-66{letter-spacing:0em;}.cls-67{letter-spacing:-0.01em;}.cls-68{letter-spacing:0.01em;}.cls-69{letter-spacing:0.02em;}.cls-70{letter-spacing:0.01em;}.cls-71{letter-spacing:0.14em;}.cls-72{letter-spacing:-0.01em;}.cls-73{letter-spacing:-0.01em;}.cls-74{letter-spacing:0.03em;}.cls-75{letter-spacing:-0.01em;}.cls-76{letter-spacing:0.03em;}.cls-77{letter-spacing:0.01em;}.cls-78{letter-spacing:0em;}.cls-79{letter-spacing:0.02em;}.cls-80{letter-spacing:0em;}.cls-81{letter-spacing:0.01em;}.cls-82{letter-spacing:1.11em;}.cls-83{letter-spacing:0em;}.cls-84{letter-spacing:0.01em;}.cls-85{letter-spacing:0em;}.cls-86{letter-spacing:0.02em;}.cls-87{letter-spacing:0em;}.cls-88{letter-spacing:0.03em;}.cls-89{letter-spacing:0.02em;}.cls-90{letter-spacing:-0.01em;}.cls-91{letter-spacing:-0.01em;}.cls-92{letter-spacing:0.18em;}.cls-93{letter-spacing:0.18em;}.cls-94{letter-spacing:-0.02em;}.cls-95{letter-spacing:0em;}.cls-96{letter-spacing:0.02em;}.cls-97{letter-spacing:0em;}.cls-98{letter-spacing:-0.01em;}.cls-99{letter-spacing:-0.03em;}.cls-100{letter-spacing:0em;}.cls-101{letter-spacing:-0.01em;}.cls-102{letter-spacing:-0.01em;}.cls-103{letter-spacing:-0.01em;}.cls-104{letter-spacing:0.66em;}.cls-105{letter-spacing:0.01em;}.cls-106{letter-spacing:0.02em;}.cls-107{letter-spacing:0em;}.cls-108{letter-spacing:0em;}.cls-109{letter-spacing:-0.01em;}.cls-110{letter-spacing:0em;}.cls-111{fill:#5f3192;}.cls-112{fill:#65c3a3;}</style></defs><title>2</title><rect class="cls-1" x="1679.73" y="2.5" width="567.79" height="567.79"/><rect class="cls-1" x="840.96" y="97.01" width="567.78" height="567.79"/><rect class="cls-1" x="2.5" y="2.5" width="567.79" height="567.79"/><text class="cls-2" transform="translate(87.69 290.93)"><tspan class="cls-3">W</tspan><tspan x="14.99" y="0">e</tspan><tspan class="cls-4" x="25.29" y="0"> </tspan><tspan class="cls-5" x="35.09" y="0">p</tspan><tspan class="cls-6" x="46.17" y="0">r</tspan><tspan class="cls-7" x="53.22" y="0">o</tspan><tspan x="64.12" y="0">vide</tspan><tspan class="cls-8" x="100.03" y="0"> </tspan><tspan class="cls-9" x="109.84" y="0">highl</tspan><tspan class="cls-10" x="152.43" y="0">y</tspan><tspan x="161.61" y="0">-secu</tspan><tspan class="cls-11" x="208.33" y="0">r</tspan><tspan x="215.36" y="0">ed</tspan><tspan class="cls-8" x="236.81" y="0"> </tspan><tspan class="cls-9" x="246.62" y="0">c</tspan><tspan class="cls-12" x="255.64" y="0">r</tspan><tspan x="263.34" y="0">yp</tspan><tspan class="cls-13" x="283.65" y="0">t</tspan><tspan class="cls-9" x="290.32" y="0">ocu</tspan><tspan class="cls-14" x="321.3" y="0">r</tspan><tspan class="cls-11" x="328.58" y="0">r</tspan><tspan x="335.61" y="0">en</tspan><tspan class="cls-15" x="356.91" y="0">c</tspan><tspan x="366.26" y="0">y</tspan><tspan class="cls-8" x="375.49" y="0"> </tspan><tspan x="385.3" y="0">pl</tspan><tspan class="cls-10" x="401.94" y="0">a</tspan><tspan class="cls-5" x="412.18" y="0">t</tspan></text><text class="cls-2" transform="translate(477.58 290.93)">-</text><text class="cls-2" transform="translate(87.69 313.73)"><tspan class="cls-16">f</tspan><tspan x="6.08" y="0">o</tspan><tspan class="cls-17" x="17.12" y="0">r</tspan><tspan class="cls-9" x="24.41" y="0">ms whe</tspan><tspan class="cls-18" x="89.34" y="0">r</tspan><tspan x="96.39" y="0">e </tspan><tspan class="cls-11" x="111.78" y="0">y</tspan><tspan class="cls-5" x="120.82" y="0">ou can get in </tspan><tspan class="cls-13" x="236.58" y="0">t</tspan><tspan x="243.25" y="0">ouch with bu</tspan><tspan class="cls-11" x="353.96" y="0">y</tspan><tspan x="363.01" y="0">ers and </tspan></text><text class="cls-2" transform="translate(87.69 336.53)">sellers<tspan class="cls-19" x="56.62" y="0"> </tspan><tspan x="61.65" y="0">without</tspan><tspan class="cls-10" x="126.94" y="0"> </tspan><tspan x="131.97" y="0">a</tspan><tspan class="cls-20" x="142.27" y="0">n</tspan><tspan class="cls-5" x="153.02" y="0">y</tspan><tspan class="cls-10" x="162.26" y="0"> </tspan><tspan class="cls-21" x="167.29" y="0">r</tspan><tspan class="cls-5" x="174.59" y="0">is</tspan><tspan class="cls-22" x="188.63" y="0">k</tspan><tspan class="cls-9" x="198.47" y="0">.</tspan><tspan class="cls-23" x="202.88" y="0"> </tspan><tspan class="cls-24" x="207.23" y="0">W</tspan><tspan x="222.54" y="0">ith</tspan><tspan class="cls-10" x="245.53" y="0"> </tspan><tspan x="250.57" y="0">these</tspan><tspan class="cls-19" x="297.78" y="0"> </tspan><tspan x="302.82" y="0">c</tspan><tspan class="cls-25" x="311.84" y="0">r</tspan><tspan class="cls-9" x="319.54" y="0">yp</tspan><tspan class="cls-26" x="339.85" y="0">t</tspan><tspan class="cls-5" x="346.54" y="0">ocu</tspan><tspan class="cls-17" x="377.52" y="0">r</tspan><tspan class="cls-6" x="384.82" y="0">r</tspan><tspan x="391.87" y="0">en</tspan><tspan class="cls-27" x="413.17" y="0">c</tspan><tspan x="422.52" y="0">y </tspan></text><text class="cls-2" transform="translate(87.69 359.33)">pl<tspan class="cls-10" x="16.64" y="0">a</tspan><tspan x="26.88" y="0">t</tspan><tspan class="cls-16" x="33.67" y="0">f</tspan><tspan x="39.75" y="0">o</tspan><tspan class="cls-17" x="50.79" y="0">r</tspan><tspan class="cls-9" x="58.08" y="0">m</tspan><tspan class="cls-11" x="74.23" y="0">s</tspan><tspan x="82.88" y="0">,</tspan><tspan class="cls-7" x="87.28" y="0"> </tspan><tspan class="cls-28" x="92.24" y="0">y</tspan><tspan class="cls-9" x="101.29" y="0">ou</tspan><tspan class="cls-7" x="123.25" y="0"> </tspan><tspan x="128.21" y="0">will</tspan><tspan class="cls-7" x="158.1" y="0"> </tspan><tspan class="cls-5" x="163.06" y="0">be</tspan><tspan class="cls-7" x="184.43" y="0"> </tspan><tspan x="189.39" y="0">able</tspan><tspan class="cls-7" x="226.63" y="0"> </tspan><tspan class="cls-29" x="231.59" y="0">t</tspan><tspan x="238.26" y="0">o</tspan><tspan class="cls-7" x="249.3" y="0"> </tspan><tspan x="254.25" y="0">t</tspan><tspan class="cls-30" x="261.04" y="0">r</tspan><tspan x="268.16" y="0">ade</tspan><tspan class="cls-7" x="299.91" y="0"> </tspan><tspan class="cls-29" x="304.87" y="0">c</tspan><tspan class="cls-5" x="313.78" y="0">oins</tspan><tspan class="cls-7" x="349.86" y="0"> </tspan><tspan x="354.82" y="0">and</tspan><tspan class="cls-7" x="387.27" y="0"> </tspan><tspan class="cls-5" x="392.23" y="0">get</tspan><tspan class="cls-31" x="419.13" y="0"> </tspan><tspan x="424.09" y="0">a </tspan></text><text class="cls-2" transform="translate(87.69 382.13)"><tspan class="cls-29">c</tspan><tspan x="8.91" y="0">ommission </tspan><tspan class="cls-32" x="107.46" y="0">f</tspan><tspan x="113.54" y="0">or each t</tspan><tspan class="cls-30" x="189.39" y="0">r</tspan><tspan x="196.51" y="0">ade</tspan></text><text class="cls-33" transform="translate(87.69 190.8)"><tspan class="cls-34">C</tspan><tspan class="cls-35" x="15.85" y="0">r</tspan><tspan x="27.61" y="0">yp</tspan><tspan class="cls-36" x="58.29" y="0">t</tspan><tspan x="68.88" y="0">ocu</tspan><tspan class="cls-37" x="113.62" y="0">r</tspan><tspan class="cls-38" x="124.77" y="0">r</tspan><tspan x="135.57" y="0">en</tspan><tspan class="cls-39" x="166.32" y="0">c</tspan><tspan class="cls-40" x="179.98" y="0">y</tspan><tspan class="cls-41" x="194.37" y="0"> </tspan><tspan class="cls-42" x="218.73" y="0">E</tspan><tspan class="cls-43" x="233.12" y="0">x</tspan><tspan x="247.04" y="0">change</tspan><tspan class="cls-41" x="338.71" y="0"> </tspan><tspan class="cls-44" x="363.07" y="0">P</tspan><tspan class="cls-42" x="379.59" y="0">l</tspan><tspan class="cls-45" x="387.57" y="0">a</tspan><tspan x="403.53" y="0">t</tspan></text><text class="cls-33" transform="translate(474.78 190.8)">-</text><text class="cls-33" transform="translate(87.69 224.4)"><tspan class="cls-46">f</tspan><tspan x="9.52" y="0">o</tspan><tspan class="cls-47" x="25.56" y="0">r</tspan><tspan x="36.71" y="0">m</tspan></text><text class="cls-2" transform="translate(926.99 385.44)"><tspan class="cls-48">W</tspan><tspan class="cls-49" x="15.01" y="0">a</tspan><tspan class="cls-6" x="25.16" y="0">v</tspan><tspan x="34.24" y="0">e</tspan><tspan class="cls-50" x="44.54" y="0"> </tspan><tspan x="50.63" y="0">good</tspan><tspan class="cls-29" x="93.69" y="0">b</tspan><tspan class="cls-6" x="104.65" y="0">y</tspan><tspan x="113.71" y="0">e</tspan><tspan class="cls-50" x="124.01" y="0"> </tspan><tspan class="cls-51" x="130.11" y="0">t</tspan><tspan class="cls-52" x="136.8" y="0">o</tspan><tspan class="cls-50" x="147.84" y="0"> </tspan><tspan x="153.94" y="0">the</tspan><tspan class="cls-53" x="182.02" y="0"> </tspan><tspan x="188.12" y="0">l</tspan><tspan class="cls-54" x="193.68" y="0">o</tspan><tspan class="cls-55" x="204.59" y="0">w-</tspan><tspan class="cls-56" x="225.62" y="0">v</tspan><tspan x="234.82" y="0">alu</tspan><tspan class="cls-16" x="261.61" y="0">e</tspan><tspan class="cls-57" x="271.68" y="0">,</tspan><tspan class="cls-53" x="276.09" y="0"> </tspan><tspan class="cls-58" x="282.18" y="0">r</tspan><tspan x="289.21" y="0">epetiti</tspan><tspan class="cls-28" x="344.86" y="0">v</tspan><tspan x="353.93" y="0">e</tspan><tspan class="cls-50" x="364.22" y="0"> </tspan><tspan class="cls-52" x="370.32" y="0">ope</tspan><tspan class="cls-51" x="402.74" y="0">r</tspan><tspan x="409.86" y="0">a</tspan></text><text class="cls-2" transform="translate(1316.91 385.44)">-</text><text class="cls-2" transform="translate(926.99 408.24)">tional<tspan class="cls-59" x="49.89" y="0"> </tspan><tspan x="55.92" y="0">p</tspan><tspan class="cls-58" x="66.99" y="0">r</tspan><tspan x="74.02" y="0">o</tspan><tspan class="cls-29" x="85.06" y="0">c</tspan><tspan x="93.97" y="0">esse</tspan><tspan class="cls-58" x="132.24" y="0">s</tspan><tspan x="140.88" y="0">.</tspan><tspan class="cls-60" x="145.29" y="0"> </tspan><tspan class="cls-61" x="151.31" y="0">G</tspan><tspan x="163.34" y="0">et</tspan><tspan class="cls-60" x="180.42" y="0"> </tspan><tspan x="186.44" y="0">our</tspan><tspan class="cls-60" x="215.63" y="0"> </tspan><tspan class="cls-62" x="221.65" y="0">t</tspan><tspan x="228.32" y="0">eam</tspan><tspan class="cls-59" x="265.06" y="0"> </tspan><tspan x="271.09" y="0">on</tspan><tspan class="cls-60" x="293.13" y="0"> </tspan><tspan class="cls-57" x="299.15" y="0">boa</tspan><tspan class="cls-6" x="331.56" y="0">r</tspan><tspan x="338.61" y="0">d</tspan><tspan class="cls-60" x="349.77" y="0"> </tspan><tspan class="cls-30" x="355.79" y="0">t</tspan><tspan x="362.48" y="0">o</tspan><tspan class="cls-60" x="373.52" y="0"> </tspan><tspan x="379.54" y="0">de</tspan><tspan class="cls-63" x="400.99" y="0">v</tspan><tspan x="410.07" y="0">el</tspan></text><text class="cls-2" transform="translate(1316.91 408.24)">-</text><text class="cls-2" transform="translate(926.99 431.04)">op<tspan class="cls-64" x="22.12" y="0"> </tspan><tspan x="26.68" y="0">self</tspan><tspan class="cls-65" x="57.68" y="0">-</tspan><tspan class="cls-66" x="65.66" y="0">e</tspan><tspan class="cls-67" x="75.92" y="0">x</tspan><tspan x="84.76" y="0">ecuting</tspan><tspan class="cls-64" x="147.82" y="0"> </tspan><tspan class="cls-68" x="152.38" y="0">E</tspan><tspan x="162.62" y="0">VM</tspan><tspan class="cls-64" x="187.89" y="0"> </tspan><tspan x="192.45" y="0">sma</tspan><tspan class="cls-69" x="227.73" y="0">r</tspan><tspan x="235.41" y="0">t</tspan><tspan class="cls-64" x="242.19" y="0"> </tspan><tspan class="cls-29" x="246.75" y="0">c</tspan><tspan x="255.66" y="0">o</tspan><tspan class="cls-10" x="266.7" y="0">n</tspan><tspan class="cls-52" x="277.64" y="0">t</tspan><tspan class="cls-55" x="284.43" y="0">r</tspan><tspan x="291.57" y="0">a</tspan><tspan class="cls-70" x="301.87" y="0">c</tspan><tspan x="311.12" y="0">ts</tspan><tspan class="cls-64" x="326.74" y="0"> </tspan><tspan x="331.3" y="0">th</tspan><tspan class="cls-10" x="349.08" y="0">a</tspan><tspan class="cls-52" x="359.32" y="0">t</tspan><tspan class="cls-64" x="366.11" y="0"> </tspan><tspan x="370.66" y="0">cannot </tspan></text><text class="cls-2" transform="translate(926.99 453.84)">be<tspan class="cls-71" x="21.37" y="0"> </tspan><tspan x="29.2" y="0">b</tspan><tspan class="cls-72" x="40.28" y="0">r</tspan><tspan x="47.33" y="0">eache</tspan><tspan class="cls-6" x="98.25" y="0">d</tspan><tspan class="cls-52" x="109.23" y="0">,</tspan><tspan class="cls-71" x="113.64" y="0"> </tspan><tspan class="cls-73" x="121.46" y="0">c</tspan><tspan class="cls-57" x="130.38" y="0">omp</tspan><tspan class="cls-6" x="168.64" y="0">r</tspan><tspan x="175.69" y="0">omised</tspan><tspan class="cls-71" x="238.37" y="0"> </tspan><tspan class="cls-52" x="246.2" y="0">or</tspan><tspan class="cls-71" x="264.46" y="0"> </tspan><tspan x="272.28" y="0">dis</tspan><tspan class="cls-6" x="297.48" y="0">r</tspan><tspan x="304.53" y="0">ega</tspan><tspan class="cls-6" x="334.95" y="0">r</tspan><tspan x="341.99" y="0">de</tspan><tspan class="cls-58" x="363.45" y="0">d</tspan><tspan x="374.41" y="0">.</tspan><tspan class="cls-71" x="378.82" y="0"> </tspan><tspan class="cls-28" x="386.64" y="0">C</tspan><tspan x="397.06" y="0">on</tspan></text><text class="cls-2" transform="translate(1316.84 453.84)">-</text><text class="cls-2" transform="translate(926.99 476.64)">du<tspan class="cls-70" x="22.08" y="0">c</tspan><tspan x="31.33" y="0">t</tspan><tspan class="cls-74" x="38.11" y="0"> </tspan><tspan x="43.78" y="0">secu</tspan><tspan class="cls-28" x="82.86" y="0">r</tspan><tspan class="cls-75" x="89.89" y="0">e</tspan><tspan x="99.98" y="0">,</tspan><tspan class="cls-76" x="104.38" y="0"> </tspan><tspan class="cls-57" x="110.05" y="0">fast</tspan><tspan class="cls-74" x="142.27" y="0"> </tspan><tspan x="147.93" y="0">and</tspan><tspan class="cls-74" x="180.38" y="0"> </tspan><tspan class="cls-58" x="186.04" y="0">r</tspan><tspan x="193.07" y="0">eliable</tspan><tspan class="cls-76" x="251.38" y="0"> </tspan><tspan x="257.05" y="0">t</tspan><tspan class="cls-51" x="263.83" y="0">r</tspan><tspan x="270.95" y="0">ansa</tspan><tspan class="cls-77" x="311.39" y="0">c</tspan><tspan x="320.66" y="0">tions</tspan><tspan class="cls-76" x="363.52" y="0"> </tspan><tspan class="cls-57" x="369.18" y="0">without </tspan></text><text class="cls-2" transform="translate(926.99 499.44)">i<tspan class="cls-10" x="5.21" y="0">n</tspan><tspan class="cls-73" x="16.15" y="0">t</tspan><tspan x="22.82" y="0">e</tspan><tspan class="cls-78" x="33.12" y="0">r</tspan><tspan x="40.41" y="0">media</tspan><tspan class="cls-78" x="93.52" y="0">r</tspan><tspan x="100.81" y="0">ies</tspan></text><text class="cls-33" transform="translate(926.99 285.31)">Sma<tspan class="cls-79" x="55.02" y="0">r</tspan><tspan x="66.72" y="0">t </tspan><tspan class="cls-51" x="83.52" y="0">c</tspan><tspan x="96.54" y="0">o</tspan><tspan class="cls-80" x="112.59" y="0">n</tspan><tspan x="128.21" y="0">t</tspan><tspan class="cls-44" x="138.93" y="0">r</tspan><tspan x="149.85" y="0">a</tspan><tspan class="cls-81" x="165.9" y="0">c</tspan><tspan x="179.39" y="0">ts</tspan></text><text class="cls-2" transform="translate(1765.77 290.93)"><tspan class="cls-28">A</tspan><tspan x="10.66" y="0">t</tspan><tspan class="cls-82" x="17.44" y="0"> </tspan><tspan x="43.68" y="0">BlocksNode</tspan><tspan class="cls-82" x="144.66" y="0"> </tspan><tspan class="cls-63" x="170.9" y="0">w</tspan><tspan x="184.28" y="0">e</tspan><tspan class="cls-82" x="194.58" y="0"> </tspan><tspan x="220.82" y="0">can</tspan><tspan class="cls-82" x="251.14" y="0"> </tspan><tspan x="277.38" y="0">c</tspan><tspan class="cls-63" x="286.4" y="0">r</tspan><tspan x="293.45" y="0">e</tspan><tspan class="cls-83" x="303.75" y="0">a</tspan><tspan class="cls-29" x="313.97" y="0">t</tspan><tspan x="320.64" y="0">e</tspan><tspan class="cls-82" x="330.94" y="0"> </tspan><tspan class="cls-63" x="357.18" y="0">r</tspan><tspan x="364.23" y="0">eliable </tspan></text><text class="cls-2" transform="translate(1765.77 313.73)"><tspan class="cls-63">w</tspan><tspan x="13.38" y="0">e</tspan><tspan class="cls-84" x="23.67" y="0">b</tspan><tspan x="35.04" y="0">-based/online</tspan><tspan class="cls-84" x="158.32" y="0"> </tspan><tspan x="163.7" y="0">applic</tspan><tspan class="cls-85" x="215.95" y="0">a</tspan><tspan x="226.19" y="0">tion</tspan><tspan class="cls-84" x="260.22" y="0"> </tspan><tspan x="265.6" y="0">which</tspan><tspan class="cls-84" x="315.38" y="0"> </tspan><tspan x="320.75" y="0">can</tspan><tspan class="cls-84" x="351.08" y="0"> </tspan><tspan x="356.45" y="0">easily</tspan><tspan class="cls-86" x="405.89" y="0"> </tspan><tspan class="cls-87" x="411.27" y="0">be </tspan></text><text class="cls-2" transform="translate(1765.77 336.53)">i<tspan class="cls-85" x="5.21" y="0">n</tspan><tspan class="cls-29" x="16.15" y="0">t</tspan><tspan x="22.82" y="0">e</tspan><tspan class="cls-30" x="33.12" y="0">gr</tspan><tspan class="cls-83" x="49.97" y="0">a</tspan><tspan class="cls-29" x="60.19" y="0">t</tspan><tspan x="66.86" y="0">ed</tspan><tspan class="cls-77" x="88.31" y="0"> </tspan><tspan x="93.65" y="0">with</tspan><tspan class="cls-77" x="130.19" y="0"> </tspan><tspan x="135.52" y="0">CRM,</tspan><tspan class="cls-77" x="176.7" y="0"> </tspan><tspan class="cls-88" x="182.04" y="0">e</tspan><tspan class="cls-89" x="192.87" y="0">-</tspan><tspan class="cls-29" x="200.85" y="0">c</tspan><tspan x="209.76" y="0">omme</tspan><tspan class="cls-28" x="263.39" y="0">r</tspan><tspan class="cls-90" x="270.42" y="0">c</tspan><tspan x="279.35" y="0">e</tspan><tspan class="cls-77" x="289.65" y="0"> </tspan><tspan x="294.99" y="0">s</tspan><tspan class="cls-29" x="303.82" y="0">y</tspan><tspan x="312.94" y="0">s</tspan><tspan class="cls-91" x="321.78" y="0">t</tspan><tspan x="328.45" y="0">em</tspan><tspan class="cls-28" x="354.9" y="0">s</tspan><tspan class="cls-87" x="363.54" y="0">,</tspan><tspan class="cls-77" x="367.95" y="0"> </tspan><tspan x="373.29" y="0">block</tspan></text><text class="cls-2" transform="translate(2155.61 336.53)">-</text><text class="cls-2" transform="translate(1765.77 359.33)">chain<tspan class="cls-92" x="46.53" y="0"> </tspan><tspan x="55.04" y="0">applic</tspan><tspan class="cls-83" x="107.29" y="0">a</tspan><tspan x="117.51" y="0">tion</tspan><tspan class="cls-75" x="151.54" y="0">s</tspan><tspan class="cls-87" x="160.17" y="0">,</tspan><tspan class="cls-93" x="164.58" y="0"> </tspan><tspan x="173.09" y="0">I</tspan><tspan class="cls-94" x="178.64" y="0">C</tspan><tspan x="188.86" y="0">O</tspan><tspan class="cls-75" x="202" y="0">s</tspan><tspan x="210.63" y="0">,</tspan><tspan class="cls-92" x="215.04" y="0"> </tspan><tspan class="cls-95" x="223.55" y="0">C</tspan><tspan class="cls-96" x="234.11" y="0">r</tspan><tspan x="241.79" y="0">yp</tspan><tspan class="cls-29" x="262.1" y="0">t</tspan><tspan x="268.77" y="0">ocu</tspan><tspan class="cls-97" x="299.76" y="0">r</tspan><tspan class="cls-63" x="307.04" y="0">r</tspan><tspan x="314.08" y="0">en</tspan><tspan class="cls-65" x="335.38" y="0">c</tspan><tspan x="344.75" y="0">y</tspan><tspan class="cls-92" x="353.98" y="0"> </tspan><tspan class="cls-70" x="362.5" y="0">M</tspan><tspan x="377.47" y="0">inin</tspan><tspan class="cls-98" x="409.88" y="0">g</tspan><tspan class="cls-87" x="419.44" y="0">, </tspan></text><text class="cls-2" transform="translate(1765.77 382.13)"><tspan class="cls-99">F</tspan><tspan x="8.72" y="0">o</tspan><tspan class="cls-63" x="19.76" y="0">r</tspan><tspan class="cls-100" x="26.81" y="0">e</tspan><tspan class="cls-87" x="37.07" y="0">x t</tspan><tspan class="cls-30" x="58.04" y="0">r</tspan><tspan x="65.17" y="0">adin</tspan><tspan class="cls-101" x="102.83" y="0">g</tspan><tspan x="112.38" y="0">, e</tspan><tspan class="cls-30" x="132.18" y="0">t</tspan><tspan class="cls-102" x="138.87" y="0">c</tspan><tspan x="147.7" y="0">.</tspan></text><text class="cls-33" transform="translate(1765.77 190.8)"><tspan class="cls-47">M</tspan><tspan x="21.81" y="0">ulti-</tspan><tspan class="cls-20" x="74.93" y="0">L</tspan><tspan x="88.84" y="0">e</tspan><tspan class="cls-103" x="103.88" y="0">v</tspan><tspan x="117.88" y="0">el</tspan><tspan class="cls-104" x="140.89" y="0"> </tspan><tspan class="cls-105" x="165.39" y="0">S</tspan><tspan x="181.49" y="0">e</tspan><tspan class="cls-106" x="196.53" y="0">r</tspan><tspan x="208.29" y="0">vi</tspan><tspan class="cls-107" x="230.24" y="0">c</tspan><tspan x="243.26" y="0">es</tspan><tspan class="cls-104" x="271.54" y="0"> </tspan><tspan class="cls-108" x="296.04" y="0">i</tspan><tspan class="cls-80" x="303.74" y="0">n</tspan><tspan class="cls-109" x="319.36" y="0">t</tspan><tspan x="329.92" y="0">e</tspan><tspan class="cls-51" x="344.95" y="0">gr</tspan><tspan class="cls-110" x="371.78" y="0">a</tspan><tspan class="cls-51" x="387.71" y="0">t</tspan><tspan x="398.29" y="0">ed </tspan></text><text class="cls-33" transform="translate(1765.77 224.4)">with Blockchain API</text><line class="cls-1" x1="2247.52" y1="570.29" x2="1408.74" y2="664.8"/><polygon class="cls-111" points="1679.73 2.5 1679.73 570.29 1408.74 664.8 1408.74 97.01 1679.73 2.5"/><polygon class="cls-1" points="1679.73 2.5 1679.73 570.29 1408.74 664.8 1408.74 97.01 1679.73 2.5"/><polygon class="cls-112" points="840.95 664.8 2.5 570.29 570.29 570.29 840.95 664.8"/><polygon class="cls-1" points="840.95 664.8 2.5 570.29 570.29 570.29 840.95 664.8"/><line class="cls-1" x1="840.95" y1="97.01" x2="570.28" y2="2.5"/></svg>