<svg
  id="Layer_1"
  data-name="Layer 1"
  xmlns="http://www.w3.org/2000/svg"
  viewBox="0 0 2171.25 941.05"
><defs><style
    >.cls-1,.cls-47{fill:none;stroke:#fff;}.cls-1{stroke-linejoin:round;stroke-width:5px;}.cls-2{font-size:56.39px;font-family:DelaGothicOne-Regular, Dela Gothic One;}.cls-2,.cls-31,.cls-6{fill:#fff;}.cls-3{letter-spacing:0.01em;}.cls-4{letter-spacing:0.03em;}.cls-5{letter-spacing:0.03em;}.cls-6{font-size:19.81px;font-family:FiraGO-Book, FiraGO;}.cls-7{letter-spacing:-0.01em;}.cls-8{letter-spacing:0em;}.cls-9{letter-spacing:-0.01em;}.cls-10{letter-spacing:-0.01em;}.cls-11{letter-spacing:0em;}.cls-12{letter-spacing:-0.01em;}.cls-13{letter-spacing:-0.03em;}.cls-14{letter-spacing:0.09em;}.cls-15{letter-spacing:0em;}.cls-16{letter-spacing:0.09em;}.cls-17{letter-spacing:0em;}.cls-18{letter-spacing:-0.01em;}.cls-19{letter-spacing:0.09em;}.cls-20{letter-spacing:0em;}.cls-21{letter-spacing:0em;}.cls-22{letter-spacing:0em;}.cls-23{letter-spacing:-0.01em;}.cls-24{letter-spacing:-0.01em;}.cls-25{letter-spacing:-0.01em;}.cls-26{letter-spacing:0em;}.cls-27{letter-spacing:0em;}.cls-28{letter-spacing:-0.01em;}.cls-29{letter-spacing:-0.01em;}.cls-30{letter-spacing:-0.04em;}.cls-32{letter-spacing:-0.03em;}.cls-33{letter-spacing:-0.01em;}.cls-34{letter-spacing:-0.01em;}.cls-35{letter-spacing:-0.03em;}.cls-36{letter-spacing:-0.01em;}.cls-37{letter-spacing:-0.01em;}.cls-38{fill:#5f3192;}.cls-39{letter-spacing:1.67em;}.cls-40{letter-spacing:1.67em;}.cls-41{letter-spacing:-0.01em;}.cls-42{letter-spacing:-0.01em;}.cls-43{letter-spacing:0em;}.cls-44{letter-spacing:0em;}.cls-45{letter-spacing:-0.01em;}.cls-46{letter-spacing:0em;}.cls-47{stroke-miterlimit:10;stroke-width:4px;}</style></defs><title
  >2</title><polygon
    class="cls-1"
    points="649.92 420.91 2.5 938.54 2.5 519.32 649.92 2.5 649.92 420.91"
  /><text class="cls-2" transform="translate(710.24 632.89)"><tspan
      class="cls-3"
    >T</tspan><tspan class="cls-4" x="53.34" y="0">e</tspan><tspan
      class="cls-5"
      x="95.75"
      y="0"
    >a</tspan><tspan x="139" y="0">m</tspan></text><text
    class="cls-6"
    transform="translate(711.77 698.38)"
  >Blocks Node is about the <tspan
      class="cls-7"
      x="228.03"
      y="0"
    >t</tspan><tspan class="cls-8" x="234.99" y="0">eam of p</tspan><tspan
      class="cls-9"
      x="313.56"
      y="0"
    >r</tspan><tspan x="320.89" y="0">o</tspan><tspan
      class="cls-10"
      x="332.4"
      y="0"
    >f</tspan><tspan x="338.74" y="0">essional Blockchain </tspan><tspan
      class="cls-11"
      x="520.71"
      y="0"
    >D</tspan><tspan x="533.49" y="0">e</tspan><tspan
      class="cls-12"
      x="544.23"
      y="0"
    >v</tspan><tspan x="553.7" y="0">elopers</tspan></text><text
    class="cls-6"
    transform="translate(711.77 745.93)"
  ><tspan class="cls-13">W</tspan><tspan
      class="cls-8"
      x="15.65"
      y="0"
    >e</tspan><tspan class="cls-14" x="26.39" y="0"> </tspan><tspan
      x="33.56"
      y="0"
    >belie</tspan><tspan class="cls-12" x="77.82" y="0">v</tspan><tspan
      class="cls-8"
      x="87.29"
      y="0"
    >e</tspan><tspan class="cls-14" x="98.03" y="0"> </tspan><tspan
      x="105.2"
      y="0"
    >th</tspan><tspan class="cls-15" x="123.74" y="0">a</tspan><tspan
      x="134.4"
      y="0"
    >t</tspan><tspan class="cls-14" x="141.48" y="0"> </tspan><tspan
      class="cls-12"
      x="148.65"
      y="0"
    >w</tspan><tspan x="162.59" y="0">e</tspan><tspan
      class="cls-16"
      x="173.33"
      y="0"
    > </tspan><tspan class="cls-17" x="180.5" y="0">h</tspan><tspan
      class="cls-18"
      x="191.98"
      y="0"
    >a</tspan><tspan class="cls-12" x="202.55" y="0">v</tspan><tspan
      class="cls-8"
      x="212.02"
      y="0"
    >e</tspan><tspan class="cls-19" x="222.76" y="0"> </tspan><tspan
      class="cls-8"
      x="229.93"
      y="0"
    >managed</tspan><tspan class="cls-14" x="312.33" y="0"> </tspan><tspan
      class="cls-20"
      x="319.5"
      y="0"
    >t</tspan><tspan x="326.48" y="0">o</tspan><tspan
      class="cls-14"
      x="337.99"
      y="0"
    > </tspan><tspan x="345.16" y="0">c</tspan><tspan
      class="cls-12"
      x="354.57"
      y="0"
    >r</tspan><tspan x="361.92" y="0">e</tspan><tspan
      class="cls-21"
      x="372.66"
      y="0"
    >a</tspan><tspan class="cls-7" x="383.34" y="0">t</tspan><tspan
      x="390.29"
      y="0"
    >e</tspan><tspan class="cls-14" x="401.03" y="0"> </tspan><tspan
      x="408.2"
      y="0"
    >an</tspan><tspan class="cls-14" x="430.41" y="0"> </tspan><tspan
      class="cls-22"
      x="437.58"
      y="0"
    >e</tspan><tspan class="cls-23" x="448.28" y="0">x</tspan><tspan
      class="cls-24"
      x="457.49"
      y="0"
    >c</tspan><tspan x="466.78" y="0">elle</tspan><tspan
      class="cls-15"
      x="499.87"
      y="0"
    >n</tspan><tspan class="cls-17" x="511.26" y="0">t</tspan><tspan
      class="cls-16"
      x="518.33"
      y="0"
    > </tspan><tspan class="cls-25" x="525.51" y="0">t</tspan><tspan
      class="cls-8"
      x="532.48"
      y="0"
    >eam</tspan><tspan class="cls-19" x="570.79" y="0"> </tspan><tspan
      x="577.97"
      y="0"
    >th</tspan><tspan class="cls-26" x="596.51" y="0">a</tspan><tspan
      x="607.19"
      y="0"
    >t</tspan><tspan class="cls-14" x="614.26" y="0"> </tspan><tspan
      x="621.43"
      y="0"
    >is</tspan><tspan class="cls-14" x="636.07" y="0"> </tspan><tspan
      class="cls-12"
      x="643.25"
      y="0"
    >r</tspan><tspan class="cls-8" x="650.6" y="0">eady</tspan><tspan
      class="cls-19"
      x="693.33"
      y="0"
    > </tspan><tspan class="cls-20" x="700.5" y="0">t</tspan><tspan
      x="707.47"
      y="0"
    >o</tspan><tspan class="cls-16" x="718.99" y="0"> </tspan><tspan
      class="cls-12"
      x="726.16"
      y="0"
    >w</tspan><tspan x="740.1" y="0">o</tspan><tspan
      class="cls-27"
      x="751.62"
      y="0"
    >r</tspan><tspan class="cls-8" x="759.2" y="0">k </tspan></text><text
    class="cls-6"
    transform="translate(711.77 769.71)"
  >both <tspan class="cls-28" x="46.91" y="0">f</tspan><tspan
      x="53.25"
      y="0"
    >or personal </tspan><tspan class="cls-25" x="161.46" y="0">g</tspan><tspan
      class="cls-29"
      x="171.61"
      y="0"
    >r</tspan><tspan class="cls-7" x="178.94" y="0">o</tspan><tspan
      x="190.33"
      y="0"
    >wth and </tspan><tspan class="cls-10" x="267.46" y="0">f</tspan><tspan
      class="cls-8"
      x="273.8"
      y="0"
    >or the </tspan><tspan class="cls-25" x="332.74" y="0">g</tspan><tspan
      class="cls-29"
      x="342.88"
      y="0"
    >r</tspan><tspan class="cls-7" x="350.21" y="0">o</tspan><tspan
      class="cls-8"
      x="361.6"
      y="0"
    >wth of the </tspan><tspan class="cls-7" x="457.57" y="0">c</tspan><tspan
      x="466.86"
      y="0"
    >ompa</tspan><tspan class="cls-28" x="517.5" y="0">n</tspan><tspan
      class="cls-30"
      x="528.73"
      y="0"
    >y</tspan><tspan x="537.59" y="0">. </tspan></text><path
    class="cls-31"
    d="M724.68,810.44c0,4.6-2.79,7-6.2,7s-6-2.73-6-6.77c0-4.24,2.63-7,6.2-7S724.68,806.48,724.68,810.44Zm-10.36.22c0,2.85,1.55,5.41,4.26,5.41s4.28-2.52,4.28-5.55c0-2.65-1.39-5.42-4.26-5.42S714.32,807.73,714.32,810.66Zm20.62,4c0,1,0,1.86.08,2.62h-1.54l-.1-1.57h0a3.62,3.62,0,0,1-3.17,1.78c-1.51,0-3.31-.83-3.31-4.19v-5.61h1.74V813c0,1.82.56,3,2.14,3a2.52,2.52,0,0,0,2.3-1.59,2.48,2.48,0,0,0,.16-.89v-5.88h1.74Zm2.9-4c0-1.13,0-2.1-.08-3h1.52l.06,1.88h.08a2.88,2.88,0,0,1,2.66-2.1,1.88,1.88,0,0,1,.49.06v1.65a2.61,2.61,0,0,0-.59-.06,2.45,2.45,0,0,0-2.34,2.23,5,5,0,0,0-.08.82v5.11h-1.72Zm19,1.72a4.69,4.69,0,0,1-4.78,5.09c-2.59,0-4.59-1.9-4.59-4.93,0-3.21,2.1-5.09,4.75-5.09S756.8,809.45,756.8,812.38Zm-7.61.1c0,2.1,1.21,3.69,2.91,3.69s2.91-1.57,2.91-3.73c0-1.62-.81-3.68-2.87-3.68S749.19,810.66,749.19,812.48ZM771,804.9a3.76,3.76,0,0,0-1.94-.52c-1.84,0-2.4,1.29-2.4,2.81v.48h5.59v9.59H770.5V809h-3.82v8.26h-1.74V809h-4v8.26h-1.72V809h-1.35v-1.33h1.35v-.36a4.34,4.34,0,0,1,1.14-3.18,3.31,3.31,0,0,1,2.46-.94,4,4,0,0,1,1.68.42L764,804.9a2.69,2.69,0,0,0-1.21-.34,1.63,1.63,0,0,0-1.25.52,3.35,3.35,0,0,0-.63,2.21v.38h4v-.51a3.85,3.85,0,0,1,4.2-4.18,4.61,4.61,0,0,1,2.37.61Zm11,12a6.44,6.44,0,0,1-2.76.55,4.55,4.55,0,0,1-4.77-4.89,4.87,4.87,0,0,1,5.15-5.09,5.82,5.82,0,0,1,2.42.5l-.4,1.34a4.15,4.15,0,0,0-2-.45,3.61,3.61,0,0,0-.06,7.21,4.94,4.94,0,0,0,2.14-.48Zm2.89-4.12a3.07,3.07,0,0,0,3.29,3.33,6.21,6.21,0,0,0,2.65-.5l.3,1.25a7.71,7.71,0,0,1-3.19.59c-2.95,0-4.71-1.94-4.71-4.83s1.7-5.17,4.49-5.17c3.13,0,4,2.76,4,4.52a7,7,0,0,1,0,.81Zm5.11-1.25c0-1.11-.45-2.83-2.42-2.83-1.76,0-2.53,1.62-2.67,2.83Zm7.57,5.73c0-.66.08-1.63.08-2.48V803.19h1.72v6h0a3.59,3.59,0,0,1,3.27-1.77c2.38,0,4.06,2,4,4.89,0,3.43-2.16,5.13-4.3,5.13a3.4,3.4,0,0,1-3.2-1.8h-.06l-.08,1.59Zm1.8-3.85a3.3,3.3,0,0,0,.08.64,2.69,2.69,0,0,0,2.62,2c1.82,0,2.91-1.49,2.91-3.69,0-1.92-1-3.56-2.85-3.56a2.78,2.78,0,0,0-2.66,2.14,3.37,3.37,0,0,0-.1.71Zm9.55-2.75c0-1.13,0-2.1-.08-3h1.53l.06,1.88h.08a2.86,2.86,0,0,1,2.65-2.1,1.9,1.9,0,0,1,.5.06v1.65a2.64,2.64,0,0,0-.6-.06,2.44,2.44,0,0,0-2.33,2.23,5,5,0,0,0-.08.82v5.11H808.9Zm8.5-5.68a1,1,0,0,1-1.11,1.07,1,1,0,0,1-1-1.07,1.06,1.06,0,0,1,1.09-1.09A1,1,0,0,1,817.4,805Zm-1.94,12.28v-9.59h1.74v9.59Zm4.64-7c0-1,0-1.8-.08-2.59h1.54l.1,1.58h0a3.54,3.54,0,0,1,3.17-1.8c1.33,0,3.39.79,3.39,4.08v5.73h-1.75v-5.53c0-1.54-.57-2.83-2.21-2.83a2.48,2.48,0,0,0-2.34,1.78,2.51,2.51,0,0,0-.12.81v5.77H820.1Zm19.25-2.59c0,.69-.08,1.47-.08,2.63v5.57c0,2.2-.43,3.55-1.36,4.38a5.1,5.1,0,0,1-3.49,1.15,6.14,6.14,0,0,1-3.19-.8l.44-1.32a5.44,5.44,0,0,0,2.81.75c1.78,0,3.09-.93,3.09-3.35v-1.07h0a3.43,3.43,0,0,1-3,1.61c-2.38,0-4.08-2-4.08-4.68,0-3.25,2.12-5.09,4.32-5.09a3.19,3.19,0,0,1,3,1.67h0l.08-1.45Zm-1.8,3.78a2.48,2.48,0,0,0-.1-.79,2.51,2.51,0,0,0-2.44-1.84c-1.66,0-2.85,1.41-2.85,3.62,0,1.89,1,3.45,2.83,3.45a2.55,2.55,0,0,0,2.42-1.78,3,3,0,0,0,.14-.93Zm4.38,4a4.57,4.57,0,0,0,2.3.7c1.27,0,1.86-.64,1.86-1.43s-.5-1.29-1.78-1.76c-1.73-.62-2.54-1.57-2.54-2.72,0-1.54,1.25-2.81,3.31-2.81a4.78,4.78,0,0,1,2.36.6l-.44,1.26a3.82,3.82,0,0,0-2-.55c-1,0-1.6.59-1.6,1.31s.57,1.15,1.82,1.62c1.66.63,2.51,1.47,2.51,2.89,0,1.69-1.3,2.87-3.58,2.87a5.47,5.47,0,0,1-2.7-.65Zm14-10.55v2.75h2.49V809h-2.49v5.17c0,1.18.33,1.86,1.3,1.86a3.77,3.77,0,0,0,1-.12l.08,1.31a4.22,4.22,0,0,1-1.54.23,2.39,2.39,0,0,1-1.88-.73,3.52,3.52,0,0,1-.68-2.49V809h-1.48v-1.33h1.48v-2.3Zm13,7.46c0,3.55-2.45,5.09-4.77,5.09-2.6,0-4.6-1.9-4.6-4.93,0-3.21,2.1-5.09,4.76-5.09S868.93,809.45,868.93,812.38Zm-7.6.1c0,2.1,1.2,3.69,2.91,3.69s2.91-1.57,2.91-3.73c0-1.62-.81-3.68-2.87-3.68S861.33,810.66,861.33,812.48Zm18.06-4.81c0,.69-.08,1.47-.08,2.63v5.57c0,2.2-.43,3.55-1.36,4.38a5.1,5.1,0,0,1-3.49,1.15,6.14,6.14,0,0,1-3.19-.8l.44-1.32a5.44,5.44,0,0,0,2.81.75c1.78,0,3.09-.93,3.09-3.35v-1.07h0a3.43,3.43,0,0,1-3.05,1.61c-2.38,0-4.08-2-4.08-4.68,0-3.25,2.12-5.09,4.32-5.09a3.19,3.19,0,0,1,3,1.67h0l.08-1.45Zm-1.8,3.78a2.48,2.48,0,0,0-.1-.79,2.51,2.51,0,0,0-2.44-1.84c-1.66,0-2.85,1.41-2.85,3.62,0,1.89.95,3.45,2.83,3.45a2.55,2.55,0,0,0,2.42-1.78,3,3,0,0,0,.14-.93Zm5.59,1.33a3.07,3.07,0,0,0,3.29,3.33,6.24,6.24,0,0,0,2.65-.5l.3,1.25a7.78,7.78,0,0,1-3.19.59,4.46,4.46,0,0,1-4.72-4.83c0-2.89,1.71-5.17,4.5-5.17,3.13,0,4,2.76,4,4.52a6.61,6.61,0,0,1-.06.81Zm5.11-1.25c0-1.11-.46-2.83-2.42-2.83-1.76,0-2.53,1.62-2.67,2.83Zm5.94-6.61v2.75h2.5V809h-2.5v5.17c0,1.18.34,1.86,1.31,1.86a3.83,3.83,0,0,0,1-.12l.08,1.31a4.28,4.28,0,0,1-1.55.23,2.4,2.4,0,0,1-1.88-.73,3.57,3.57,0,0,1-.67-2.49V809H891v-1.33h1.49v-2.3Zm4.46-1.73h1.74v6h0a3.21,3.21,0,0,1,1.25-1.23,3.58,3.58,0,0,1,1.78-.5c1.29,0,3.35.79,3.35,4.1v5.71h-1.74v-5.51c0-1.54-.58-2.85-2.22-2.85a2.51,2.51,0,0,0-2.34,1.74,2.11,2.11,0,0,0-.12.83v5.79h-1.74Zm12,9.59a3.07,3.07,0,0,0,3.29,3.33,6.24,6.24,0,0,0,2.65-.5l.3,1.25a7.78,7.78,0,0,1-3.19.59,4.46,4.46,0,0,1-4.72-4.83c0-2.89,1.71-5.17,4.5-5.17,3.13,0,4,2.76,4,4.52a6.61,6.61,0,0,1-.06.81Zm5.11-1.25c0-1.11-.46-2.83-2.42-2.83-1.76,0-2.53,1.62-2.67,2.83Zm3.84-.87c0-1.13,0-2.1-.08-3h1.53l.06,1.88h.08a2.86,2.86,0,0,1,2.65-2.1,1.9,1.9,0,0,1,.5.06v1.65a2.64,2.64,0,0,0-.6-.06,2.43,2.43,0,0,0-2.33,2.23,5,5,0,0,0-.08.82v5.11h-1.73Zm11.26,2.12a3.07,3.07,0,0,0,3.28,3.33,6.3,6.3,0,0,0,2.66-.5l.29,1.25a7.69,7.69,0,0,1-3.18.59c-3,0-4.72-1.94-4.72-4.83s1.71-5.17,4.5-5.17c3.13,0,4,2.76,4,4.52a6.61,6.61,0,0,1-.06.81Zm5.11-1.25c0-1.11-.46-2.83-2.42-2.83a2.88,2.88,0,0,0-2.67,2.83Zm4.59-3.86,1.37,2.06c.36.53.65,1,1,1.56H943c.32-.57.63-1.06.95-1.58l1.35-2h1.88l-3.27,4.63,3.37,5h-2l-1.41-2.16c-.37-.56-.69-1.09-1-1.67h0c-.31.58-.65,1.09-1,1.67l-1.38,2.16h-1.93l3.41-4.9-3.25-4.69Zm8.36,3.13c0-1.23,0-2.22-.07-3.13h1.56l.08,1.64h0a3.78,3.78,0,0,1,3.41-1.86c2.31,0,4.06,2,4.06,4.87,0,3.45-2.1,5.15-4.36,5.15a3.35,3.35,0,0,1-2.95-1.5h0v5.21h-1.73Zm1.73,2.55a4,4,0,0,0,.08.72,2.67,2.67,0,0,0,2.61,2c1.84,0,2.91-1.51,2.91-3.71,0-1.92-1-3.56-2.85-3.56a3,3,0,0,0-2.75,2.87Zm10.52-.57a3.07,3.07,0,0,0,3.29,3.33,6.24,6.24,0,0,0,2.65-.5l.3,1.25a7.78,7.78,0,0,1-3.19.59,4.46,4.46,0,0,1-4.72-4.83c0-2.89,1.71-5.17,4.5-5.17,3.13,0,4,2.76,4,4.52a6.61,6.61,0,0,1-.06.81Zm5.11-1.25c0-1.11-.46-2.83-2.42-2.83-1.76,0-2.53,1.62-2.67,2.83Zm3.84-.87c0-1.13,0-2.1-.08-3h1.53l.06,1.88h.08a2.86,2.86,0,0,1,2.65-2.1,1.9,1.9,0,0,1,.5.06v1.65a2.64,2.64,0,0,0-.6-.06,2.44,2.44,0,0,0-2.33,2.23,5,5,0,0,0-.08.82v5.11h-1.73Zm8.5-5.68a1.08,1.08,0,0,1-2.15,0,1.05,1.05,0,0,1,1.08-1.09A1,1,0,0,1,978.63,805Zm-1.94,12.28v-9.59h1.75v9.59Zm5.61-4.48a3.07,3.07,0,0,0,3.29,3.33,6.21,6.21,0,0,0,2.65-.5l.3,1.25a7.78,7.78,0,0,1-3.19.59c-3,0-4.71-1.94-4.71-4.83s1.7-5.17,4.49-5.17c3.13,0,4,2.76,4,4.52a6.61,6.61,0,0,1-.06.81Zm5.11-1.25c0-1.11-.46-2.83-2.42-2.83-1.76,0-2.53,1.62-2.67,2.83Zm3.85-1.27c0-1,0-1.8-.08-2.59h1.54l.1,1.58h0a3.51,3.51,0,0,1,3.17-1.8c1.33,0,3.39.79,3.39,4.08v5.73h-1.75v-5.53c0-1.54-.57-2.83-2.22-2.83a2.47,2.47,0,0,0-2.33,1.78,2.51,2.51,0,0,0-.12.81v5.77h-1.74Zm17.82,6.64a6.35,6.35,0,0,1-2.75.55,4.55,4.55,0,0,1-4.77-4.89,4.87,4.87,0,0,1,5.15-5.09,5.72,5.72,0,0,1,2.41.5l-.39,1.34a4.15,4.15,0,0,0-2-.45,3.61,3.61,0,0,0-.06,7.21,4.94,4.94,0,0,0,2.14-.48Zm2.9-4.12a3.07,3.07,0,0,0,3.29,3.33,6.24,6.24,0,0,0,2.65-.5l.3,1.25a7.78,7.78,0,0,1-3.19.59,4.46,4.46,0,0,1-4.72-4.83c0-2.89,1.71-5.17,4.5-5.17,3.13,0,4,2.76,4,4.52a6.61,6.61,0,0,1-.06.81Zm5.11-1.25c0-1.11-.46-2.83-2.42-2.83-1.76,0-2.53,1.62-2.67,2.83Zm12.12-8.34v11.59c0,.85,0,1.82.08,2.48h-1.56l-.08-1.67h0a3.56,3.56,0,0,1-3.27,1.88c-2.32,0-4.1-2-4.1-4.87,0-3.19,2-5.15,4.3-5.15a3.22,3.22,0,0,1,2.89,1.47h0v-5.73Zm-1.74,8.38a3,3,0,0,0-.08-.73,2.56,2.56,0,0,0-2.51-2c-1.81,0-2.88,1.58-2.88,3.7,0,1.94,1,3.55,2.84,3.55a2.62,2.62,0,0,0,2.55-2.08,3,3,0,0,0,.08-.75Zm8.36,5.69c0-.66.08-1.63.08-2.48V803.19h1.72v6h0a3.59,3.59,0,0,1,3.27-1.77c2.38,0,4.06,2,4,4.89,0,3.43-2.16,5.13-4.3,5.13a3.4,3.4,0,0,1-3.2-1.8h-.06l-.08,1.59Zm1.8-3.85a3.3,3.3,0,0,0,.08.64,2.69,2.69,0,0,0,2.62,2c1.82,0,2.91-1.49,2.91-3.69,0-1.92-1-3.56-2.85-3.56a2.78,2.78,0,0,0-2.66,2.14,3.37,3.37,0,0,0-.1.71Zm9.55-10.22h1.75v14.07h-1.75Zm13.35,9.19c0,3.55-2.45,5.09-4.77,5.09-2.59,0-4.59-1.9-4.59-4.93,0-3.21,2.1-5.09,4.75-5.09S1060.53,809.45,1060.53,812.38Zm-7.6.1c0,2.1,1.21,3.69,2.91,3.69s2.91-1.57,2.91-3.73c0-1.62-.81-3.68-2.87-3.68S1052.93,810.66,1052.93,812.48Zm16.64,4.42a6.43,6.43,0,0,1-2.75.55,4.55,4.55,0,0,1-4.78-4.89,4.87,4.87,0,0,1,5.15-5.09,5.82,5.82,0,0,1,2.42.5l-.4,1.34a4.12,4.12,0,0,0-2-.45,3.61,3.61,0,0,0-.06,7.21,4.9,4.9,0,0,0,2.14-.48Zm3.77-4.83h0c.23-.34.57-.76.85-1.09l2.81-3.31h2.1l-3.71,3.94,4.22,5.65h-2.12l-3.3-4.6-.89,1v3.61h-1.73V803.19h1.73Zm14.4,4.83a6.44,6.44,0,0,1-2.76.55,4.55,4.55,0,0,1-4.77-4.89,4.87,4.87,0,0,1,5.15-5.09,5.82,5.82,0,0,1,2.42.5l-.4,1.34a4.15,4.15,0,0,0-2-.45,3.61,3.61,0,0,0-.06,7.21,4.94,4.94,0,0,0,2.14-.48Zm2-13.71h1.74v6h0a3.21,3.21,0,0,1,1.25-1.23,3.58,3.58,0,0,1,1.78-.5c1.29,0,3.35.79,3.35,4.1v5.71h-1.74v-5.51c0-1.54-.58-2.85-2.22-2.85a2.51,2.51,0,0,0-2.34,1.74,2.11,2.11,0,0,0-.12.83v5.79h-1.74Zm16.3,14.07-.14-1.21h0a3.59,3.59,0,0,1-2.94,1.42,2.73,2.73,0,0,1-2.93-2.75c0-2.32,2.06-3.58,5.77-3.56V811a2,2,0,0,0-2.18-2.22,4.87,4.87,0,0,0-2.5.71l-.39-1.15a6,6,0,0,1,3.14-.85c2.94,0,3.65,2,3.65,3.92V815a13.46,13.46,0,0,0,.16,2.3Zm-.25-4.9c-1.91,0-4.06.3-4.06,2.16a1.54,1.54,0,0,0,1.64,1.67,2.4,2.4,0,0,0,2.32-1.61,1.78,1.78,0,0,0,.1-.55Zm6.44-7.38a1.08,1.08,0,0,1-2.16,0,1.06,1.06,0,0,1,1.09-1.09A1,1,0,0,1,1112.27,805Zm-2,12.28v-9.59h1.75v9.59Zm4.64-7c0-1,0-1.8-.08-2.59h1.55l.1,1.58h0a3.54,3.54,0,0,1,3.17-1.8c1.33,0,3.39.79,3.39,4.08v5.73h-1.74v-5.53c0-1.54-.58-2.83-2.22-2.83a2.48,2.48,0,0,0-2.34,1.78,2.51,2.51,0,0,0-.12.81v5.77H1115Zm23.08-7.07v11.59c0,.85,0,1.82.08,2.48h-1.57l-.08-1.67h0a3.53,3.53,0,0,1-3.26,1.88c-2.32,0-4.1-2-4.1-4.87,0-3.19,2-5.15,4.29-5.15a3.23,3.23,0,0,1,2.9,1.47h0v-5.73Zm-1.74,8.38a3,3,0,0,0-.08-.73,2.57,2.57,0,0,0-2.52-2c-1.8,0-2.87,1.58-2.87,3.7,0,1.94,1,3.55,2.83,3.55a2.62,2.62,0,0,0,2.56-2.08,3,3,0,0,0,.08-.75Zm5.6,1.21a3.07,3.07,0,0,0,3.29,3.33,6.3,6.3,0,0,0,2.66-.5l.29,1.25a7.71,7.71,0,0,1-3.19.59c-3,0-4.71-1.94-4.71-4.83s1.7-5.17,4.5-5.17c3.13,0,4,2.76,4,4.52a6.61,6.61,0,0,1-.06.81Zm5.11-1.25c0-1.11-.45-2.83-2.41-2.83a2.89,2.89,0,0,0-2.68,2.83Zm4.52-3.86,1.88,5.39a24.45,24.45,0,0,1,.78,2.45h.06c.21-.79.49-1.58.81-2.45l1.86-5.39h1.82l-3.76,9.59h-1.66l-3.65-9.59Zm9.63,5.11a3.07,3.07,0,0,0,3.29,3.33,6.21,6.21,0,0,0,2.65-.5l.3,1.25a7.71,7.71,0,0,1-3.19.59c-3,0-4.71-1.94-4.71-4.83s1.7-5.17,4.49-5.17c3.13,0,4,2.76,4,4.52a6.61,6.61,0,0,1-.06.81Zm5.11-1.25c0-1.11-.45-2.83-2.41-2.83a2.89,2.89,0,0,0-2.68,2.83Zm3.85-8.34h1.74v14.07h-1.74Zm13.35,9.19a4.69,4.69,0,0,1-4.78,5.09c-2.59,0-4.59-1.9-4.59-4.93,0-3.21,2.1-5.09,4.75-5.09S1183.47,809.45,1183.47,812.38Zm-7.61.1c0,2.1,1.21,3.69,2.91,3.69s2.92-1.57,2.92-3.73c0-1.62-.82-3.68-2.88-3.68S1175.86,810.66,1175.86,812.48Zm9.81-1.68c0-1.23,0-2.22-.08-3.13h1.56l.08,1.64h0a3.8,3.8,0,0,1,3.41-1.86c2.32,0,4.06,2,4.06,4.87,0,3.45-2.1,5.15-4.36,5.15a3.37,3.37,0,0,1-3-1.5h0v5.21h-1.72Zm1.72,2.55a4,4,0,0,0,.08.72,2.69,2.69,0,0,0,2.62,2c1.84,0,2.91-1.51,2.91-3.71,0-1.92-1-3.56-2.85-3.56a3,3,0,0,0-2.76,2.87Zm10.52-.57a3.07,3.07,0,0,0,3.29,3.33,6.21,6.21,0,0,0,2.65-.5l.3,1.25a7.71,7.71,0,0,1-3.19.59c-3,0-4.71-1.94-4.71-4.83s1.7-5.17,4.5-5.17c3.12,0,4,2.76,4,4.52a6.61,6.61,0,0,1-.06.81Zm5.11-1.25c0-1.11-.45-2.83-2.41-2.83a2.89,2.89,0,0,0-2.68,2.83Zm3.85-.87c0-1.13,0-2.1-.08-3h1.52l.06,1.88h.08a2.88,2.88,0,0,1,2.66-2.1,1.88,1.88,0,0,1,.49.06v1.65a2.55,2.55,0,0,0-.59-.06,2.45,2.45,0,0,0-2.34,2.23,5,5,0,0,0-.08.82v5.11h-1.72Zm6.24,4.81a4.54,4.54,0,0,0,2.3.7c1.26,0,1.86-.64,1.86-1.43s-.5-1.29-1.78-1.76c-1.73-.62-2.54-1.57-2.54-2.72,0-1.54,1.25-2.81,3.31-2.81a4.78,4.78,0,0,1,2.36.6l-.44,1.26a3.82,3.82,0,0,0-2-.55c-1,0-1.61.59-1.61,1.31s.58,1.15,1.83,1.62c1.66.63,2.51,1.47,2.51,2.89,0,1.69-1.31,2.87-3.58,2.87a5.47,5.47,0,0,1-2.7-.65Zm17.19,1.79-.13-1.21h-.06a3.59,3.59,0,0,1-2.93,1.42,2.73,2.73,0,0,1-2.94-2.75c0-2.32,2.06-3.58,5.77-3.56V811a2,2,0,0,0-2.18-2.22,4.87,4.87,0,0,0-2.5.71l-.39-1.15a6,6,0,0,1,3.15-.85c2.93,0,3.64,2,3.64,3.92V815a13.46,13.46,0,0,0,.16,2.3Zm-.25-4.9c-1.9,0-4.06.3-4.06,2.16a1.54,1.54,0,0,0,1.64,1.67,2.4,2.4,0,0,0,2.32-1.61,1.78,1.78,0,0,0,.1-.55Zm4.5-2.1c0-1,0-1.8-.08-2.59H1236l.1,1.58h0a3.53,3.53,0,0,1,3.17-1.8c1.33,0,3.39.79,3.39,4.08v5.73H1241v-5.53c0-1.54-.57-2.83-2.22-2.83a2.47,2.47,0,0,0-2.33,1.78,2.51,2.51,0,0,0-.12.81v5.77h-1.74Zm19.27-7.07v11.59c0,.85,0,1.82.08,2.48h-1.57l-.07-1.67h0a3.56,3.56,0,0,1-3.27,1.88c-2.32,0-4.1-2-4.1-4.87,0-3.19,2-5.15,4.3-5.15a3.22,3.22,0,0,1,2.89,1.47h0v-5.73Zm-1.74,8.38a3,3,0,0,0-.08-.73,2.57,2.57,0,0,0-2.52-2c-1.8,0-2.87,1.58-2.87,3.7,0,1.94,1,3.55,2.83,3.55A2.62,2.62,0,0,0,1252,814a3,3,0,0,0,.08-.75Zm10.22-7.66v13.35h-1.72V803.91Zm5.55,1.46h-4.06v-1.46h9.88v1.46h-4.08v11.89h-1.74Zm10.82,10.1a4.5,4.5,0,0,0,2.29.7c1.27,0,1.87-.64,1.87-1.43s-.5-1.29-1.79-1.76c-1.72-.62-2.53-1.57-2.53-2.72,0-1.54,1.25-2.81,3.31-2.81a4.71,4.71,0,0,1,2.35.6l-.43,1.26a3.82,3.82,0,0,0-2-.55c-1,0-1.61.59-1.61,1.31s.58,1.15,1.82,1.62c1.67.63,2.52,1.47,2.52,2.89,0,1.69-1.31,2.87-3.59,2.87a5.43,5.43,0,0,1-2.69-.65Zm8.08-4.67c0-1.23,0-2.22-.08-3.13h1.57l.07,1.64h0a3.8,3.8,0,0,1,3.41-1.86c2.32,0,4.06,2,4.06,4.87,0,3.45-2.1,5.15-4.36,5.15a3.37,3.37,0,0,1-3-1.5h0v5.21h-1.72Zm1.72,2.55a4,4,0,0,0,.08.72,2.69,2.69,0,0,0,2.62,2c1.84,0,2.91-1.51,2.91-3.71,0-1.92-1-3.56-2.85-3.56a3,3,0,0,0-2.76,2.87Zm10.52-.57a3.07,3.07,0,0,0,3.29,3.33,6.3,6.3,0,0,0,2.66-.5l.29,1.25a7.71,7.71,0,0,1-3.19.59c-3,0-4.71-1.94-4.71-4.83s1.7-5.17,4.5-5.17c3.13,0,4,2.76,4,4.52a6.61,6.61,0,0,1-.06.81Zm5.11-1.25c0-1.11-.45-2.83-2.41-2.83a2.89,2.89,0,0,0-2.68,2.83Zm10.68,5.37a6.35,6.35,0,0,1-2.75.55,4.55,4.55,0,0,1-4.77-4.89,4.87,4.87,0,0,1,5.15-5.09,5.72,5.72,0,0,1,2.41.5l-.39,1.34a4.15,4.15,0,0,0-2-.45,3.61,3.61,0,0,0-.06,7.21,4.85,4.85,0,0,0,2.13-.48Zm4-11.92a1.08,1.08,0,0,1-2.16,0,1.06,1.06,0,0,1,1.09-1.09A1,1,0,0,1,1318.77,805Zm-2,12.28v-9.59h1.75v9.59Zm10,0-.14-1.21h-.06a3.56,3.56,0,0,1-2.93,1.42,2.73,2.73,0,0,1-2.93-2.75c0-2.32,2.06-3.58,5.76-3.56V811a2,2,0,0,0-2.18-2.22,4.8,4.8,0,0,0-2.49.71l-.4-1.15a6,6,0,0,1,3.15-.85c2.93,0,3.64,2,3.64,3.92V815a13.46,13.46,0,0,0,.16,2.3Zm-.26-4.9c-1.9,0-4.06.3-4.06,2.16a1.54,1.54,0,0,0,1.64,1.67,2.4,2.4,0,0,0,2.32-1.61,1.78,1.78,0,0,0,.1-.55Zm4.5-9.17h1.74v14.07H1331Zm6.62,1.79a1.08,1.08,0,0,1-2.16,0,1.06,1.06,0,0,1,1.09-1.09A1,1,0,0,1,1337.63,805Zm-1.94,12.28v-9.59h1.74v9.59Zm4.39-1.79a4.57,4.57,0,0,0,2.3.7c1.27,0,1.86-.64,1.86-1.43s-.49-1.29-1.78-1.76c-1.72-.62-2.53-1.57-2.53-2.72,0-1.54,1.24-2.81,3.3-2.81a4.78,4.78,0,0,1,2.36.6l-.44,1.26a3.79,3.79,0,0,0-2-.55c-1,0-1.6.59-1.6,1.31s.57,1.15,1.82,1.62c1.66.63,2.52,1.47,2.52,2.89,0,1.69-1.31,2.87-3.59,2.87a5.4,5.4,0,0,1-2.69-.65Zm10.19-10.55v2.75h2.49V809h-2.49v5.17c0,1.18.33,1.86,1.3,1.86a3.77,3.77,0,0,0,1-.12l.08,1.31a4.22,4.22,0,0,1-1.54.23,2.39,2.39,0,0,1-1.88-.73,3.52,3.52,0,0,1-.68-2.49V809h-1.48v-1.33h1.48v-2.3Zm4.22,10.55a4.5,4.5,0,0,0,2.29.7c1.27,0,1.87-.64,1.87-1.43s-.5-1.29-1.79-1.76c-1.72-.62-2.53-1.57-2.53-2.72,0-1.54,1.25-2.81,3.31-2.81a4.71,4.71,0,0,1,2.35.6l-.43,1.26a3.82,3.82,0,0,0-2-.55c-1,0-1.61.59-1.61,1.31s.58,1.15,1.82,1.62c1.67.63,2.52,1.47,2.52,2.89,0,1.69-1.31,2.87-3.59,2.87a5.4,5.4,0,0,1-2.69-.65Zm7.45.76a1.16,1.16,0,0,1,1.18-1.25,1.25,1.25,0,1,1-1.18,1.25Zm8.38-12.14a16.51,16.51,0,0,1,3.15-.28,5.53,5.53,0,0,1,3.66,1,2.81,2.81,0,0,1,1.11,2.36,3.18,3.18,0,0,1-2.26,2.93v0a3.42,3.42,0,0,1,2.75,3.34,3.6,3.6,0,0,1-1.13,2.68c-.93.85-2.43,1.25-4.61,1.25a19.81,19.81,0,0,1-2.67-.16Zm1.72,5.46h1.56c1.83,0,2.9-.95,2.9-2.24,0-1.56-1.19-2.17-2.94-2.17a7.54,7.54,0,0,0-1.52.11Zm0,6.4a9.16,9.16,0,0,0,1.45.08c1.78,0,3.42-.66,3.42-2.6s-1.56-2.57-3.44-2.57H1372Zm9-12.76h1.74v14.07H1381Zm13.35,9.19a4.69,4.69,0,0,1-4.78,5.09c-2.59,0-4.59-1.9-4.59-4.93,0-3.21,2.1-5.09,4.75-5.09S1394.35,809.45,1394.35,812.38Zm-7.61.1c0,2.1,1.21,3.69,2.91,3.69s2.91-1.57,2.91-3.73c0-1.62-.81-3.68-2.87-3.68S1386.74,810.66,1386.74,812.48Zm16.64,4.42a6.43,6.43,0,0,1-2.75.55,4.56,4.56,0,0,1-4.78-4.89,4.87,4.87,0,0,1,5.15-5.09,5.82,5.82,0,0,1,2.42.5l-.4,1.34a4.12,4.12,0,0,0-2-.45,3.61,3.61,0,0,0-.06,7.21,4.9,4.9,0,0,0,2.14-.48Zm3.77-4.83h0c.23-.34.57-.76.85-1.09l2.81-3.31h2.1l-3.7,3.94,4.21,5.65h-2.11l-3.31-4.6-.89,1v3.61h-1.73V803.19h1.73Zm7.33,3.4a4.5,4.5,0,0,0,2.29.7c1.27,0,1.87-.64,1.87-1.43s-.5-1.29-1.79-1.76c-1.72-.62-2.53-1.57-2.53-2.72,0-1.54,1.25-2.81,3.31-2.81a4.71,4.71,0,0,1,2.35.6l-.43,1.26a3.82,3.82,0,0,0-2-.55c-1,0-1.61.59-1.61,1.31s.58,1.15,1.82,1.62c1.67.63,2.52,1.47,2.52,2.89,0,1.69-1.31,2.87-3.58,2.87a5.44,5.44,0,0,1-2.7-.65Z"
  /><text class="cls-6" transform="translate(711.77 841.03)">Node&apos;s<tspan
      class="cls-32"
      x="60.86"
      y="0"
    > </tspan><tspan class="cls-8" x="65.52" y="0">de</tspan><tspan
      class="cls-12"
      x="87.88"
      y="0"
    >v</tspan><tspan x="97.35" y="0">elopers</tspan><tspan
      class="cls-32"
      x="164.44"
      y="0"
    > </tspan><tspan class="cls-17" x="169.09" y="0">h</tspan><tspan
      class="cls-18"
      x="180.56"
      y="0"
    >a</tspan><tspan class="cls-12" x="191.14" y="0">v</tspan><tspan
      class="cls-8"
      x="200.61"
      y="0"
    >e</tspan><tspan class="cls-32" x="211.35" y="0"> </tspan><tspan
      x="216.01"
      y="0"
    >al</tspan><tspan class="cls-29" x="232.55" y="0">r</tspan><tspan
      x="239.88"
      y="0"
    >eady</tspan><tspan class="cls-32" x="282.61" y="0"> </tspan><tspan
      x="287.27"
      y="0"
    >impleme</tspan><tspan class="cls-15" x="365.21" y="0">n</tspan><tspan
      class="cls-7"
      x="376.6"
      y="0"
    >t</tspan><tspan x="383.55" y="0">ed</tspan><tspan
      class="cls-32"
      x="405.92"
      y="0"
    > </tspan><tspan x="410.58" y="0">ma</tspan><tspan
      class="cls-33"
      x="438.16"
      y="0"
    >n</tspan><tspan x="449.37" y="0">y</tspan><tspan
      class="cls-32"
      x="459"
      y="0"
    > </tspan><tspan x="463.65" y="0">su</tspan><tspan
      class="cls-34"
      x="484.26"
      y="0"
    >cc</tspan><tspan class="cls-8" x="502.84" y="0">essful</tspan><tspan
      class="cls-35"
      x="555.78"
      y="0"
    > </tspan><tspan class="cls-8" x="560.43" y="0">p</tspan><tspan
      class="cls-29"
      x="571.98"
      y="0"
    >r</tspan><tspan class="cls-17" x="579.31" y="0">ojecs</tspan><tspan
      class="cls-35"
      x="625.63"
      y="0"
    > </tspan><tspan class="cls-8" x="630.29" y="0">and</tspan><tspan
      class="cls-32"
      x="664.13"
      y="0"
    > </tspan><tspan class="cls-17" x="668.78" y="0">a</tspan><tspan
      class="cls-36"
      x="679.52"
      y="0"
    >r</tspan><tspan x="686.87" y="0">e</tspan><tspan
      class="cls-32"
      x="697.61"
      y="0"
    > </tspan><tspan class="cls-9" x="702.26" y="0">r</tspan><tspan
      x="709.59"
      y="0"
    >eady</tspan><tspan class="cls-32" x="752.33" y="0"> </tspan><tspan
      class="cls-24"
      x="756.98"
      y="0"
    >t</tspan><tspan class="cls-17" x="763.94" y="0">o </tspan></text><text
    class="cls-6"
    transform="translate(711.77 864.8)"
  >c<tspan class="cls-9" x="9.41" y="0">r</tspan><tspan
      x="16.74"
      y="0"
    >e</tspan><tspan class="cls-15" x="27.48" y="0">a</tspan><tspan
      class="cls-20"
      x="38.14"
      y="0"
    >t</tspan><tspan
      x="45.11"
      y="0"
    >e the best blockchain solutions </tspan><tspan
      class="cls-28"
      x="329.65"
      y="0"
    >f</tspan><tspan x="335.99" y="0">or </tspan><tspan
      class="cls-37"
      x="360.33"
      y="0"
    >y</tspan><tspan x="369.76" y="0">ou</tspan></text><rect
    class="cls-1"
    x="2.5"
    y="519.32"
    width="1518.82"
    height="419.23"
  /><polygon
    class="cls-1"
    points="2168.75 420.91 1521.33 937.73 1521.33 519.32 2168.75 2.5 2168.75 420.91"
  /><rect
    class="cls-38"
    x="649.92"
    y="2.5"
    width="1518.82"
    height="418.41"
  /><rect
    class="cls-1"
    x="649.92"
    y="2.5"
    width="1518.82"
    height="418.41"
  /><path
    class="cls-31"
    d="M713.27,263.17a16.51,16.51,0,0,1,3.15-.28,5.53,5.53,0,0,1,3.66,1,2.79,2.79,0,0,1,1.11,2.36,3.16,3.16,0,0,1-2.26,2.93v0a3.45,3.45,0,0,1,2.76,3.35,3.59,3.59,0,0,1-1.13,2.67c-.93.85-2.44,1.25-4.62,1.25a19.81,19.81,0,0,1-2.67-.16Zm1.72,5.47h1.57c1.82,0,2.89-.95,2.89-2.24,0-1.57-1.19-2.18-2.93-2.18a7.42,7.42,0,0,0-1.53.12Zm0,6.39a9.16,9.16,0,0,0,1.45.08c1.78,0,3.42-.65,3.42-2.59s-1.56-2.58-3.44-2.58H715Zm9-12.75h1.74v14.06H724Zm13.35,9.19a4.69,4.69,0,0,1-4.77,5.09c-2.6,0-4.6-1.9-4.6-4.93,0-3.21,2.1-5.09,4.75-5.09S737.3,268.54,737.3,271.47Zm-7.61.1c0,2.1,1.21,3.68,2.91,3.68s2.92-1.56,2.92-3.72c0-1.63-.82-3.69-2.88-3.69S729.69,269.75,729.69,271.57ZM746.33,276a6.32,6.32,0,0,1-2.75.56,4.55,4.55,0,0,1-4.77-4.89,4.87,4.87,0,0,1,5.15-5.09,5.75,5.75,0,0,1,2.41.49L746,268.4a4,4,0,0,0-2-.46,3.32,3.32,0,0,0-3.39,3.63,3.28,3.28,0,0,0,3.33,3.58,5,5,0,0,0,2.14-.47Zm3.77-4.83h0c.24-.33.57-.75.85-1.09l2.81-3.3h2.1l-3.7,3.94,4.22,5.64H754.3L751,271.75l-.89,1v3.6h-1.72V262.28h1.72Zm7.33,3.41a4.57,4.57,0,0,0,2.3.69c1.27,0,1.86-.63,1.86-1.42s-.5-1.29-1.78-1.77c-1.73-.61-2.54-1.56-2.54-2.71,0-1.55,1.25-2.81,3.31-2.81a4.78,4.78,0,0,1,2.36.59l-.44,1.27a3.72,3.72,0,0,0-2-.56c-1,0-1.6.6-1.6,1.31s.57,1.15,1.82,1.63c1.66.63,2.51,1.46,2.51,2.89,0,1.68-1.3,2.87-3.58,2.87a5.58,5.58,0,0,1-2.7-.65ZM769,276.34V263h1.88l4.28,6.76a39,39,0,0,1,2.4,4.33l0,0c-.16-1.78-.2-3.4-.2-5.48V263H779v13.35h-1.74L773,269.57a41.93,41.93,0,0,1-2.49-4.46l-.06,0c.1,1.68.13,3.29.13,5.51v5.7Zm21.65-4.87c0,3.54-2.45,5.09-4.77,5.09-2.6,0-4.6-1.9-4.6-4.93,0-3.21,2.1-5.09,4.76-5.09S790.63,268.54,790.63,271.47Zm-7.6.1c0,2.1,1.21,3.68,2.91,3.68s2.91-1.56,2.91-3.72c0-1.63-.81-3.69-2.87-3.69S783,269.75,783,271.57Zm18.08-9.29v11.59c0,.85,0,1.82.08,2.47h-1.56l-.08-1.66h0a3.55,3.55,0,0,1-3.27,1.88c-2.32,0-4.1-2-4.1-4.87,0-3.19,2-5.15,4.3-5.15a3.22,3.22,0,0,1,2.89,1.46h0v-5.72Zm-1.74,8.38a3.11,3.11,0,0,0-.08-.74,2.57,2.57,0,0,0-2.51-2c-1.81,0-2.88,1.59-2.88,3.71,0,1.94,1,3.54,2.84,3.54a2.62,2.62,0,0,0,2.55-2.08,2.93,2.93,0,0,0,.08-.75Zm5.61,1.21a3.07,3.07,0,0,0,3.29,3.32,6.43,6.43,0,0,0,2.65-.49l.3,1.25a8,8,0,0,1-3.19.59,4.46,4.46,0,0,1-4.72-4.83c0-2.89,1.71-5.17,4.5-5.17,3.13,0,4,2.75,4,4.51a6.64,6.64,0,0,1-.06.82Zm5.11-1.25c0-1.11-.46-2.83-2.42-2.83-1.76,0-2.53,1.62-2.67,2.83Zm9.19-6.56a1,1,0,0,1-1.11,1.07,1,1,0,0,1-1-1.07,1.07,1.07,0,0,1,1.09-1.09A1,1,0,0,1,819.28,264.06Zm-1.94,12.28v-9.58h1.74v9.58Zm4.4-1.78a4.57,4.57,0,0,0,2.3.69c1.27,0,1.86-.63,1.86-1.42s-.5-1.29-1.78-1.77c-1.73-.61-2.54-1.56-2.54-2.71,0-1.55,1.25-2.81,3.31-2.81a4.78,4.78,0,0,1,2.36.59l-.44,1.27a3.72,3.72,0,0,0-2-.56c-1,0-1.6.6-1.6,1.31s.57,1.15,1.82,1.63c1.66.63,2.51,1.46,2.51,2.89,0,1.68-1.3,2.87-3.58,2.87a5.58,5.58,0,0,1-2.7-.65Zm16.8,1.78-.14-1.21h-.06a3.54,3.54,0,0,1-2.93,1.43,2.73,2.73,0,0,1-2.93-2.75c0-2.32,2.06-3.59,5.76-3.57V270a2,2,0,0,0-2.18-2.22,4.72,4.72,0,0,0-2.49.72l-.4-1.15a5.9,5.9,0,0,1,3.15-.85c2.93,0,3.64,2,3.64,3.92V274a13.31,13.31,0,0,0,.16,2.3Zm-.26-4.89c-1.9,0-4.06.3-4.06,2.16a1.54,1.54,0,0,0,1.65,1.66,2.37,2.37,0,0,0,2.31-1.6,1.84,1.84,0,0,0,.1-.56Zm10-7.45v2.76h2.49v1.32h-2.49v5.17c0,1.19.33,1.86,1.3,1.86a3.77,3.77,0,0,0,1-.12l.08,1.31a4.19,4.19,0,0,1-1.54.24,2.42,2.42,0,0,1-1.88-.73,3.55,3.55,0,0,1-.68-2.5v-5.23H845.1v-1.32h1.48v-2.3Zm5.31,7.87a3.07,3.07,0,0,0,3.29,3.32,6.43,6.43,0,0,0,2.65-.49l.3,1.25a8,8,0,0,1-3.19.59,4.46,4.46,0,0,1-4.72-4.83c0-2.89,1.71-5.17,4.5-5.17,3.13,0,4,2.75,4,4.51a6.64,6.64,0,0,1-.06.82Zm5.11-1.25c0-1.11-.46-2.83-2.42-2.83-1.76,0-2.53,1.62-2.67,2.83Zm9.15,5.72-.14-1.21h-.06a3.54,3.54,0,0,1-2.93,1.43,2.73,2.73,0,0,1-2.93-2.75c0-2.32,2.06-3.59,5.76-3.57V270a2,2,0,0,0-2.17-2.22,4.73,4.73,0,0,0-2.5.72l-.4-1.15a5.92,5.92,0,0,1,3.15-.85c2.93,0,3.65,2,3.65,3.92V274a13.31,13.31,0,0,0,.16,2.3Zm-.26-4.89c-1.9,0-4.06.3-4.06,2.16a1.54,1.54,0,0,0,1.65,1.66,2.37,2.37,0,0,0,2.31-1.6,1.84,1.84,0,0,0,.1-.56Zm4.5-2.1c0-1,0-1.8-.08-2.59h1.53l.08,1.54h.06a3.29,3.29,0,0,1,3-1.76,2.84,2.84,0,0,1,2.71,1.92h0a3.92,3.92,0,0,1,1.07-1.25,3.3,3.3,0,0,1,2.12-.67c1.27,0,3.15.83,3.15,4.16v5.64h-1.71v-5.43c0-1.84-.67-3-2.07-3a2.25,2.25,0,0,0-2.06,1.59,2.83,2.83,0,0,0-.14.87v5.92H878.1V270.6c0-1.53-.67-2.64-2-2.64a2.38,2.38,0,0,0-2.16,1.75,2.33,2.33,0,0,0-.13.85v5.78H872.1Zm28.61,2.12a4.69,4.69,0,0,1-4.78,5.09c-2.59,0-4.59-1.9-4.59-4.93,0-3.21,2.1-5.09,4.75-5.09S900.71,268.54,900.71,271.47Zm-7.61.1c0,2.1,1.21,3.68,2.91,3.68s2.92-1.56,2.92-3.72c0-1.63-.82-3.69-2.88-3.69S893.1,269.75,893.1,271.57Zm10,4.77v-8.26h-1.35v-1.32h1.35v-.46A4.53,4.53,0,0,1,904.2,263a3.33,3.33,0,0,1,2.33-.89,4,4,0,0,1,1.49.28l-.24,1.35a2.58,2.58,0,0,0-1.11-.22c-1.48,0-1.86,1.3-1.86,2.77v.52h2.32v1.32h-2.32v8.26Zm8.93,0c0-.65.08-1.62.08-2.47V262.28h1.73v6h0a3.56,3.56,0,0,1,3.26-1.76c2.38,0,4.06,2,4,4.89,0,3.43-2.16,5.13-4.29,5.13a3.42,3.42,0,0,1-3.21-1.8h-.06l-.08,1.58Zm1.81-3.84a3.19,3.19,0,0,0,.08.63,2.67,2.67,0,0,0,2.61,2c1.82,0,2.91-1.48,2.91-3.68,0-1.92-1-3.57-2.85-3.57a2.8,2.8,0,0,0-2.66,2.14,4.4,4.4,0,0,0-.09.72Zm9.55-10.22h1.74v14.06h-1.74Zm13.35,9.19a4.69,4.69,0,0,1-4.78,5.09c-2.59,0-4.59-1.9-4.59-4.93,0-3.21,2.1-5.09,4.75-5.09S936.73,268.54,936.73,271.47Zm-7.61.1c0,2.1,1.21,3.68,2.91,3.68s2.91-1.56,2.91-3.72c0-1.63-.81-3.69-2.87-3.69S929.12,269.75,929.12,271.57ZM945.76,276a6.32,6.32,0,0,1-2.75.56,4.56,4.56,0,0,1-4.78-4.89,4.88,4.88,0,0,1,5.15-5.09,5.8,5.8,0,0,1,2.42.49l-.4,1.35a4,4,0,0,0-2-.46,3.32,3.32,0,0,0-3.38,3.63,3.28,3.28,0,0,0,3.32,3.58,4.88,4.88,0,0,0,2.14-.47Zm3.77-4.83h0c.23-.33.57-.75.85-1.09l2.81-3.3h2.1l-3.7,3.94,4.21,5.64h-2.11l-3.31-4.59-.89,1v3.6H947.8V262.28h1.73Zm14.4,4.83a6.4,6.4,0,0,1-2.75.56,4.55,4.55,0,0,1-4.78-4.89,4.87,4.87,0,0,1,5.15-5.09,5.84,5.84,0,0,1,2.42.49l-.4,1.35a4,4,0,0,0-2-.46,3.32,3.32,0,0,0-3.39,3.63,3.28,3.28,0,0,0,3.33,3.58,4.92,4.92,0,0,0,2.14-.47Zm2-13.7h1.74v6h0A3.36,3.36,0,0,1,969,267a3.67,3.67,0,0,1,1.78-.49c1.29,0,3.35.79,3.35,4.1v5.7h-1.74v-5.5c0-1.55-.58-2.86-2.22-2.86a2.52,2.52,0,0,0-2.34,1.75,2.05,2.05,0,0,0-.12.83v5.78H966Zm16.3,14.06-.13-1.21h-.06a3.57,3.57,0,0,1-2.93,1.43,2.73,2.73,0,0,1-2.94-2.75c0-2.32,2.06-3.59,5.77-3.57V270a2,2,0,0,0-2.18-2.22,4.78,4.78,0,0,0-2.5.72l-.39-1.15a5.9,5.9,0,0,1,3.15-.85c2.93,0,3.64,2,3.64,3.92V274a13.31,13.31,0,0,0,.16,2.3Zm-.25-4.89c-1.9,0-4.06.3-4.06,2.16a1.54,1.54,0,0,0,1.64,1.66,2.39,2.39,0,0,0,2.32-1.6,1.84,1.84,0,0,0,.1-.56Zm6.44-7.39a1.08,1.08,0,0,1-2.16,0,1.06,1.06,0,0,1,1.09-1.09A1,1,0,0,1,988.46,264.06Zm-1.94,12.28v-9.58h1.74v9.58Zm4.63-7c0-1,0-1.8-.08-2.59h1.55l.1,1.58h0a3.51,3.51,0,0,1,3.17-1.8c1.32,0,3.38.79,3.38,4.08v5.72h-1.74v-5.52c0-1.55-.58-2.84-2.22-2.84a2.49,2.49,0,0,0-2.34,1.79,2.43,2.43,0,0,0-.12.81v5.76h-1.74Zm22.68-7.07v11.59c0,.85,0,1.82.08,2.47h-1.56l-.08-1.66h0a3.55,3.55,0,0,1-3.27,1.88c-2.32,0-4.1-2-4.1-4.87,0-3.19,2-5.15,4.3-5.15a3.19,3.19,0,0,1,2.89,1.46h0v-5.72Zm-1.74,8.38a3.11,3.11,0,0,0-.08-.74,2.57,2.57,0,0,0-2.51-2c-1.81,0-2.88,1.59-2.88,3.71,0,1.94,1,3.54,2.84,3.54a2.61,2.61,0,0,0,2.55-2.08,2.93,2.93,0,0,0,.08-.75Zm5.61,1.21a3.07,3.07,0,0,0,3.29,3.32,6.39,6.39,0,0,0,2.65-.49l.3,1.25a8,8,0,0,1-3.19.59c-3,0-4.71-1.94-4.71-4.83s1.7-5.17,4.49-5.17c3.13,0,4,2.75,4,4.51a6.64,6.64,0,0,1-.06.82Zm5.11-1.25c0-1.11-.46-2.83-2.42-2.83-1.76,0-2.53,1.62-2.67,2.83Zm4.52-3.86,1.88,5.38a24.43,24.43,0,0,1,.77,2.46h.06c.22-.79.5-1.59.81-2.46l1.87-5.38h1.82l-3.77,9.58h-1.66l-3.64-9.58Zm9.63,5.11a3.06,3.06,0,0,0,3.28,3.32,6.44,6.44,0,0,0,2.66-.49l.3,1.25a8,8,0,0,1-3.19.59,4.46,4.46,0,0,1-4.72-4.83c0-2.89,1.71-5.17,4.5-5.17,3.13,0,4,2.75,4,4.51a6.64,6.64,0,0,1-.06.82Zm5.11-1.25c0-1.11-.46-2.83-2.42-2.83-1.76,0-2.53,1.62-2.67,2.83Zm3.84-8.34h1.75v14.06h-1.75Zm13.35,9.19c0,3.54-2.45,5.09-4.77,5.09-2.59,0-4.6-1.9-4.6-4.93,0-3.21,2.1-5.09,4.76-5.09S1059.26,268.54,1059.26,271.47Zm-7.6.1c0,2.1,1.21,3.68,2.91,3.68s2.91-1.56,2.91-3.72c0-1.63-.81-3.69-2.87-3.69S1051.66,269.75,1051.66,271.57Zm9.8-1.69c0-1.22,0-2.21-.07-3.12H1063l.08,1.64h0a3.76,3.76,0,0,1,3.41-1.86c2.31,0,4.06,2,4.06,4.87,0,3.45-2.1,5.15-4.36,5.15a3.36,3.36,0,0,1-3-1.51h0v5.21h-1.73Zm1.73,2.56a3.85,3.85,0,0,0,.08.71,2.67,2.67,0,0,0,2.61,2c1.84,0,2.91-1.5,2.91-3.7,0-1.92-1-3.57-2.85-3.57a2.78,2.78,0,0,0-2.63,2.16,2.85,2.85,0,0,0-.12.72Zm10.52-.57a3.07,3.07,0,0,0,3.29,3.32,6.43,6.43,0,0,0,2.65-.49l.3,1.25a8,8,0,0,1-3.19.59,4.46,4.46,0,0,1-4.72-4.83c0-2.89,1.71-5.17,4.5-5.17,3.13,0,4,2.75,4,4.51a6.64,6.64,0,0,1-.06.82Zm5.11-1.25c0-1.11-.46-2.83-2.42-2.83-1.76,0-2.53,1.62-2.67,2.83Zm3.84-.87c0-1.13,0-2.1-.08-3h1.53l.06,1.88h.08a2.86,2.86,0,0,1,2.65-2.1,1.9,1.9,0,0,1,.5.06v1.64a2.64,2.64,0,0,0-.6-.06,2.44,2.44,0,0,0-2.33,2.24,4.83,4.83,0,0,0-.08.81v5.11h-1.73Zm6.24,4.81a4.57,4.57,0,0,0,2.3.69c1.27,0,1.86-.63,1.86-1.42s-.49-1.29-1.78-1.77c-1.72-.61-2.53-1.56-2.53-2.71,0-1.55,1.24-2.81,3.3-2.81a4.75,4.75,0,0,1,2.36.59l-.44,1.27a3.66,3.66,0,0,0-2-.56c-1,0-1.6.6-1.6,1.31s.57,1.15,1.82,1.63c1.67.63,2.52,1.46,2.52,2.89,0,1.68-1.31,2.87-3.59,2.87a5.51,5.51,0,0,1-2.69-.65Zm11.5-12.28h1.74v6h0a3.28,3.28,0,0,1,1.25-1.23,3.61,3.61,0,0,1,1.78-.49c1.29,0,3.35.79,3.35,4.1v5.7h-1.75v-5.5c0-1.55-.57-2.86-2.22-2.86a2.5,2.5,0,0,0-2.33,1.75,2.05,2.05,0,0,0-.12.83v5.78h-1.74Zm12,9.59a3.07,3.07,0,0,0,3.29,3.32,6.39,6.39,0,0,0,2.65-.49l.3,1.25a7.88,7.88,0,0,1-3.19.59c-3,0-4.71-1.94-4.71-4.83s1.7-5.17,4.49-5.17c3.13,0,4,2.75,4,4.51a7.09,7.09,0,0,1-.05.82Zm5.11-1.25c0-1.11-.45-2.83-2.42-2.83-1.76,0-2.53,1.62-2.67,2.83Zm3.85-8.34h1.74v14.06h-1.74Zm4.67,7.6c0-1.22,0-2.21-.08-3.12h1.57l.08,1.64h0a3.76,3.76,0,0,1,3.4-1.86c2.32,0,4.06,2,4.06,4.87,0,3.45-2.1,5.15-4.35,5.15a3.39,3.39,0,0,1-3-1.51h0v5.21H1126Zm1.73,2.56a3.88,3.88,0,0,0,.07.71,2.69,2.69,0,0,0,2.62,2c1.84,0,2.91-1.5,2.91-3.7,0-1.92-1-3.57-2.85-3.57a2.8,2.8,0,0,0-2.64,2.16,2.85,2.85,0,0,0-.11.72Zm11.49-8.38a1.08,1.08,0,0,1-2.16,0,1.06,1.06,0,0,1,1.09-1.09A1,1,0,0,1,1139.21,264.06Zm-1.94,12.28v-9.58H1139v9.58Zm4.63-7c0-1,0-1.8-.08-2.59h1.55l.1,1.58h0a3.51,3.51,0,0,1,3.16-1.8c1.33,0,3.39.79,3.39,4.08v5.72h-1.74v-5.52c0-1.55-.58-2.84-2.22-2.84a2.49,2.49,0,0,0-2.34,1.79,2.43,2.43,0,0,0-.12.81v5.76h-1.74Zm19.26-2.59c0,.69-.08,1.46-.08,2.63V275c0,2.2-.44,3.55-1.37,4.38a5.1,5.1,0,0,1-3.49,1.15,6.22,6.22,0,0,1-3.18-.79l.43-1.33a5.37,5.37,0,0,0,2.81.75c1.79,0,3.09-.93,3.09-3.34V274.7h0a3.41,3.41,0,0,1-3,1.6c-2.37,0-4.08-2-4.08-4.67,0-3.25,2.12-5.09,4.32-5.09a3.19,3.19,0,0,1,3,1.66h0l.08-1.44Zm-1.81,3.78a2.41,2.41,0,0,0-.1-.79,2.5,2.5,0,0,0-2.43-1.85c-1.67,0-2.85,1.41-2.85,3.63,0,1.88,1,3.44,2.83,3.44a2.53,2.53,0,0,0,2.41-1.78,3,3,0,0,0,.14-.93Zm14.86,5.44a6.32,6.32,0,0,1-2.75.56,4.55,4.55,0,0,1-4.77-4.89,4.87,4.87,0,0,1,5.15-5.09,5.75,5.75,0,0,1,2.41.49l-.39,1.35a4,4,0,0,0-2-.46,3.32,3.32,0,0,0-3.39,3.63,3.28,3.28,0,0,0,3.33,3.58,5,5,0,0,0,2.14-.47Zm10.6-4.51c0,3.54-2.45,5.09-4.77,5.09-2.6,0-4.6-1.9-4.6-4.93,0-3.21,2.1-5.09,4.76-5.09S1184.81,268.54,1184.81,271.47Zm-7.6.1c0,2.1,1.2,3.68,2.91,3.68s2.91-1.56,2.91-3.72c0-1.63-.81-3.69-2.87-3.69S1177.21,269.75,1177.21,271.57Zm9.8-2.22c0-1,0-1.8-.08-2.59h1.53l.08,1.54h.06a3.29,3.29,0,0,1,3-1.76,2.82,2.82,0,0,1,2.71,1.92h0a3.92,3.92,0,0,1,1.07-1.25,3.3,3.3,0,0,1,2.12-.67c1.27,0,3.15.83,3.15,4.16v5.64H1199v-5.43c0-1.84-.68-3-2.08-3a2.26,2.26,0,0,0-2.06,1.59,2.83,2.83,0,0,0-.14.87v5.92H1193V270.6c0-1.53-.67-2.64-2-2.64a2.38,2.38,0,0,0-2.16,1.75,2.57,2.57,0,0,0-.13.85v5.78H1187Zm16.53.53c0-1.22,0-2.21-.08-3.12H1205l.08,1.64h0a3.76,3.76,0,0,1,3.41-1.86c2.31,0,4.06,2,4.06,4.87,0,3.45-2.1,5.15-4.36,5.15a3.36,3.36,0,0,1-3-1.51h0v5.21h-1.72Zm1.72,2.56a3.85,3.85,0,0,0,.08.71,2.69,2.69,0,0,0,2.61,2c1.84,0,2.91-1.5,2.91-3.7,0-1.92-1-3.57-2.85-3.57a2.78,2.78,0,0,0-2.63,2.16,2.85,2.85,0,0,0-.12.72Zm14.86,3.9-.14-1.21h-.06a3.57,3.57,0,0,1-2.93,1.43,2.73,2.73,0,0,1-2.93-2.75c0-2.32,2.06-3.59,5.76-3.57V270a2,2,0,0,0-2.18-2.22,4.72,4.72,0,0,0-2.49.72l-.4-1.15a5.9,5.9,0,0,1,3.15-.85c2.93,0,3.64,2,3.64,3.92V274a13.31,13.31,0,0,0,.16,2.3Zm-.26-4.89c-1.9,0-4.06.3-4.06,2.16a1.54,1.54,0,0,0,1.64,1.66,2.39,2.39,0,0,0,2.32-1.6,1.84,1.84,0,0,0,.1-.56Zm4.5-2.1c0-1,0-1.8-.08-2.59h1.54l.1,1.58h0a3.54,3.54,0,0,1,3.17-1.8c1.33,0,3.39.79,3.39,4.08v5.72h-1.74v-5.52c0-1.55-.58-2.84-2.22-2.84a2.49,2.49,0,0,0-2.34,1.79,2.43,2.43,0,0,0-.12.81v5.76h-1.74Zm12.94-5.29a1.08,1.08,0,0,1-2.16,0,1.06,1.06,0,0,1,1.09-1.09A1,1,0,0,1,1237.3,264.06Zm-2,12.28v-9.58h1.75v9.58Zm5.61-4.47a3.07,3.07,0,0,0,3.29,3.32,6.39,6.39,0,0,0,2.65-.49l.3,1.25a7.88,7.88,0,0,1-3.19.59c-3,0-4.71-1.94-4.71-4.83s1.7-5.17,4.49-5.17c3.13,0,4,2.75,4,4.51a6.64,6.64,0,0,1-.06.82Zm5.11-1.25c0-1.11-.46-2.83-2.42-2.83-1.76,0-2.53,1.62-2.67,2.83Zm3.61,3.94a4.5,4.5,0,0,0,2.3.69c1.26,0,1.86-.63,1.86-1.42s-.5-1.29-1.79-1.77c-1.72-.61-2.53-1.56-2.53-2.71,0-1.55,1.25-2.81,3.31-2.81a4.71,4.71,0,0,1,2.35.59l-.43,1.27a3.72,3.72,0,0,0-2-.56c-1,0-1.61.6-1.61,1.31s.58,1.15,1.83,1.63c1.66.63,2.51,1.46,2.51,2.89,0,1.68-1.31,2.87-3.58,2.87a5.58,5.58,0,0,1-2.7-.65ZM1263.27,264v2.76h2.49v1.32h-2.49v5.17c0,1.19.34,1.86,1.31,1.86a3.89,3.89,0,0,0,1-.12l.07,1.31a4.19,4.19,0,0,1-1.54.24,2.42,2.42,0,0,1-1.88-.73,3.55,3.55,0,0,1-.67-2.5v-5.23h-1.49v-1.32h1.49v-2.3Zm13,7.47c0,3.54-2.45,5.09-4.77,5.09-2.59,0-4.6-1.9-4.6-4.93,0-3.21,2.1-5.09,4.76-5.09S1276.28,268.54,1276.28,271.47Zm-7.6.1c0,2.1,1.21,3.68,2.91,3.68s2.91-1.56,2.91-3.72c0-1.63-.81-3.69-2.87-3.69S1268.68,269.75,1268.68,271.57Zm13.13,4.77c0-.65.08-1.62.08-2.47V262.28h1.73v6h0a3.56,3.56,0,0,1,3.26-1.76c2.38,0,4.06,2,4,4.89,0,3.43-2.16,5.13-4.29,5.13a3.42,3.42,0,0,1-3.21-1.8h-.06l-.08,1.58Zm1.81-3.84a4.19,4.19,0,0,0,.07.63,2.69,2.69,0,0,0,2.62,2c1.82,0,2.91-1.48,2.91-3.68,0-1.92-1-3.57-2.85-3.57a2.8,2.8,0,0,0-2.66,2.14,3.53,3.53,0,0,0-.09.72Zm17.57,1.23c0,1,0,1.86.08,2.61h-1.55l-.1-1.56h0a3.6,3.6,0,0,1-3.17,1.78c-1.5,0-3.3-.83-3.3-4.2v-5.6h1.74v5.3c0,1.83.55,3.05,2.14,3.05a2.53,2.53,0,0,0,2.3-1.58,2.81,2.81,0,0,0,.15-.89v-5.88h1.75Zm4.83-9.67a1,1,0,0,1-1.11,1.07,1,1,0,0,1-1.05-1.07A1.07,1.07,0,0,1,1305,263,1,1,0,0,1,1306,264.06Zm-1.94,12.28v-9.58h1.74v9.58Zm4.64-14.06h1.74v14.06h-1.74Zm13,0v11.59c0,.85,0,1.82.08,2.47h-1.56l-.08-1.66h0a3.56,3.56,0,0,1-3.27,1.88c-2.32,0-4.1-2-4.1-4.87,0-3.19,2-5.15,4.3-5.15a3.22,3.22,0,0,1,2.89,1.46h0v-5.72Zm-1.74,8.38a3.11,3.11,0,0,0-.08-.74,2.58,2.58,0,0,0-2.52-2c-1.8,0-2.87,1.59-2.87,3.71,0,1.94,1,3.54,2.83,3.54a2.62,2.62,0,0,0,2.56-2.08,2.93,2.93,0,0,0,.08-.75Zm8,5.68c0-.65.07-1.62.07-2.47V262.28h1.73v6h0a3.56,3.56,0,0,1,3.27-1.76c2.37,0,4.06,2,4,4.89,0,3.43-2.16,5.13-4.3,5.13a3.42,3.42,0,0,1-3.21-1.8h-.06l-.08,1.58Zm1.8-3.84a3.19,3.19,0,0,0,.08.63,2.67,2.67,0,0,0,2.61,2c1.82,0,2.91-1.48,2.91-3.68,0-1.92-1-3.57-2.85-3.57a2.78,2.78,0,0,0-2.65,2.14,3.47,3.47,0,0,0-.1.72Zm10.52-.63a3.07,3.07,0,0,0,3.29,3.32,6.43,6.43,0,0,0,2.65-.49l.3,1.25a8,8,0,0,1-3.19.59,4.46,4.46,0,0,1-4.72-4.83c0-2.89,1.71-5.17,4.5-5.17,3.13,0,4,2.75,4,4.51a6.64,6.64,0,0,1-.06.82Zm5.11-1.25c0-1.11-.46-2.83-2.42-2.83-1.76,0-2.53,1.62-2.67,2.83Zm3.61,3.94a4.5,4.5,0,0,0,2.29.69c1.27,0,1.87-.63,1.87-1.42s-.5-1.29-1.79-1.77c-1.72-.61-2.53-1.56-2.53-2.71,0-1.55,1.25-2.81,3.31-2.81a4.71,4.71,0,0,1,2.35.59l-.43,1.27a3.72,3.72,0,0,0-2-.56c-1,0-1.61.6-1.61,1.31s.58,1.15,1.82,1.63c1.67.63,2.52,1.46,2.52,2.89,0,1.68-1.31,2.87-3.59,2.87a5.51,5.51,0,0,1-2.69-.65ZM1359.12,264v2.76h2.49v1.32h-2.49v5.17c0,1.19.34,1.86,1.31,1.86a3.89,3.89,0,0,0,1-.12l.08,1.31a4.29,4.29,0,0,1-1.55.24,2.42,2.42,0,0,1-1.88-.73,3.55,3.55,0,0,1-.67-2.5v-5.23h-1.49v-1.32h1.49v-2.3Zm7.63,10.56a4.5,4.5,0,0,0,2.29.69c1.27,0,1.87-.63,1.87-1.42s-.5-1.29-1.79-1.77c-1.72-.61-2.53-1.56-2.53-2.71,0-1.55,1.25-2.81,3.31-2.81a4.71,4.71,0,0,1,2.35.59l-.43,1.27a3.72,3.72,0,0,0-2-.56c-1,0-1.61.6-1.61,1.31s.58,1.15,1.82,1.63c1.67.63,2.52,1.46,2.52,2.89,0,1.68-1.31,2.87-3.59,2.87a5.54,5.54,0,0,1-2.69-.65Zm16.76-3.09a4.69,4.69,0,0,1-4.78,5.09c-2.59,0-4.59-1.9-4.59-4.93,0-3.21,2.1-5.09,4.75-5.09S1383.51,268.54,1383.51,271.47Zm-7.61.1c0,2.1,1.21,3.68,2.91,3.68s2.91-1.56,2.91-3.72c0-1.63-.81-3.69-2.87-3.69S1375.9,269.75,1375.9,271.57Zm10,4.77v-8.26h-1.35v-1.32h1.35v-.46A4.52,4.52,0,0,1,1387,263a3.37,3.37,0,0,1,2.34-.89,4,4,0,0,1,1.49.28l-.24,1.35a2.61,2.61,0,0,0-1.11-.22c-1.49,0-1.86,1.3-1.86,2.77v.52h2.32v1.32h-2.32v8.26Zm7.92-12.34v2.76h2.49v1.32h-2.49v5.17c0,1.19.34,1.86,1.31,1.86a3.89,3.89,0,0,0,1-.12l.08,1.31a4.29,4.29,0,0,1-1.55.24,2.44,2.44,0,0,1-1.88-.73,3.55,3.55,0,0,1-.67-2.5v-5.23h-1.49v-1.32h1.49v-2.3Zm5.33,2.76,1.26,4.87c.28,1.07.54,2.06.72,3.05h.06c.22-1,.53-2,.85-3l1.56-4.89h1.47l1.48,4.79c.36,1.15.64,2.16.86,3.13h.06a26.35,26.35,0,0,1,.73-3.11l1.36-4.81h1.73l-3.09,9.58h-1.59l-1.46-4.57a29.15,29.15,0,0,1-.85-3.15h0a30.39,30.39,0,0,1-.87,3.17l-1.55,4.55h-1.58l-2.9-9.58Zm19.11,9.58-.13-1.21h-.06a3.57,3.57,0,0,1-2.94,1.43,2.73,2.73,0,0,1-2.93-2.75c0-2.32,2.06-3.59,5.77-3.57V270a2,2,0,0,0-2.18-2.22,4.78,4.78,0,0,0-2.5.72l-.39-1.15a5.9,5.9,0,0,1,3.15-.85c2.93,0,3.64,2,3.64,3.92V274a13.31,13.31,0,0,0,.16,2.3Zm-.25-4.89c-1.9,0-4.06.3-4.06,2.16a1.54,1.54,0,0,0,1.64,1.66,2.39,2.39,0,0,0,2.32-1.6,1.84,1.84,0,0,0,.1-.56Zm4.5-1.7c0-1.13,0-2.1-.08-3h1.52l.06,1.88h.08a2.88,2.88,0,0,1,2.65-2.1,1.9,1.9,0,0,1,.5.06v1.64a2.64,2.64,0,0,0-.6-.06,2.45,2.45,0,0,0-2.33,2.24,4.83,4.83,0,0,0-.08.81v5.11h-1.72Zm7.25,2.12a3.06,3.06,0,0,0,3.28,3.32,6.48,6.48,0,0,0,2.66-.49L1436,276a7.86,7.86,0,0,1-3.18.59,4.46,4.46,0,0,1-4.72-4.83c0-2.89,1.71-5.17,4.5-5.17,3.13,0,4,2.75,4,4.51a6.64,6.64,0,0,1-.06.82Zm5.11-1.25c0-1.11-.46-2.83-2.42-2.83a2.88,2.88,0,0,0-2.67,2.83Zm7,3.94a4.57,4.57,0,0,0,2.3.69c1.27,0,1.86-.63,1.86-1.42s-.49-1.29-1.78-1.77c-1.72-.61-2.54-1.56-2.54-2.71,0-1.55,1.25-2.81,3.31-2.81a4.78,4.78,0,0,1,2.36.59l-.44,1.27a3.69,3.69,0,0,0-2-.56c-1,0-1.6.6-1.6,1.31s.57,1.15,1.82,1.63c1.66.63,2.51,1.46,2.51,2.89,0,1.68-1.3,2.87-3.58,2.87a5.51,5.51,0,0,1-2.69-.65Zm16.76-3.09a4.69,4.69,0,0,1-4.77,5.09c-2.6,0-4.6-1.9-4.6-4.93,0-3.21,2.1-5.09,4.76-5.09S1458.63,268.54,1458.63,271.47Zm-7.61.1c0,2.1,1.21,3.68,2.92,3.68s2.91-1.56,2.91-3.72c0-1.63-.81-3.69-2.87-3.69S1451,269.75,1451,271.57Zm9.81-9.29h1.74v14.06h-1.74Zm12.7,11.45c0,1,0,1.86.08,2.61h-1.55l-.1-1.56h0a3.59,3.59,0,0,1-3.16,1.78c-1.51,0-3.31-.83-3.31-4.2v-5.6h1.74v5.3c0,1.83.56,3.05,2.14,3.05a2.53,2.53,0,0,0,2.3-1.58,2.56,2.56,0,0,0,.16-.89v-5.88h1.74Zm5-9.73v2.76h2.5v1.32h-2.5v5.17c0,1.19.34,1.86,1.31,1.86a3.83,3.83,0,0,0,1-.12l.08,1.31a4.25,4.25,0,0,1-1.55.24,2.44,2.44,0,0,1-1.88-.73,3.6,3.6,0,0,1-.67-2.5v-5.23h-1.49v-1.32h1.49v-2.3Zm6.4.06a1,1,0,0,1-1.11,1.07,1,1,0,0,1-1-1.07,1.07,1.07,0,0,1,1.09-1.09A1,1,0,0,1,1484.92,264.06ZM1483,276.34v-9.58h1.74v9.58Zm13.31-4.87c0,3.54-2.45,5.09-4.77,5.09-2.6,0-4.6-1.9-4.6-4.93,0-3.21,2.1-5.09,4.76-5.09S1496.29,268.54,1496.29,271.47Zm-7.6.1c0,2.1,1.2,3.68,2.91,3.68s2.91-1.56,2.91-3.72c0-1.63-.81-3.69-2.87-3.69S1488.69,269.75,1488.69,271.57Zm9.8-2.22c0-1,0-1.8-.08-2.59H1500l.1,1.58h0a3.51,3.51,0,0,1,3.17-1.8c1.32,0,3.38.79,3.38,4.08v5.72h-1.74v-5.52c0-1.55-.57-2.84-2.22-2.84a2.47,2.47,0,0,0-2.33,1.79,2.43,2.43,0,0,0-.12.81v5.76h-1.75Zm10.76,5.21a4.57,4.57,0,0,0,2.3.69c1.27,0,1.86-.63,1.86-1.42s-.49-1.29-1.78-1.77c-1.72-.61-2.54-1.56-2.54-2.71,0-1.55,1.25-2.81,3.31-2.81a4.78,4.78,0,0,1,2.36.59l-.44,1.27a3.69,3.69,0,0,0-2-.56c-1,0-1.6.6-1.6,1.31s.57,1.15,1.82,1.63c1.66.63,2.51,1.46,2.51,2.89,0,1.68-1.3,2.87-3.58,2.87a5.51,5.51,0,0,1-2.69-.65Zm11.67,1.78v-8.26h-1.35v-1.32h1.35v-.46A4.53,4.53,0,0,1,1522,263a3.34,3.34,0,0,1,2.34-.89,4,4,0,0,1,1.48.28l-.24,1.35a2.53,2.53,0,0,0-1.1-.22c-1.49,0-1.87,1.3-1.87,2.77v.52H1525v1.32h-2.32v8.26Zm14-4.87a4.69,4.69,0,0,1-4.78,5.09c-2.59,0-4.59-1.9-4.59-4.93,0-3.21,2.1-5.09,4.75-5.09S1535,268.54,1535,271.47Zm-7.61.1c0,2.1,1.21,3.68,2.91,3.68s2.91-1.56,2.91-3.72c0-1.63-.81-3.69-2.87-3.69S1527.34,269.75,1527.34,271.57Zm9.81-1.82c0-1.13,0-2.1-.08-3h1.52l.06,1.88h.08a2.88,2.88,0,0,1,2.66-2.1,1.88,1.88,0,0,1,.49.06v1.64a2.61,2.61,0,0,0-.59-.06,2.45,2.45,0,0,0-2.34,2.24,4.83,4.83,0,0,0-.08.81v5.11h-1.72Zm12-5.75v2.76h2.5v1.32h-2.5v5.17c0,1.19.34,1.86,1.31,1.86a3.83,3.83,0,0,0,1-.12l.08,1.31a4.25,4.25,0,0,1-1.55.24,2.44,2.44,0,0,1-1.88-.73,3.6,3.6,0,0,1-.67-2.5v-5.23h-1.49v-1.32h1.49v-2.3Zm4.46-1.72h1.74v6h0a3.36,3.36,0,0,1,1.25-1.23,3.67,3.67,0,0,1,1.78-.49c1.29,0,3.35.79,3.35,4.1v5.7H1560v-5.5c0-1.55-.58-2.86-2.22-2.86a2.52,2.52,0,0,0-2.34,1.75,2.05,2.05,0,0,0-.12.83v5.78h-1.74Zm12,9.59a3.06,3.06,0,0,0,3.28,3.32,6.48,6.48,0,0,0,2.66-.49l.3,1.25a8,8,0,0,1-3.19.59,4.46,4.46,0,0,1-4.72-4.83c0-2.89,1.71-5.17,4.5-5.17,3.13,0,4,2.75,4,4.51a6.64,6.64,0,0,1-.06.82Zm5.11-1.25c0-1.11-.46-2.83-2.42-2.83-1.76,0-2.53,1.62-2.67,2.83Zm5.78-6.56a1,1,0,0,1-1.11,1.07,1,1,0,0,1-1-1.07,1.07,1.07,0,0,1,1.09-1.09A1,1,0,0,1,1576.45,264.06Zm-1.94,12.28v-9.58h1.75v9.58Zm4.64-6.59c0-1.13,0-2.1-.08-3h1.52l.06,1.88h.08a2.88,2.88,0,0,1,2.66-2.1,1.88,1.88,0,0,1,.49.06v1.64a2.55,2.55,0,0,0-.59-.06,2.45,2.45,0,0,0-2.34,2.24,4.83,4.83,0,0,0-.08.81v5.11h-1.72Zm9.8,6.59c0-.65.08-1.62.08-2.47V262.28h1.73v6h0a3.56,3.56,0,0,1,3.26-1.76c2.38,0,4.07,2,4,4.89,0,3.43-2.16,5.13-4.3,5.13a3.42,3.42,0,0,1-3.21-1.8h-.06l-.08,1.58Zm1.81-3.84a3.19,3.19,0,0,0,.08.63,2.67,2.67,0,0,0,2.61,2c1.82,0,2.91-1.48,2.91-3.68,0-1.92-1-3.57-2.85-3.57a2.78,2.78,0,0,0-2.65,2.14,3.47,3.47,0,0,0-.1.72Zm17.57,1.23c0,1,0,1.86.08,2.61h-1.55l-.1-1.56h0a3.59,3.59,0,0,1-3.16,1.78c-1.51,0-3.31-.83-3.31-4.2v-5.6H1602v5.3c0,1.83.56,3.05,2.14,3.05a2.53,2.53,0,0,0,2.3-1.58,2.56,2.56,0,0,0,.16-.89v-5.88h1.74Zm2.66.83a4.5,4.5,0,0,0,2.29.69c1.27,0,1.87-.63,1.87-1.42s-.5-1.29-1.79-1.77c-1.72-.61-2.53-1.56-2.53-2.71,0-1.55,1.24-2.81,3.31-2.81a4.71,4.71,0,0,1,2.35.59l-.43,1.27a3.72,3.72,0,0,0-2-.56c-1,0-1.61.6-1.61,1.31s.58,1.15,1.82,1.63c1.67.63,2.52,1.46,2.52,2.89,0,1.68-1.31,2.87-3.59,2.87a5.51,5.51,0,0,1-2.69-.65Zm10-10.5a1.08,1.08,0,0,1-2.16,0,1.07,1.07,0,0,1,1.09-1.09A1,1,0,0,1,1621,264.06Zm-1.94,12.28v-9.58h1.74v9.58Zm4.63-7c0-1,0-1.8-.07-2.59h1.54l.1,1.58h0a3.51,3.51,0,0,1,3.17-1.8c1.33,0,3.38.79,3.38,4.08v5.72h-1.74v-5.52c0-1.55-.57-2.84-2.22-2.84a2.47,2.47,0,0,0-2.33,1.79,2.43,2.43,0,0,0-.12.81v5.76h-1.75Zm12,2.52a3.07,3.07,0,0,0,3.29,3.32,6.39,6.39,0,0,0,2.65-.49l.3,1.25a7.88,7.88,0,0,1-3.19.59c-3,0-4.71-1.94-4.71-4.83s1.7-5.17,4.49-5.17c3.13,0,4,2.75,4,4.51,0,.36,0,.64,0,.82Zm5.11-1.25c0-1.11-.45-2.83-2.42-2.83-1.76,0-2.53,1.62-2.67,2.83Zm3.61,3.94a4.5,4.5,0,0,0,2.3.69c1.26,0,1.86-.63,1.86-1.42s-.5-1.29-1.78-1.77c-1.73-.61-2.54-1.56-2.54-2.71,0-1.55,1.25-2.81,3.31-2.81a4.71,4.71,0,0,1,2.35.59l-.43,1.27a3.72,3.72,0,0,0-2-.56c-1,0-1.61.6-1.61,1.31s.58,1.15,1.83,1.63c1.66.63,2.51,1.46,2.51,2.89,0,1.68-1.31,2.87-3.58,2.87a5.58,5.58,0,0,1-2.7-.65Zm7.84,0a4.57,4.57,0,0,0,2.3.69c1.27,0,1.86-.63,1.86-1.42s-.49-1.29-1.78-1.77c-1.72-.61-2.53-1.56-2.53-2.71,0-1.55,1.24-2.81,3.3-2.81a4.75,4.75,0,0,1,2.36.59l-.44,1.27a3.66,3.66,0,0,0-2-.56c-1,0-1.6.6-1.6,1.31s.57,1.15,1.82,1.63c1.67.63,2.52,1.46,2.52,2.89,0,1.68-1.31,2.87-3.59,2.87a5.51,5.51,0,0,1-2.69-.65Zm9.06-2.69a3.07,3.07,0,0,0,3.29,3.32,6.43,6.43,0,0,0,2.65-.49l.3,1.25a8,8,0,0,1-3.19.59,4.46,4.46,0,0,1-4.72-4.83c0-2.89,1.71-5.17,4.5-5.17,3.13,0,4,2.75,4,4.51a6.64,6.64,0,0,1-.06.82Zm5.11-1.25c0-1.11-.46-2.83-2.42-2.83-1.76,0-2.53,1.62-2.67,2.83Zm3.61,3.94a4.5,4.5,0,0,0,2.29.69c1.27,0,1.86-.63,1.86-1.42s-.49-1.29-1.78-1.77c-1.72-.61-2.53-1.56-2.53-2.71,0-1.55,1.24-2.81,3.3-2.81a4.72,4.72,0,0,1,2.36.59l-.43,1.27a3.73,3.73,0,0,0-2-.56c-1,0-1.6.6-1.6,1.31s.58,1.15,1.82,1.63c1.67.63,2.52,1.46,2.52,2.89,0,1.68-1.31,2.87-3.59,2.87a5.51,5.51,0,0,1-2.69-.65Zm7.44.75a1.18,1.18,0,0,1,1.19-1.25,1.25,1.25,0,0,1,0,2.5A1.17,1.17,0,0,1,1677.45,275.31Zm9.6,1L1683.66,263h1.82l1.59,6.76c.39,1.66.75,3.32,1,4.61h0c.21-1.33.63-2.91,1.09-4.63L1691,263h1.8l1.63,6.78c.37,1.58.73,3.16.93,4.57h0c.27-1.46.65-2.95,1.06-4.61l1.77-6.74H1700l-3.78,13.35h-1.8l-1.69-6.95a41.8,41.8,0,0,1-.87-4.36h0a40.76,40.76,0,0,1-1,4.36l-1.9,6.95Zm14.84-4.47a3.06,3.06,0,0,0,3.28,3.32,6.48,6.48,0,0,0,2.66-.49l.3,1.25a8,8,0,0,1-3.19.59,4.46,4.46,0,0,1-4.72-4.83c0-2.89,1.71-5.17,4.5-5.17,3.13,0,4,2.75,4,4.51a6.64,6.64,0,0,1-.06.82Zm5.11-1.25c0-1.11-.46-2.83-2.42-2.83a2.88,2.88,0,0,0-2.67,2.83Zm7.17,5.72c0-.65.08-1.62.08-2.47V262.28H1716v6h0a3.58,3.58,0,0,1,3.27-1.76c2.38,0,4.06,2,4,4.89,0,3.43-2.16,5.13-4.3,5.13a3.44,3.44,0,0,1-3.21-1.8h0l-.08,1.58Zm1.8-3.84a3.19,3.19,0,0,0,.08.63,2.69,2.69,0,0,0,2.62,2c1.82,0,2.91-1.48,2.91-3.68,0-1.92-1-3.57-2.85-3.57a2.8,2.8,0,0,0-2.66,2.14,3.47,3.47,0,0,0-.1.72Zm10.52-.63a3.07,3.07,0,0,0,3.29,3.32,6.48,6.48,0,0,0,2.66-.49l.29,1.25a7.88,7.88,0,0,1-3.19.59c-3,0-4.71-1.94-4.71-4.83s1.7-5.17,4.5-5.17c3.12,0,4,2.75,4,4.51a6.64,6.64,0,0,1-.06.82Zm5.11-1.25c0-1.11-.45-2.83-2.41-2.83a2.89,2.89,0,0,0-2.68,2.83Zm3.85-8.34h1.74v14.06h-1.74Zm6.62,1.78a1.08,1.08,0,0,1-2.16,0A1.06,1.06,0,0,1,1741,263,1,1,0,0,1,1742.07,264.06Zm-2,12.28v-9.58h1.75v9.58Zm5.61-4.47a3.07,3.07,0,0,0,3.29,3.32,6.39,6.39,0,0,0,2.65-.49l.3,1.25a7.88,7.88,0,0,1-3.19.59c-3,0-4.71-1.94-4.71-4.83s1.7-5.17,4.49-5.17c3.13,0,4,2.75,4,4.51a6.64,6.64,0,0,1-.06.82Zm5.11-1.25c0-1.11-.45-2.83-2.42-2.83-1.76,0-2.53,1.62-2.67,2.83Zm4.52-3.86,1.88,5.38a22.11,22.11,0,0,1,.77,2.46h.06c.22-.79.5-1.59.82-2.46l1.86-5.38h1.82l-3.76,9.58h-1.67l-3.64-9.58Zm9.63,5.11a3.07,3.07,0,0,0,3.29,3.32,6.43,6.43,0,0,0,2.65-.49l.3,1.25a8,8,0,0,1-3.19.59,4.46,4.46,0,0,1-4.72-4.83c0-2.89,1.71-5.17,4.5-5.17,3.13,0,4,2.75,4,4.51a6.64,6.64,0,0,1-.06.82Zm5.11-1.25c0-1.11-.46-2.83-2.42-2.83-1.76,0-2.53,1.62-2.67,2.83Zm9.19-6.56a1,1,0,0,1-1.11,1.07,1,1,0,0,1-1-1.07,1.07,1.07,0,0,1,1.09-1.09A1,1,0,0,1,1779.29,264.06Zm-1.94,12.28v-9.58h1.74v9.58Zm4.64-7c0-1,0-1.8-.08-2.59h1.54l.1,1.58h0a3.54,3.54,0,0,1,3.17-1.8c1.33,0,3.39.79,3.39,4.08v5.72h-1.75v-5.52c0-1.55-.57-2.84-2.21-2.84a2.49,2.49,0,0,0-2.34,1.79,2.43,2.43,0,0,0-.12.81v5.76H1782Zm14.58,7v-8.26h-1.35v-1.32h1.35v-.52a3.84,3.84,0,0,1,4.18-4.18,4.73,4.73,0,0,1,2.43.64l-.49,1.32a3.66,3.66,0,0,0-2-.55c-1.84,0-2.38,1.28-2.38,2.81v.48h5.57v9.58h-1.73v-8.26h-3.84v8.26Zm10.18-7c0-1,0-1.8-.08-2.59h1.55l.1,1.58h0a3.51,3.51,0,0,1,3.17-1.8c1.32,0,3.38.79,3.38,4.08v5.72h-1.74v-5.52c0-1.55-.58-2.84-2.22-2.84a2.49,2.49,0,0,0-2.34,1.79,2.43,2.43,0,0,0-.12.81v5.76h-1.74Zm19.28-7.07v11.59c0,.85,0,1.82.08,2.47h-1.57l-.08-1.66h0a3.54,3.54,0,0,1-3.27,1.88c-2.31,0-4.1-2-4.1-4.87,0-3.19,2-5.15,4.3-5.15a3.19,3.19,0,0,1,2.89,1.46h0v-5.72Zm-1.75,8.38a3.11,3.11,0,0,0-.08-.74,2.56,2.56,0,0,0-2.51-2c-1.8,0-2.87,1.59-2.87,3.71,0,1.94,1,3.54,2.83,3.54a2.61,2.61,0,0,0,2.55-2.08,2.93,2.93,0,0,0,.08-.75Zm6.58-6.6a1,1,0,0,1-1.11,1.07,1,1,0,0,1-1-1.07,1.07,1.07,0,0,1,1.09-1.09A1,1,0,0,1,1830.86,264.06Zm-1.94,12.28v-9.58h1.74v9.58Zm4.64-7c0-1,0-1.8-.08-2.59H1835l.1,1.58h0a3.54,3.54,0,0,1,3.17-1.8c1.33,0,3.39.79,3.39,4.08v5.72H1840v-5.52c0-1.55-.57-2.84-2.21-2.84a2.49,2.49,0,0,0-2.34,1.79,2.43,2.43,0,0,0-.12.81v5.76h-1.74Zm19.25-2.59c0,.69-.08,1.46-.08,2.63V275c0,2.2-.43,3.55-1.36,4.38a5.1,5.1,0,0,1-3.49,1.15,6.23,6.23,0,0,1-3.19-.79l.44-1.33a5.35,5.35,0,0,0,2.81.75c1.78,0,3.09-.93,3.09-3.34V274.7h0a3.42,3.42,0,0,1-3,1.6c-2.38,0-4.08-2-4.08-4.67,0-3.25,2.12-5.09,4.32-5.09a3.2,3.2,0,0,1,3,1.66h0l.08-1.44Zm-1.8,3.78a2.41,2.41,0,0,0-.1-.79,2.52,2.52,0,0,0-2.44-1.85c-1.66,0-2.85,1.41-2.85,3.63,0,1.88,1,3.44,2.83,3.44a2.55,2.55,0,0,0,2.42-1.78,3,3,0,0,0,.14-.93Zm9,1.33a3.06,3.06,0,0,0,3.28,3.32,6.48,6.48,0,0,0,2.66-.49l.29,1.25a7.86,7.86,0,0,1-3.18.59c-3,0-4.72-1.94-4.72-4.83s1.71-5.17,4.5-5.17c3.13,0,4,2.75,4,4.51a6.64,6.64,0,0,1-.06.82Zm5.11-1.25c0-1.11-.46-2.83-2.42-2.83a2.88,2.88,0,0,0-2.67,2.83Zm4.52-3.86,1.88,5.38c.31.87.57,1.67.77,2.46h.06c.22-.79.49-1.59.81-2.46l1.86-5.38h1.82l-3.76,9.58h-1.66l-3.65-9.58Zm9.62,5.11a3.07,3.07,0,0,0,3.29,3.32,6.39,6.39,0,0,0,2.65-.49l.3,1.25a7.88,7.88,0,0,1-3.19.59c-3,0-4.71-1.94-4.71-4.83s1.7-5.17,4.49-5.17c3.13,0,4,2.75,4,4.51a7.09,7.09,0,0,1,0,.82Zm5.11-1.25c0-1.11-.45-2.83-2.41-2.83a2.89,2.89,0,0,0-2.68,2.83Zm3.85-.87c0-1.13,0-2.1-.08-3h1.52l.06,1.88h.08a2.88,2.88,0,0,1,2.66-2.1,1.88,1.88,0,0,1,.49.06v1.64a2.61,2.61,0,0,0-.59-.06,2.45,2.45,0,0,0-2.34,2.24,4.83,4.83,0,0,0-.08.81v5.11h-1.72Zm7.6-3,2.1,5.66c.22.63.46,1.39.62,2h0c.18-.57.37-1.31.61-2l1.9-5.62h1.84l-2.61,6.83c-1.25,3.29-2.1,5-3.29,6a4.74,4.74,0,0,1-2.14,1.13l-.43-1.47a4.54,4.54,0,0,0,1.52-.85,5.32,5.32,0,0,0,1.47-1.94,1.26,1.26,0,0,0,.14-.42,1.57,1.57,0,0,0-.12-.45l-3.55-8.83Zm12,9.58c0-.65.08-1.62.08-2.47V262.28h1.72v6h0a3.58,3.58,0,0,1,3.27-1.76c2.38,0,4.06,2,4,4.89,0,3.43-2.16,5.13-4.3,5.13a3.44,3.44,0,0,1-3.21-1.8h0l-.08,1.58Zm1.8-3.84a3.19,3.19,0,0,0,.08.63,2.69,2.69,0,0,0,2.62,2c1.82,0,2.91-1.48,2.91-3.68,0-1.92-1-3.57-2.85-3.57a2.8,2.8,0,0,0-2.66,2.14,3.47,3.47,0,0,0-.1.72Zm9.55-10.22H1921v14.06h-1.75Zm13.35,9.19c0,3.54-2.45,5.09-4.77,5.09-2.59,0-4.59-1.9-4.59-4.93,0-3.21,2.09-5.09,4.75-5.09S1932.55,268.54,1932.55,271.47Zm-7.6.1c0,2.1,1.21,3.68,2.91,3.68s2.91-1.56,2.91-3.72c0-1.63-.81-3.69-2.87-3.69S1925,269.75,1925,271.57Zm16.64,4.41a6.4,6.4,0,0,1-2.75.56,4.55,4.55,0,0,1-4.78-4.89,4.87,4.87,0,0,1,5.15-5.09,5.84,5.84,0,0,1,2.42.49l-.4,1.35a4,4,0,0,0-2-.46,3.32,3.32,0,0,0-3.39,3.63,3.28,3.28,0,0,0,3.33,3.58,4.92,4.92,0,0,0,2.14-.47Zm3.76-4.83h0c.24-.33.58-.75.86-1.09l2.81-3.3h2.1l-3.71,3.94,4.22,5.64h-2.12l-3.3-4.59-.9,1v3.6h-1.72V262.28h1.72Zm14.41,4.83a6.41,6.41,0,0,1-2.76.56,4.55,4.55,0,0,1-4.77-4.89,4.87,4.87,0,0,1,5.15-5.09,5.84,5.84,0,0,1,2.42.49l-.4,1.35a4,4,0,0,0-2-.46,3.32,3.32,0,0,0-3.39,3.63,3.28,3.28,0,0,0,3.33,3.58,5,5,0,0,0,2.14-.47Zm2-13.7h1.74v6h0a3.28,3.28,0,0,1,1.25-1.23,3.64,3.64,0,0,1,1.78-.49c1.29,0,3.35.79,3.35,4.1v5.7h-1.74v-5.5c0-1.55-.58-2.86-2.22-2.86a2.52,2.52,0,0,0-2.34,1.75,2.05,2.05,0,0,0-.12.83v5.78h-1.74Zm16.3,14.06-.14-1.21h-.06a3.54,3.54,0,0,1-2.93,1.43,2.73,2.73,0,0,1-2.93-2.75c0-2.32,2.06-3.59,5.76-3.57V270a2,2,0,0,0-2.17-2.22,4.73,4.73,0,0,0-2.5.72l-.4-1.15a6,6,0,0,1,3.15-.85c2.93,0,3.65,2,3.65,3.92V274a13.31,13.31,0,0,0,.16,2.3Zm-.26-4.89c-1.9,0-4.06.3-4.06,2.16a1.54,1.54,0,0,0,1.65,1.66,2.39,2.39,0,0,0,2.32-1.6,2.18,2.18,0,0,0,.09-.56Zm6.44-7.39a1.08,1.08,0,0,1-2.15,0,1.06,1.06,0,0,1,1.08-1.09A1,1,0,0,1,1984.28,264.06Zm-1.94,12.28v-9.58h1.75v9.58Zm4.64-7c0-1,0-1.8-.08-2.59h1.54l.1,1.58h0a3.54,3.54,0,0,1,3.17-1.8c1.33,0,3.39.79,3.39,4.08v5.72h-1.74v-5.52c0-1.55-.58-2.84-2.22-2.84a2.49,2.49,0,0,0-2.34,1.79,2.43,2.43,0,0,0-.12.81v5.76H1987Zm14.16,5.21a4.57,4.57,0,0,0,2.3.69c1.27,0,1.86-.63,1.86-1.42s-.49-1.29-1.78-1.77c-1.72-.61-2.53-1.56-2.53-2.71,0-1.55,1.24-2.81,3.3-2.81a4.75,4.75,0,0,1,2.36.59l-.44,1.27a3.66,3.66,0,0,0-2-.56c-1,0-1.6.6-1.6,1.31s.57,1.15,1.82,1.63c1.67.63,2.52,1.46,2.52,2.89,0,1.68-1.31,2.87-3.59,2.87a5.51,5.51,0,0,1-2.69-.65Zm16.76-3.09c0,3.54-2.45,5.09-4.77,5.09-2.6,0-4.6-1.9-4.6-4.93,0-3.21,2.1-5.09,4.76-5.09S2017.9,268.54,2017.9,271.47Zm-7.6.1c0,2.1,1.21,3.68,2.91,3.68s2.91-1.56,2.91-3.72c0-1.63-.81-3.69-2.87-3.69S2010.3,269.75,2010.3,271.57Zm9.8-9.29h1.75v14.06h-1.75Zm12.7,11.45c0,1,0,1.86.08,2.61h-1.54l-.1-1.56h0a3.62,3.62,0,0,1-3.17,1.78c-1.51,0-3.31-.83-3.31-4.2v-5.6h1.74v5.3c0,1.83.56,3.05,2.14,3.05a2.53,2.53,0,0,0,2.3-1.58,2.56,2.56,0,0,0,.16-.89v-5.88h1.74Zm5-9.73v2.76h2.49v1.32h-2.49v5.17c0,1.19.33,1.86,1.3,1.86a3.77,3.77,0,0,0,1-.12l.08,1.31a4.19,4.19,0,0,1-1.54.24,2.42,2.42,0,0,1-1.88-.73,3.55,3.55,0,0,1-.68-2.5v-5.23h-1.48v-1.32h1.48v-2.3Zm6.39.06a1.08,1.08,0,0,1-2.15,0,1.06,1.06,0,0,1,1.09-1.09A1,1,0,0,1,2044.19,264.06Zm-1.94,12.28v-9.58H2044v9.58Zm13.31-4.87c0,3.54-2.45,5.09-4.77,5.09-2.59,0-4.59-1.9-4.59-4.93,0-3.21,2.1-5.09,4.75-5.09S2055.56,268.54,2055.56,271.47Zm-7.6.1c0,2.1,1.21,3.68,2.91,3.68s2.91-1.56,2.91-3.72c0-1.63-.81-3.69-2.87-3.69S2048,269.75,2048,271.57Zm9.81-2.22c0-1,0-1.8-.08-2.59h1.54l.1,1.58h0a3.54,3.54,0,0,1,3.17-1.8c1.33,0,3.39.79,3.39,4.08v5.72h-1.75v-5.52c0-1.55-.57-2.84-2.21-2.84a2.49,2.49,0,0,0-2.34,1.79,2.43,2.43,0,0,0-.12.81v5.76h-1.74Z"
  /><path
    class="cls-31"
    d="M713.21,293.12c0-1,0-1.8-.08-2.59h1.55l.09,1.58h0a3.54,3.54,0,0,1,3.17-1.8c1.33,0,3.39.79,3.39,4.08v5.73h-1.74v-5.53c0-1.54-.58-2.83-2.22-2.83a2.48,2.48,0,0,0-2.34,1.78,2.51,2.51,0,0,0-.12.81v5.77h-1.74Zm19.67,2.12c0,3.55-2.46,5.09-4.77,5.09-2.6,0-4.6-1.9-4.6-4.93,0-3.21,2.1-5.09,4.76-5.09S732.88,292.31,732.88,295.24Zm-7.6.1c0,2.1,1.2,3.69,2.91,3.69s2.91-1.57,2.91-3.73c0-1.62-.81-3.68-2.87-3.68S725.28,293.52,725.28,295.34Zm13.57-2.22c0-1,0-1.8-.07-2.59h1.52l.08,1.54h.06a3.29,3.29,0,0,1,3-1.76,2.82,2.82,0,0,1,2.71,1.92h0a4,4,0,0,1,1.07-1.24,3.27,3.27,0,0,1,2.12-.68c1.27,0,3.15.83,3.15,4.16v5.65h-1.7v-5.43c0-1.84-.68-2.95-2.08-2.95a2.25,2.25,0,0,0-2.06,1.58,2.88,2.88,0,0,0-.14.87v5.93h-1.7v-5.75c0-1.52-.68-2.63-2-2.63a2.37,2.37,0,0,0-2.16,1.74,2.41,2.41,0,0,0-.14.85v5.79h-1.71Zm21.84,7-.14-1.21h-.06a3.59,3.59,0,0,1-2.93,1.42,2.73,2.73,0,0,1-2.93-2.75c0-2.32,2-3.58,5.76-3.56v-.2a2,2,0,0,0-2.18-2.22,4.87,4.87,0,0,0-2.5.71l-.39-1.15a6,6,0,0,1,3.15-.85c2.93,0,3.64,2,3.64,3.92v3.59a13.46,13.46,0,0,0,.16,2.3Zm-.26-4.9c-1.9,0-4.06.3-4.06,2.16a1.54,1.54,0,0,0,1.64,1.67,2.4,2.4,0,0,0,2.32-1.61,1.78,1.78,0,0,0,.1-.55Zm6.52-7.44v2.75h2.49v1.33H767V297c0,1.18.33,1.86,1.3,1.86a3.77,3.77,0,0,0,1-.12l.08,1.31a4.45,4.45,0,0,1-1.54.23,2.39,2.39,0,0,1-1.88-.73,3.52,3.52,0,0,1-.68-2.49v-5.23h-1.48v-1.33h1.48v-2.3Zm6.55,0v2.75H776v1.33h-2.5V297c0,1.18.34,1.86,1.31,1.86a3.83,3.83,0,0,0,1-.12l.08,1.31a4.49,4.49,0,0,1-1.54.23,2.41,2.41,0,0,1-1.89-.73,3.57,3.57,0,0,1-.67-2.49v-5.23h-1.48v-1.33h1.48v-2.3Zm5.31,7.86A3.07,3.07,0,0,0,782.1,299a6.3,6.3,0,0,0,2.66-.5l.29,1.25a7.71,7.71,0,0,1-3.19.59c-3,0-4.71-1.94-4.71-4.83s1.7-5.17,4.5-5.17c3.13,0,4,2.75,4,4.52a6.61,6.61,0,0,1-.06.81Zm5.11-1.25c0-1.11-.45-2.83-2.41-2.83a2.89,2.89,0,0,0-2.68,2.83Zm3.85-.87c0-1.13,0-2.1-.08-3h1.53l.06,1.88h.07a2.88,2.88,0,0,1,2.66-2.1,1.77,1.77,0,0,1,.49.06V292a2.49,2.49,0,0,0-.59-.06,2.45,2.45,0,0,0-2.34,2.23,5,5,0,0,0-.08.82v5.11h-1.72ZM798,286.05h1.74v6h0a3.26,3.26,0,0,1,1.25-1.22,3.58,3.58,0,0,1,1.78-.5c1.29,0,3.35.79,3.35,4.1v5.71h-1.74v-5.51c0-1.55-.58-2.85-2.22-2.85a2.51,2.51,0,0,0-2.34,1.74,2.11,2.11,0,0,0-.12.83v5.79H798Zm19.67,9.19c0,3.55-2.45,5.09-4.77,5.09-2.6,0-4.6-1.9-4.6-4.93,0-3.21,2.1-5.09,4.76-5.09S817.69,292.31,817.69,295.24Zm-7.6.1c0,2.1,1.2,3.69,2.91,3.69s2.91-1.57,2.91-3.73c0-1.62-.81-3.68-2.87-3.68S810.09,293.52,810.09,295.34Zm10.36-4.81,1.27,4.87c.27,1.07.53,2.06.71,3.05h.06c.22-1,.53-2,.85-3l1.57-4.89h1.46l1.49,4.79c.35,1.15.63,2.16.85,3.13h.06a28.5,28.5,0,0,1,.73-3.11l1.37-4.81h1.72l-3.09,9.59h-1.58l-1.47-4.58a31.65,31.65,0,0,1-.85-3.15h0a30.39,30.39,0,0,1-.87,3.17l-1.55,4.56h-1.58l-2.89-9.59Zm24.49,9.23a6.35,6.35,0,0,1-2.75.55,4.55,4.55,0,0,1-4.77-4.89,4.87,4.87,0,0,1,5.15-5.09,5.72,5.72,0,0,1,2.41.5l-.39,1.34a4.15,4.15,0,0,0-2-.45,3.61,3.61,0,0,0-.06,7.21,4.94,4.94,0,0,0,2.14-.48Zm2-13.71h1.74v6h0a3.19,3.19,0,0,1,1.25-1.22,3.55,3.55,0,0,1,1.78-.5c1.29,0,3.35.79,3.35,4.1v5.71H853.4v-5.51c0-1.55-.57-2.85-2.22-2.85a2.5,2.5,0,0,0-2.33,1.74,2.11,2.11,0,0,0-.12.83v5.79H847Zm16.3,14.07-.14-1.21h-.06a3.56,3.56,0,0,1-2.93,1.42,2.73,2.73,0,0,1-2.93-2.75c0-2.32,2.06-3.58,5.76-3.56v-.2a2,2,0,0,0-2.18-2.22,4.8,4.8,0,0,0-2.49.71l-.4-1.15a6,6,0,0,1,3.15-.85c2.93,0,3.65,2,3.65,3.92v3.59a14.64,14.64,0,0,0,.15,2.3Zm-.26-4.9c-1.9,0-4.06.3-4.06,2.16a1.55,1.55,0,0,0,1.65,1.67,2.38,2.38,0,0,0,2.31-1.61,1.78,1.78,0,0,0,.1-.55Zm4.5-9.17h1.74v14.07h-1.74Zm4.68,0H874v14.07h-1.74Zm5.64,9.59a3.07,3.07,0,0,0,3.29,3.33,6.21,6.21,0,0,0,2.65-.5l.3,1.25a7.71,7.71,0,0,1-3.19.59c-2.95,0-4.71-1.94-4.71-4.83s1.7-5.17,4.49-5.17c3.13,0,4,2.75,4,4.52a6.61,6.61,0,0,1-.06.81Zm5.11-1.25c0-1.11-.45-2.83-2.41-2.83a2.89,2.89,0,0,0-2.68,2.83Zm3.85-1.27c0-1,0-1.8-.08-2.59h1.54l.1,1.58h0a3.54,3.54,0,0,1,3.17-1.8c1.33,0,3.39.79,3.39,4.08v5.73h-1.75v-5.53c0-1.54-.57-2.83-2.21-2.83a2.48,2.48,0,0,0-2.34,1.78,2.51,2.51,0,0,0-.12.81v5.77h-1.74Zm19.25-2.59c0,.69-.08,1.47-.08,2.63v5.57c0,2.2-.43,3.54-1.36,4.38a5.1,5.1,0,0,1-3.49,1.15,6.14,6.14,0,0,1-3.19-.8l.44-1.32a5.44,5.44,0,0,0,2.81.75c1.78,0,3.09-.93,3.09-3.35v-1.07h0a3.42,3.42,0,0,1-3,1.61c-2.38,0-4.08-2-4.08-4.68,0-3.25,2.12-5.09,4.32-5.09a3.19,3.19,0,0,1,3,1.67h0l.08-1.45Zm-1.8,3.78a2.48,2.48,0,0,0-.1-.79,2.51,2.51,0,0,0-2.44-1.84c-1.66,0-2.85,1.4-2.85,3.62,0,1.88,1,3.45,2.84,3.45a2.55,2.55,0,0,0,2.41-1.78,3,3,0,0,0,.14-.93Zm6.44-6.47a1.08,1.08,0,0,1-2.16,0,1.06,1.06,0,0,1,1.09-1.09A1,1,0,0,1,910.7,287.84Zm-1.94,12.28v-9.59h1.74v9.59Zm4.63-7c0-1,0-1.8-.08-2.59h1.55l.1,1.58h0a3.51,3.51,0,0,1,3.17-1.8c1.32,0,3.38.79,3.38,4.08v5.73h-1.74v-5.53c0-1.54-.57-2.83-2.22-2.83a2.46,2.46,0,0,0-2.33,1.78,2.51,2.51,0,0,0-.12.81v5.77h-1.75Zm19.26-2.59c0,.69-.08,1.47-.08,2.63v5.57c0,2.2-.44,3.54-1.37,4.38a5.09,5.09,0,0,1-3.48,1.15,6.14,6.14,0,0,1-3.19-.8l.43-1.32a5.51,5.51,0,0,0,2.82.75c1.78,0,3.09-.93,3.09-3.35v-1.07h0a3.44,3.44,0,0,1-3.05,1.61c-2.38,0-4.08-2-4.08-4.68,0-3.25,2.11-5.09,4.31-5.09a3.16,3.16,0,0,1,3,1.67h0l.08-1.45Zm-1.8,3.78a2.48,2.48,0,0,0-.1-.79,2.51,2.51,0,0,0-2.44-1.84c-1.66,0-2.85,1.4-2.85,3.62,0,1.88.95,3.45,2.83,3.45a2.55,2.55,0,0,0,2.42-1.78,3,3,0,0,0,.14-.93Zm13.7,5.81-.14-1.21h-.06a3.59,3.59,0,0,1-2.93,1.42,2.73,2.73,0,0,1-2.93-2.75c0-2.32,2.06-3.58,5.76-3.56v-.2a2,2,0,0,0-2.18-2.22,4.87,4.87,0,0,0-2.5.71l-.39-1.15a6,6,0,0,1,3.15-.85c2.93,0,3.64,2,3.64,3.92v3.59a13.46,13.46,0,0,0,.16,2.3Zm-.26-4.9c-1.9,0-4.06.3-4.06,2.16a1.54,1.54,0,0,0,1.64,1.67,2.4,2.4,0,0,0,2.32-1.61,1.78,1.78,0,0,0,.1-.55Zm4.5-2.1c0-1,0-1.8-.08-2.59h1.54l.1,1.58h0a3.54,3.54,0,0,1,3.17-1.8c1.33,0,3.39.79,3.39,4.08v5.73H955.2v-5.53c0-1.54-.57-2.83-2.21-2.83a2.48,2.48,0,0,0-2.34,1.78,2.51,2.51,0,0,0-.12.81v5.77h-1.74Zm19.27-7.07v11.59c0,.85,0,1.82.08,2.48h-1.56l-.08-1.67h0a3.56,3.56,0,0,1-3.27,1.88c-2.32,0-4.1-2-4.1-4.87,0-3.19,2-5.15,4.3-5.15a3.22,3.22,0,0,1,2.89,1.47h0v-5.73Zm-1.74,8.38a3,3,0,0,0-.08-.73,2.57,2.57,0,0,0-2.52-2c-1.8,0-2.87,1.58-2.87,3.7,0,1.94.95,3.55,2.83,3.55a2.63,2.63,0,0,0,2.56-2.08,3,3,0,0,0,.08-.75Zm15.24,5.33a6.35,6.35,0,0,1-2.75.55,4.55,4.55,0,0,1-4.77-4.89,4.87,4.87,0,0,1,5.15-5.09,5.72,5.72,0,0,1,2.41.5l-.39,1.34a4.15,4.15,0,0,0-2-.45,3.61,3.61,0,0,0-.06,7.21,4.94,4.94,0,0,0,2.14-.48Zm2.05-6.24c0-1.13,0-2.1-.08-3h1.52l.06,1.88h.08a2.88,2.88,0,0,1,2.66-2.1,1.88,1.88,0,0,1,.49.06V292a2.61,2.61,0,0,0-.59-.06,2.45,2.45,0,0,0-2.34,2.23,5,5,0,0,0-.08.82v5.11h-1.72Zm7.25,2.12a3.07,3.07,0,0,0,3.29,3.33,6.24,6.24,0,0,0,2.65-.5l.3,1.25a7.78,7.78,0,0,1-3.19.59,4.46,4.46,0,0,1-4.72-4.83c0-2.89,1.71-5.17,4.5-5.17,3.13,0,4,2.75,4,4.52a6.61,6.61,0,0,1-.06.81Zm5.11-1.25c0-1.11-.46-2.83-2.42-2.83-1.76,0-2.53,1.62-2.67,2.83Zm9.15,5.73-.14-1.21h-.06a3.56,3.56,0,0,1-2.93,1.42,2.73,2.73,0,0,1-2.93-2.75c0-2.32,2.06-3.58,5.76-3.56v-.2a2,2,0,0,0-2.17-2.22,4.81,4.81,0,0,0-2.5.71l-.4-1.15a6,6,0,0,1,3.15-.85c2.93,0,3.65,2,3.65,3.92v3.59a13.46,13.46,0,0,0,.16,2.3Zm-.26-4.9c-1.9,0-4.06.3-4.06,2.16a1.55,1.55,0,0,0,1.65,1.67,2.38,2.38,0,0,0,2.31-1.61,1.78,1.78,0,0,0,.1-.55Zm6.52-7.44v2.75h2.5v1.33h-2.5V297c0,1.18.34,1.86,1.31,1.86a3.83,3.83,0,0,0,1-.12l.08,1.31a4.51,4.51,0,0,1-1.55.23,2.4,2.4,0,0,1-1.88-.73,3.57,3.57,0,0,1-.67-2.49v-5.23h-1.49v-1.33h1.49v-2.3Zm6.4.06a1,1,0,0,1-1.11,1.07,1,1,0,0,1-1-1.07,1.06,1.06,0,0,1,1.09-1.09A1,1,0,0,1,1017.78,287.84Zm-1.94,12.28v-9.59h1.74v9.59Zm5.31-9.59,1.88,5.39a22,22,0,0,1,.77,2.45h.06c.22-.79.5-1.58.82-2.45l1.86-5.39h1.82l-3.76,9.59h-1.67l-3.64-9.59Zm9.63,5.11a3.07,3.07,0,0,0,3.29,3.33,6.24,6.24,0,0,0,2.65-.5l.3,1.25a7.78,7.78,0,0,1-3.19.59,4.46,4.46,0,0,1-4.72-4.83c0-2.89,1.71-5.17,4.5-5.17,3.13,0,4,2.75,4,4.52a6.61,6.61,0,0,1-.06.81Zm5.11-1.25c0-1.11-.46-2.83-2.42-2.83-1.76,0-2.53,1.62-2.67,2.83Zm9.72-6.61v2.75h2.49v1.33h-2.49V297c0,1.18.33,1.86,1.3,1.86a3.77,3.77,0,0,0,1-.12l.08,1.31a4.45,4.45,0,0,1-1.54.23,2.39,2.39,0,0,1-1.88-.73,3.52,3.52,0,0,1-.68-2.49v-5.23h-1.48v-1.33h1.48v-2.3Zm4.45-1.73h1.75v6h0a3.16,3.16,0,0,1,1.24-1.22,3.58,3.58,0,0,1,1.79-.5c1.28,0,3.34.79,3.34,4.1v5.71h-1.74v-5.51c0-1.55-.57-2.85-2.22-2.85a2.49,2.49,0,0,0-2.33,1.74,2.11,2.11,0,0,0-.12.83v5.79h-1.75Zm12,9.59a3.07,3.07,0,0,0,3.29,3.33,6.21,6.21,0,0,0,2.65-.5l.3,1.25a7.71,7.71,0,0,1-3.19.59c-2.95,0-4.71-1.94-4.71-4.83s1.7-5.17,4.49-5.17c3.13,0,4,2.75,4,4.52a6.61,6.61,0,0,1-.06.81Zm5.11-1.25c0-1.11-.46-2.83-2.42-2.83-1.76,0-2.53,1.62-2.67,2.83Zm4.48-3.86,2.1,5.66c.22.64.45,1.39.61,2h0c.18-.57.38-1.3.62-2l1.9-5.62h1.84l-2.61,6.83c-1.25,3.29-2.1,5-3.29,6a4.68,4.68,0,0,1-2.14,1.13l-.44-1.46a4.76,4.76,0,0,0,1.53-.85,5.27,5.27,0,0,0,1.46-1.95,1.16,1.16,0,0,0,.14-.41,1.53,1.53,0,0,0-.12-.46l-3.54-8.83Zm17.78,9.59-.14-1.21h-.06a3.59,3.59,0,0,1-2.93,1.42,2.73,2.73,0,0,1-2.93-2.75c0-2.32,2.06-3.58,5.76-3.56v-.2a2,2,0,0,0-2.18-2.22,4.8,4.8,0,0,0-2.49.71l-.4-1.15a6,6,0,0,1,3.15-.85c2.93,0,3.64,2,3.64,3.92v3.59a13.46,13.46,0,0,0,.16,2.3Zm-.26-4.9c-1.9,0-4.06.3-4.06,2.16a1.54,1.54,0,0,0,1.64,1.67,2.4,2.4,0,0,0,2.32-1.61,1.78,1.78,0,0,0,.1-.55Zm4.5-1.7c0-1.13,0-2.1-.08-3h1.52l.06,1.88h.08a2.88,2.88,0,0,1,2.66-2.1,1.88,1.88,0,0,1,.49.06V292a2.55,2.55,0,0,0-.59-.06,2.45,2.45,0,0,0-2.34,2.23,5,5,0,0,0-.08.82v5.11h-1.72Zm7.25,2.12a3.07,3.07,0,0,0,3.29,3.33,6.24,6.24,0,0,0,2.65-.5l.3,1.25a7.78,7.78,0,0,1-3.19.59c-3,0-4.71-1.94-4.71-4.83s1.7-5.17,4.49-5.17c3.13,0,4,2.75,4,4.52a6.61,6.61,0,0,1-.06.81Zm5.11-1.25c0-1.11-.46-2.83-2.42-2.83-1.76,0-2.53,1.62-2.67,2.83Zm3.19,4.7a1.17,1.17,0,0,1,1.19-1.25,1.25,1.25,0,1,1-1.19,1.25ZM1129,293.3c0,4.6-2.79,7-6.2,7s-6-2.73-6-6.77c0-4.24,2.63-7,6.2-7S1129,289.34,1129,293.3Zm-10.36.22c0,2.85,1.54,5.41,4.26,5.41s4.28-2.52,4.28-5.55c0-2.65-1.39-5.43-4.26-5.43S1118.59,290.59,1118.59,293.52Zm20.62,4c0,1,0,1.86.08,2.62h-1.54l-.1-1.57h0a3.62,3.62,0,0,1-3.17,1.78c-1.51,0-3.31-.83-3.31-4.2v-5.6h1.74v5.31c0,1.82.56,3.05,2.14,3.05a2.52,2.52,0,0,0,2.3-1.59,2.48,2.48,0,0,0,.16-.89v-5.88h1.74Zm2.9-4c0-1.13,0-2.1-.08-3h1.52l.06,1.88h.08a2.88,2.88,0,0,1,2.65-2.1,1.9,1.9,0,0,1,.5.06V292a2.61,2.61,0,0,0-.59-.06,2.45,2.45,0,0,0-2.34,2.23,5,5,0,0,0-.08.82v5.11h-1.72Zm12.35-5.74v2.75H1157v1.33h-2.49V297c0,1.18.33,1.86,1.3,1.86a3.77,3.77,0,0,0,1-.12l.08,1.31a4.45,4.45,0,0,1-1.54.23,2.39,2.39,0,0,1-1.88-.73,3.52,3.52,0,0,1-.68-2.49v-5.23h-1.48v-1.33h1.48v-2.3Zm5.31,7.86a3.07,3.07,0,0,0,3.28,3.33,6.3,6.3,0,0,0,2.66-.5l.3,1.25a7.78,7.78,0,0,1-3.19.59,4.46,4.46,0,0,1-4.72-4.83c0-2.89,1.71-5.17,4.5-5.17,3.13,0,4,2.75,4,4.52a6.61,6.61,0,0,1-.06.81Zm5.11-1.25c0-1.11-.46-2.83-2.42-2.83a2.88,2.88,0,0,0-2.67,2.83Zm9.15,5.73-.14-1.21h-.06a3.56,3.56,0,0,1-2.93,1.42,2.73,2.73,0,0,1-2.93-2.75c0-2.32,2.06-3.58,5.76-3.56v-.2a2,2,0,0,0-2.18-2.22,4.8,4.8,0,0,0-2.49.71l-.4-1.15a6,6,0,0,1,3.15-.85c2.93,0,3.65,2,3.65,3.92v3.59a14.64,14.64,0,0,0,.15,2.3Zm-.26-4.9c-1.9,0-4.06.3-4.06,2.16a1.55,1.55,0,0,0,1.65,1.67,2.38,2.38,0,0,0,2.31-1.61,1.78,1.78,0,0,0,.1-.55Zm4.5-2.1c0-1,0-1.8-.08-2.59h1.53l.08,1.54h.06a3.29,3.29,0,0,1,3-1.76,2.84,2.84,0,0,1,2.71,1.92h0a3.88,3.88,0,0,1,1.07-1.24,3.25,3.25,0,0,1,2.12-.68c1.27,0,3.15.83,3.15,4.16v5.65h-1.71v-5.43c0-1.84-.67-2.95-2.08-2.95a2.26,2.26,0,0,0-2.06,1.58,3.25,3.25,0,0,0-.13.87v5.93h-1.71v-5.75c0-1.52-.67-2.63-2-2.63a2.6,2.6,0,0,0-2.3,2.59v5.79h-1.7Zm22.24-5.28a1.08,1.08,0,0,1-2.16,0,1.06,1.06,0,0,1,1.09-1.09A1,1,0,0,1,1200.51,287.84Zm-1.94,12.28v-9.59h1.74v9.59Zm4.39-1.79a4.57,4.57,0,0,0,2.3.7c1.27,0,1.86-.64,1.86-1.43s-.49-1.29-1.78-1.76c-1.72-.62-2.53-1.57-2.53-2.72,0-1.54,1.24-2.81,3.3-2.81a4.75,4.75,0,0,1,2.36.6l-.43,1.26a3.83,3.83,0,0,0-2-.55c-1,0-1.6.59-1.6,1.31s.57,1.14,1.82,1.62c1.67.63,2.52,1.47,2.52,2.89,0,1.69-1.31,2.87-3.59,2.87a5.4,5.4,0,0,1-2.69-.65Zm12,1.79v-8.26h-1.35v-1.33H1215v-.46a4.52,4.52,0,0,1,1.11-3.34,3.29,3.29,0,0,1,2.34-.89,4,4,0,0,1,1.48.27l-.24,1.35a2.53,2.53,0,0,0-1.1-.22c-1.49,0-1.87,1.31-1.87,2.77v.52H1219v1.33h-2.32v8.26Zm13.63-2.62c0,1,0,1.86.08,2.62h-1.55l-.1-1.57h0a3.59,3.59,0,0,1-3.16,1.78c-1.51,0-3.31-.83-3.31-4.2v-5.6h1.74v5.31c0,1.82.56,3.05,2.14,3.05a2.52,2.52,0,0,0,2.3-1.59,2.48,2.48,0,0,0,.16-.89v-5.88h1.74Zm2.89-11.45h1.75v14.07h-1.75Zm4.68,0h1.74v14.07h-1.74Zm5.31,4.48,2.1,5.66c.22.64.45,1.39.61,2h0c.18-.57.38-1.3.62-2l1.9-5.62h1.84l-2.62,6.83c-1.24,3.29-2.09,5-3.28,6a4.68,4.68,0,0,1-2.14,1.13l-.44-1.46a4.76,4.76,0,0,0,1.53-.85,5.27,5.27,0,0,0,1.46-1.95,1.16,1.16,0,0,0,.14-.41,1.53,1.53,0,0,0-.12-.46l-3.54-8.83Zm14.41-2.69a1,1,0,0,1-1.11,1.07,1,1,0,0,1-1-1.07,1.06,1.06,0,0,1,1.09-1.09A1,1,0,0,1,1255.92,287.84ZM1254,300.12v-9.59h1.74v9.59Zm4.64-7c0-1,0-1.8-.08-2.59h1.54l.1,1.58h0a3.54,3.54,0,0,1,3.17-1.8c1.33,0,3.39.79,3.39,4.08v5.73H1265v-5.53c0-1.54-.57-2.83-2.21-2.83a2.48,2.48,0,0,0-2.34,1.78,2.51,2.51,0,0,0-.12.81v5.77h-1.74Zm11.41-2.59,1.88,5.39a24.29,24.29,0,0,1,.77,2.45h.06c.22-.79.5-1.58.81-2.45l1.86-5.39h1.83l-3.77,9.59h-1.66l-3.64-9.59Zm9.63,5.11a3.07,3.07,0,0,0,3.28,3.33,6.3,6.3,0,0,0,2.66-.5l.3,1.25a7.78,7.78,0,0,1-3.19.59,4.46,4.46,0,0,1-4.72-4.83c0-2.89,1.71-5.17,4.5-5.17,3.13,0,4,2.75,4,4.52a6.61,6.61,0,0,1-.06.81Zm5.11-1.25c0-1.11-.46-2.83-2.42-2.83a2.88,2.88,0,0,0-2.67,2.83Zm3.6,3.94a4.57,4.57,0,0,0,2.3.7c1.27,0,1.86-.64,1.86-1.43s-.49-1.29-1.78-1.76c-1.72-.62-2.53-1.57-2.53-2.72,0-1.54,1.24-2.81,3.3-2.81a4.75,4.75,0,0,1,2.36.6l-.44,1.26a3.76,3.76,0,0,0-2-.55c-1,0-1.6.59-1.6,1.31s.57,1.14,1.82,1.62c1.67.63,2.52,1.47,2.52,2.89,0,1.69-1.31,2.87-3.59,2.87a5.4,5.4,0,0,1-2.69-.65Zm10.19-10.55v2.75h2.49v1.33h-2.49V297c0,1.18.33,1.86,1.3,1.86a3.77,3.77,0,0,0,1-.12l.08,1.31a4.45,4.45,0,0,1-1.54.23,2.39,2.39,0,0,1-1.88-.73,3.52,3.52,0,0,1-.68-2.49v-5.23h-1.48v-1.33h1.48v-2.3Zm5.31,7.86a3.07,3.07,0,0,0,3.28,3.33,6.3,6.3,0,0,0,2.66-.5l.3,1.25a7.78,7.78,0,0,1-3.19.59,4.46,4.46,0,0,1-4.72-4.83c0-2.89,1.71-5.17,4.5-5.17,3.13,0,4,2.75,4,4.52a6.61,6.61,0,0,1-.06.81Zm5.11-1.25c0-1.11-.46-2.83-2.42-2.83a2.88,2.88,0,0,0-2.67,2.83Zm12.12-8.34v11.59c0,.85,0,1.82.08,2.48h-1.56l-.08-1.67h0a3.56,3.56,0,0,1-3.27,1.88c-2.32,0-4.1-2-4.1-4.87,0-3.19,2-5.15,4.3-5.15a3.22,3.22,0,0,1,2.89,1.47h0v-5.73Zm-1.74,8.38a3,3,0,0,0-.08-.73,2.57,2.57,0,0,0-2.52-2c-1.8,0-2.87,1.58-2.87,3.7,0,1.94.95,3.55,2.83,3.55a2.63,2.63,0,0,0,2.56-2.08,3,3,0,0,0,.08-.75Zm10.35-6.59a1.08,1.08,0,0,1-2.16,0,1.06,1.06,0,0,1,1.09-1.09A1,1,0,0,1,1329.71,287.84Zm-1.94,12.28v-9.59h1.74v9.59Zm4.63-7c0-1,0-1.8-.08-2.59h1.55l.1,1.58h0a3.51,3.51,0,0,1,3.17-1.8c1.32,0,3.38.79,3.38,4.08v5.73h-1.74v-5.53c0-1.54-.57-2.83-2.22-2.83a2.46,2.46,0,0,0-2.33,1.78,2.51,2.51,0,0,0-.12.81v5.77h-1.75Zm22.79,4.38c0,1,0,1.86.08,2.62h-1.54l-.1-1.57h0a3.62,3.62,0,0,1-3.17,1.78c-1.51,0-3.31-.83-3.31-4.2v-5.6h1.75v5.31c0,1.82.55,3.05,2.13,3.05a2.51,2.51,0,0,0,2.3-1.59,2.48,2.48,0,0,0,.16-.89v-5.88h1.74Zm2.9-4.38c0-1,0-1.8-.08-2.59h1.54l.1,1.58h0a3.54,3.54,0,0,1,3.17-1.8c1.33,0,3.39.79,3.39,4.08v5.73h-1.74v-5.53c0-1.54-.58-2.83-2.22-2.83a2.48,2.48,0,0,0-2.34,1.78,2.51,2.51,0,0,0-.12.81v5.77h-1.74Zm19.27-7.07v11.59c0,.85,0,1.82.08,2.48h-1.56l-.08-1.67h0a3.55,3.55,0,0,1-3.27,1.88c-2.32,0-4.1-2-4.1-4.87,0-3.19,2-5.15,4.3-5.15a3.22,3.22,0,0,1,2.89,1.47h0v-5.73Zm-1.74,8.38a3,3,0,0,0-.08-.73,2.56,2.56,0,0,0-2.51-2c-1.81,0-2.88,1.58-2.88,3.7,0,1.94.95,3.55,2.84,3.55a2.63,2.63,0,0,0,2.55-2.08,3,3,0,0,0,.08-.75Zm5.61,1.21a3.07,3.07,0,0,0,3.29,3.33,6.24,6.24,0,0,0,2.65-.5l.3,1.25a7.78,7.78,0,0,1-3.19.59,4.46,4.46,0,0,1-4.72-4.83c0-2.89,1.71-5.17,4.5-5.17,3.13,0,4,2.75,4,4.52a6.61,6.61,0,0,1-.06.81Zm5.11-1.25c0-1.11-.46-2.83-2.42-2.83-1.76,0-2.53,1.62-2.67,2.83Zm3.84-.87c0-1.13,0-2.1-.08-3h1.53l.06,1.88h.08a2.86,2.86,0,0,1,2.65-2.1,1.9,1.9,0,0,1,.5.06V292a2.64,2.64,0,0,0-.6-.06,2.43,2.43,0,0,0-2.33,2.23,5,5,0,0,0-.08.82v5.11h-1.73Zm6.24,4.81a4.57,4.57,0,0,0,2.3.7c1.27,0,1.86-.64,1.86-1.43s-.49-1.29-1.78-1.76c-1.72-.62-2.53-1.57-2.53-2.72,0-1.54,1.24-2.81,3.3-2.81a4.75,4.75,0,0,1,2.36.6l-.44,1.26a3.76,3.76,0,0,0-2-.55c-1,0-1.6.59-1.6,1.31s.57,1.14,1.82,1.62c1.67.63,2.52,1.47,2.52,2.89,0,1.69-1.31,2.87-3.59,2.87a5.4,5.4,0,0,1-2.69-.65Zm10.19-10.55v2.75h2.49v1.33h-2.49V297c0,1.18.33,1.86,1.3,1.86a3.77,3.77,0,0,0,1-.12l.08,1.31a4.45,4.45,0,0,1-1.54.23,2.39,2.39,0,0,1-1.88-.73,3.52,3.52,0,0,1-.68-2.49v-5.23h-1.48v-1.33h1.48v-2.3Zm9.76,12.34-.14-1.21h0a3.59,3.59,0,0,1-2.94,1.42,2.73,2.73,0,0,1-2.93-2.75c0-2.32,2.06-3.58,5.77-3.56v-.2a2,2,0,0,0-2.18-2.22,4.87,4.87,0,0,0-2.5.71l-.39-1.15a6,6,0,0,1,3.14-.85c2.94,0,3.65,2,3.65,3.92v3.59a13.46,13.46,0,0,0,.16,2.3Zm-.25-4.9c-1.91,0-4.06.3-4.06,2.16a1.54,1.54,0,0,0,1.64,1.67,2.4,2.4,0,0,0,2.32-1.61,1.78,1.78,0,0,0,.1-.55Zm4.49-2.1c0-1,0-1.8-.07-2.59h1.54l.1,1.58h0a3.51,3.51,0,0,1,3.17-1.8c1.32,0,3.38.79,3.38,4.08v5.73H1427v-5.53c0-1.54-.57-2.83-2.22-2.83a2.46,2.46,0,0,0-2.33,1.78,2.51,2.51,0,0,0-.12.81v5.77h-1.75Zm19.28-7.07v11.59c0,.85,0,1.82.08,2.48h-1.57l-.08-1.67h0a3.53,3.53,0,0,1-3.26,1.88c-2.32,0-4.1-2-4.1-4.87,0-3.19,2-5.15,4.29-5.15a3.23,3.23,0,0,1,2.9,1.47h0v-5.73Zm-1.74,8.38a3,3,0,0,0-.08-.73,2.57,2.57,0,0,0-2.52-2c-1.8,0-2.87,1.58-2.87,3.7,0,1.94,1,3.55,2.83,3.55a2.63,2.63,0,0,0,2.56-2.08,3,3,0,0,0,.08-.75Zm6.57-6.59a1.08,1.08,0,0,1-2.15,0,1.06,1.06,0,0,1,1.09-1.09A1,1,0,0,1,1444.72,287.84Zm-1.94,12.28v-9.59h1.75v9.59Zm4.64-7c0-1,0-1.8-.08-2.59h1.55l.09,1.58h0a3.54,3.54,0,0,1,3.17-1.8c1.33,0,3.39.79,3.39,4.08v5.73h-1.74v-5.53c0-1.54-.58-2.83-2.22-2.83a2.48,2.48,0,0,0-2.34,1.78,2.51,2.51,0,0,0-.12.81v5.77h-1.74Zm19.25-2.59c0,.69-.08,1.47-.08,2.63v5.57c0,2.2-.43,3.54-1.36,4.38a5.1,5.1,0,0,1-3.49,1.15,6.16,6.16,0,0,1-3.19-.8l.44-1.32a5.44,5.44,0,0,0,2.81.75c1.78,0,3.09-.93,3.09-3.35v-1.07h0a3.42,3.42,0,0,1-3,1.61c-2.37,0-4.08-2-4.08-4.68,0-3.25,2.12-5.09,4.32-5.09a3.19,3.19,0,0,1,3,1.67h0l.08-1.45Zm-1.8,3.78a2.55,2.55,0,0,0-2.53-2.63c-1.67,0-2.86,1.4-2.86,3.62,0,1.88,1,3.45,2.84,3.45a2.53,2.53,0,0,0,2.41-1.78,3,3,0,0,0,.14-.93Zm15.23,5.45a6.44,6.44,0,0,1-2.76.55,4.55,4.55,0,0,1-4.77-4.89,4.87,4.87,0,0,1,5.15-5.09,5.82,5.82,0,0,1,2.42.5l-.4,1.34a4.15,4.15,0,0,0-2-.45,3.61,3.61,0,0,0-.06,7.21,4.94,4.94,0,0,0,2.14-.48Zm2-13.71h1.74v14.07h-1.74Zm6.61,1.79a1.08,1.08,0,0,1-2.15,0,1.06,1.06,0,0,1,1.09-1.09A1,1,0,0,1,1488.75,287.84Zm-1.94,12.28v-9.59h1.75v9.59Zm5.61-4.48a3.07,3.07,0,0,0,3.29,3.33,6.21,6.21,0,0,0,2.65-.5l.3,1.25a7.74,7.74,0,0,1-3.19.59c-3,0-4.71-1.94-4.71-4.83s1.7-5.17,4.49-5.17c3.13,0,4,2.75,4,4.52a6.61,6.61,0,0,1-.06.81Zm5.11-1.25c0-1.11-.46-2.83-2.42-2.83-1.76,0-2.53,1.62-2.67,2.83Zm3.85-1.27c0-1,0-1.8-.08-2.59h1.54l.1,1.58h0a3.53,3.53,0,0,1,3.17-1.8c1.33,0,3.39.79,3.39,4.08v5.73h-1.75v-5.53c0-1.54-.57-2.83-2.22-2.83a2.47,2.47,0,0,0-2.33,1.78,2.51,2.51,0,0,0-.12.81v5.77h-1.74Zm13-5.34v2.75h2.5v1.33h-2.5V297c0,1.18.34,1.86,1.31,1.86a3.89,3.89,0,0,0,1-.12l.08,1.31a4.51,4.51,0,0,1-1.55.23,2.4,2.4,0,0,1-1.88-.73,3.57,3.57,0,0,1-.67-2.49v-5.23h-1.49v-1.33h1.49v-2.3Zm7.07-1.23a22.26,22.26,0,0,1-1.86,4.69l-1.11.14a28,28,0,0,0,1.17-4.65Zm.24,11.78a4.57,4.57,0,0,0,2.3.7c1.27,0,1.86-.64,1.86-1.43s-.49-1.29-1.78-1.76c-1.72-.62-2.54-1.57-2.54-2.72,0-1.54,1.25-2.81,3.31-2.81a4.78,4.78,0,0,1,2.36.6l-.44,1.26a3.79,3.79,0,0,0-2-.55c-1,0-1.6.59-1.6,1.31s.57,1.14,1.82,1.62c1.66.63,2.52,1.47,2.52,2.89,0,1.69-1.31,2.87-3.59,2.87a5.4,5.4,0,0,1-2.69-.65Zm11.86-5.21c0-1,0-1.8-.08-2.59H1535l.09,1.58h0a3.54,3.54,0,0,1,3.17-1.8c1.33,0,3.39.79,3.39,4.08v5.73H1540v-5.53c0-1.54-.58-2.83-2.22-2.83a2.48,2.48,0,0,0-2.34,1.78,2.51,2.51,0,0,0-.12.81v5.77h-1.74Zm12,2.52a3.07,3.07,0,0,0,3.28,3.33,6.3,6.3,0,0,0,2.66-.5l.29,1.25a7.69,7.69,0,0,1-3.18.59,4.46,4.46,0,0,1-4.72-4.83c0-2.89,1.71-5.17,4.5-5.17,3.13,0,4,2.75,4,4.52a6.61,6.61,0,0,1-.06.81Zm5.11-1.25c0-1.11-.46-2.83-2.42-2.83a2.88,2.88,0,0,0-2.67,2.83Zm4.81,1.25a3.07,3.07,0,0,0,3.29,3.33,6.21,6.21,0,0,0,2.65-.5l.3,1.25a7.71,7.71,0,0,1-3.19.59c-3,0-4.71-1.94-4.71-4.83s1.7-5.17,4.49-5.17c3.13,0,4,2.75,4,4.52a6.61,6.61,0,0,1-.06.81Zm5.11-1.25c0-1.11-.45-2.83-2.41-2.83a2.89,2.89,0,0,0-2.68,2.83Zm12.13-8.34v11.59c0,.85,0,1.82.08,2.48h-1.57l-.08-1.67h0a3.54,3.54,0,0,1-3.27,1.88c-2.31,0-4.1-2-4.1-4.87,0-3.19,2-5.15,4.3-5.15a3.2,3.2,0,0,1,2.89,1.47h0v-5.73Zm-1.75,8.38a3,3,0,0,0-.08-.73,2.55,2.55,0,0,0-2.51-2c-1.8,0-2.87,1.58-2.87,3.7,0,1.94,1,3.55,2.83,3.55a2.62,2.62,0,0,0,2.55-2.08,3,3,0,0,0,.08-.75Zm4.4,3.9a4.57,4.57,0,0,0,2.3.7c1.27,0,1.86-.64,1.86-1.43s-.49-1.29-1.78-1.76c-1.72-.62-2.53-1.57-2.53-2.72,0-1.54,1.24-2.81,3.3-2.81a4.78,4.78,0,0,1,2.36.6l-.44,1.26a3.79,3.79,0,0,0-2-.55c-1,0-1.6.59-1.6,1.31s.57,1.14,1.82,1.62c1.66.63,2.52,1.47,2.52,2.89,0,1.69-1.31,2.87-3.59,2.87a5.4,5.4,0,0,1-2.69-.65Zm17.17,1.79-.14-1.21h-.06a3.59,3.59,0,0,1-2.93,1.42,2.73,2.73,0,0,1-2.93-2.75c0-2.32,2.06-3.58,5.76-3.56v-.2a2,2,0,0,0-2.18-2.22,4.8,4.8,0,0,0-2.49.71l-.4-1.15a6,6,0,0,1,3.15-.85c2.93,0,3.64,2,3.64,3.92v3.59a13.46,13.46,0,0,0,.16,2.3Zm-.26-4.9c-1.9,0-4.06.3-4.06,2.16a1.54,1.54,0,0,0,1.64,1.67,2.4,2.4,0,0,0,2.32-1.61,1.78,1.78,0,0,0,.1-.55Zm4.5-2.1c0-1,0-1.8-.08-2.59h1.54l.1,1.58h0a3.54,3.54,0,0,1,3.17-1.8c1.33,0,3.39.79,3.39,4.08v5.73h-1.74v-5.53c0-1.54-.58-2.83-2.22-2.83a2.48,2.48,0,0,0-2.34,1.78,2.51,2.51,0,0,0-.12.81v5.77h-1.74Zm19.27-7.07v11.59c0,.85,0,1.82.08,2.48h-1.56l-.08-1.67h0a3.55,3.55,0,0,1-3.27,1.88c-2.32,0-4.1-2-4.1-4.87,0-3.19,2-5.15,4.3-5.15a3.22,3.22,0,0,1,2.89,1.47h0v-5.73Zm-1.74,8.38a3,3,0,0,0-.08-.73,2.56,2.56,0,0,0-2.51-2c-1.81,0-2.88,1.58-2.88,3.7,0,1.94,1,3.55,2.84,3.55a2.63,2.63,0,0,0,2.55-2.08,3,3,0,0,0,.08-.75Zm16.67-3.9c0,.69-.08,1.47-.08,2.63v5.57c0,2.2-.44,3.54-1.37,4.38a5.07,5.07,0,0,1-3.48,1.15,6.14,6.14,0,0,1-3.19-.8l.43-1.32a5.51,5.51,0,0,0,2.82.75c1.78,0,3.09-.93,3.09-3.35v-1.07h0a3.44,3.44,0,0,1-3.05,1.61c-2.38,0-4.08-2-4.08-4.68,0-3.25,2.12-5.09,4.31-5.09a3.19,3.19,0,0,1,3,1.67h0l.08-1.45Zm-1.8,3.78a2.48,2.48,0,0,0-.1-.79,2.51,2.51,0,0,0-2.44-1.84c-1.66,0-2.85,1.4-2.85,3.62,0,1.88,1,3.45,2.83,3.45A2.55,2.55,0,0,0,1629,297a3,3,0,0,0,.14-.93Zm13.29.93c0,3.55-2.46,5.09-4.77,5.09-2.6,0-4.6-1.9-4.6-4.93,0-3.21,2.1-5.09,4.76-5.09S1642.44,292.31,1642.44,295.24Zm-7.61.1c0,2.1,1.21,3.69,2.92,3.69s2.91-1.57,2.91-3.73c0-1.62-.81-3.68-2.87-3.68S1634.83,293.52,1634.83,295.34Zm15.12,4.78-.14-1.21h-.06a3.56,3.56,0,0,1-2.93,1.42,2.73,2.73,0,0,1-2.93-2.75c0-2.32,2.06-3.58,5.76-3.56v-.2a2,2,0,0,0-2.18-2.22,4.8,4.8,0,0,0-2.49.71l-.4-1.15a6,6,0,0,1,3.15-.85c2.93,0,3.65,2,3.65,3.92v3.59a14.64,14.64,0,0,0,.15,2.3Zm-.26-4.9c-1.9,0-4.06.3-4.06,2.16a1.55,1.55,0,0,0,1.65,1.67,2.38,2.38,0,0,0,2.31-1.61,1.78,1.78,0,0,0,.1-.55Zm4.5-9.17h1.74v14.07h-1.74Zm4.44,12.28a4.5,4.5,0,0,0,2.3.7c1.26,0,1.86-.64,1.86-1.43s-.5-1.29-1.78-1.76c-1.73-.62-2.54-1.57-2.54-2.72,0-1.54,1.25-2.81,3.31-2.81a4.71,4.71,0,0,1,2.35.6l-.43,1.26a3.82,3.82,0,0,0-2-.55c-1,0-1.61.59-1.61,1.31s.58,1.14,1.83,1.62c1.66.63,2.51,1.47,2.51,2.89,0,1.69-1.31,2.87-3.58,2.87a5.47,5.47,0,0,1-2.7-.65Zm7.45.76a1.17,1.17,0,0,1,1.19-1.25,1.25,1.25,0,1,1-1.19,1.25Zm17.68.59a8.58,8.58,0,0,1-3.53.63c-3.76,0-6.6-2.37-6.6-6.75a6.65,6.65,0,0,1,7-7,7.33,7.33,0,0,1,3.17.59l-.42,1.41a6.23,6.23,0,0,0-2.69-.56c-3.13,0-5.21,2-5.21,5.51,0,3.27,1.88,5.37,5.13,5.37a6.82,6.82,0,0,0,2.81-.56Zm10.56-4.44a4.69,4.69,0,0,1-4.78,5.09c-2.59,0-4.59-1.9-4.59-4.93,0-3.21,2.1-5.09,4.75-5.09S1694.32,292.31,1694.32,295.24Zm-7.61.1c0,2.1,1.21,3.69,2.91,3.69s2.91-1.57,2.91-3.73c0-1.62-.81-3.68-2.87-3.68S1686.71,293.52,1686.71,295.34Zm9.81-2.22c0-1,0-1.8-.08-2.59H1698l.08,1.54h.06a3.31,3.31,0,0,1,3-1.76,2.84,2.84,0,0,1,2.72,1.92h0a3.86,3.86,0,0,1,1.06-1.24,3.27,3.27,0,0,1,2.12-.68c1.27,0,3.15.83,3.15,4.16v5.65h-1.7v-5.43c0-1.84-.67-2.95-2.08-2.95a2.26,2.26,0,0,0-2.06,1.58,2.88,2.88,0,0,0-.14.87v5.93h-1.7v-5.75c0-1.52-.67-2.63-2-2.63a2.6,2.6,0,0,0-2.3,2.59v5.79h-1.7Zm16.44,7c0-.66.08-1.63.08-2.48V286.05h1.72v6h0a3.6,3.6,0,0,1,3.27-1.76c2.38,0,4.06,2,4,4.89,0,3.43-2.16,5.13-4.3,5.13a3.42,3.42,0,0,1-3.21-1.8h0l-.08,1.59Zm1.8-3.85a3.3,3.3,0,0,0,.08.64,2.69,2.69,0,0,0,2.62,2c1.82,0,2.91-1.49,2.91-3.69,0-1.92-1-3.56-2.85-3.56a2.78,2.78,0,0,0-2.66,2.14,3.37,3.37,0,0,0-.1.71Zm11.49-8.43a1.08,1.08,0,0,1-2.15,0,1.06,1.06,0,0,1,1.09-1.09A1,1,0,0,1,1726.25,287.84Zm-1.94,12.28v-9.59h1.75v9.59Zm4.64-7c0-1,0-1.8-.08-2.59h1.54l.1,1.58h0a3.54,3.54,0,0,1,3.17-1.8c1.33,0,3.39.79,3.39,4.08v5.73h-1.74v-5.53c0-1.54-.58-2.83-2.22-2.83a2.48,2.48,0,0,0-2.34,1.78,2.51,2.51,0,0,0-.12.81v5.77H1729Zm12.94-5.28a1.08,1.08,0,0,1-2.16,0,1.06,1.06,0,0,1,1.09-1.09A1,1,0,0,1,1741.89,287.84Zm-2,12.28v-9.59h1.75v9.59Zm4.64-7c0-1,0-1.8-.08-2.59h1.55l.1,1.58h0a3.51,3.51,0,0,1,3.16-1.8c1.33,0,3.39.79,3.39,4.08v5.73H1751v-5.53c0-1.54-.58-2.83-2.22-2.83a2.48,2.48,0,0,0-2.34,1.78,2.51,2.51,0,0,0-.12.81v5.77h-1.74Zm19.26-2.59c0,.69-.08,1.47-.08,2.63v5.57c0,2.2-.44,3.54-1.37,4.38a5.1,5.1,0,0,1-3.49,1.15,6.16,6.16,0,0,1-3.19-.8l.44-1.32a5.44,5.44,0,0,0,2.81.75c1.79,0,3.09-.93,3.09-3.35v-1.07h0a3.42,3.42,0,0,1-3,1.61c-2.37,0-4.08-2-4.08-4.68,0-3.25,2.12-5.09,4.32-5.09a3.17,3.17,0,0,1,3,1.67h0l.08-1.45Zm-1.81,3.78a2.55,2.55,0,0,0-2.53-2.63c-1.67,0-2.85,1.4-2.85,3.62,0,1.88.95,3.45,2.83,3.45a2.53,2.53,0,0,0,2.41-1.78,3,3,0,0,0,.14-.93Zm17.07.93c0,3.55-2.46,5.09-4.77,5.09-2.6,0-4.6-1.9-4.6-4.93,0-3.21,2.1-5.09,4.76-5.09S1779.1,292.31,1779.1,295.24Zm-7.6.1c0,2.1,1.2,3.69,2.91,3.69s2.91-1.57,2.91-3.73c0-1.62-.81-3.68-2.87-3.68S1771.5,293.52,1771.5,295.34Zm17.82,2.16c0,1,0,1.86.08,2.62h-1.54l-.1-1.57h0a3.62,3.62,0,0,1-3.17,1.78c-1.5,0-3.31-.83-3.31-4.2v-5.6H1783v5.31c0,1.82.55,3.05,2.13,3.05a2.51,2.51,0,0,0,2.3-1.59,2.48,2.48,0,0,0,.16-.89v-5.88h1.74Zm2.9-4c0-1.13,0-2.1-.08-3h1.52l.06,1.88h.08a2.88,2.88,0,0,1,2.66-2.1,1.83,1.83,0,0,1,.49.06V292a2.55,2.55,0,0,0-.59-.06,2.45,2.45,0,0,0-2.34,2.23,5,5,0,0,0-.08.82v5.11h-1.72Zm11.22,2.12a3.07,3.07,0,0,0,3.29,3.33,6.21,6.21,0,0,0,2.65-.5l.3,1.25a7.71,7.71,0,0,1-3.19.59c-3,0-4.71-1.94-4.71-4.83s1.7-5.17,4.49-5.17c3.13,0,4,2.75,4,4.52a6.61,6.61,0,0,1-.06.81Zm5.11-1.25c0-1.11-.45-2.83-2.41-2.83a2.89,2.89,0,0,0-2.68,2.83Zm4.6-3.86,1.37,2.06c.35.53.65,1,1,1.56h.06c.31-.57.63-1.07,1-1.58l1.34-2h1.89l-3.27,4.63,3.36,5h-2l-1.4-2.16c-.38-.56-.7-1.09-1-1.67h0c-.32.58-.66,1.09-1,1.67l-1.39,2.16h-1.92l3.41-4.9-3.25-4.69Zm8.36,3.13c0-1.23,0-2.22-.08-3.13H1823l.08,1.64h0a3.8,3.8,0,0,1,3.41-1.86c2.32,0,4.06,2,4.06,4.87,0,3.45-2.1,5.15-4.36,5.15a3.37,3.37,0,0,1-3-1.5h0V304h-1.72Zm1.72,2.55a4,4,0,0,0,.08.72,2.69,2.69,0,0,0,2.62,2c1.84,0,2.91-1.51,2.91-3.71,0-1.92-1-3.56-2.85-3.56a2.79,2.79,0,0,0-2.64,2.16,2.7,2.7,0,0,0-.12.71Zm10.52-.57A3.07,3.07,0,0,0,1837,299a6.3,6.3,0,0,0,2.66-.5l.29,1.25a7.71,7.71,0,0,1-3.19.59c-3,0-4.71-1.94-4.71-4.83s1.7-5.17,4.5-5.17c3.13,0,4,2.75,4,4.52a6.61,6.61,0,0,1-.06.81Zm5.11-1.25c0-1.11-.45-2.83-2.41-2.83a2.89,2.89,0,0,0-2.68,2.83Zm3.85-.87c0-1.13,0-2.1-.08-3h1.53l.06,1.88h.07a2.88,2.88,0,0,1,2.66-2.1,1.83,1.83,0,0,1,.49.06V292a2.49,2.49,0,0,0-.59-.06,2.45,2.45,0,0,0-2.34,2.23,5,5,0,0,0-.08.82v5.11h-1.72Zm8.5-5.68a1.08,1.08,0,0,1-2.16,0,1.06,1.06,0,0,1,1.09-1.09A1,1,0,0,1,1851.21,287.84Zm-1.94,12.28v-9.59H1851v9.59Zm5.6-4.48a3.07,3.07,0,0,0,3.29,3.33,6.21,6.21,0,0,0,2.65-.5l.3,1.25a7.71,7.71,0,0,1-3.19.59c-3,0-4.71-1.94-4.71-4.83s1.7-5.17,4.49-5.17c3.13,0,4,2.75,4,4.52a6.61,6.61,0,0,1-.06.81Zm5.11-1.25c0-1.11-.45-2.83-2.41-2.83a2.89,2.89,0,0,0-2.68,2.83Zm3.85-1.27c0-1,0-1.8-.08-2.59h1.54l.1,1.58h0a3.54,3.54,0,0,1,3.17-1.8c1.33,0,3.39.79,3.39,4.08v5.73h-1.75v-5.53c0-1.54-.57-2.83-2.21-2.83a2.48,2.48,0,0,0-2.34,1.78,2.51,2.51,0,0,0-.12.81v5.77h-1.74Zm17.83,6.64a6.44,6.44,0,0,1-2.76.55,4.55,4.55,0,0,1-4.77-4.89,4.87,4.87,0,0,1,5.15-5.09,5.82,5.82,0,0,1,2.42.5l-.4,1.34a4.15,4.15,0,0,0-2-.45,3.61,3.61,0,0,0-.06,7.21,4.94,4.94,0,0,0,2.14-.48Zm2.89-4.12a3.07,3.07,0,0,0,3.29,3.33,6.21,6.21,0,0,0,2.65-.5l.3,1.25a7.71,7.71,0,0,1-3.19.59c-2.95,0-4.71-1.94-4.71-4.83s1.7-5.17,4.49-5.17c3.13,0,4,2.75,4,4.52a6.61,6.61,0,0,1-.06.81Zm5.11-1.25c0-1.11-.46-2.83-2.42-2.83-1.76,0-2.53,1.62-2.67,2.83Zm9.56-6.55a1,1,0,0,1-1.11,1.07,1,1,0,0,1-1-1.07,1.06,1.06,0,0,1,1.09-1.09A1,1,0,0,1,1899.22,287.84Zm-1.94,12.28v-9.59H1899v9.59Zm4.64-7c0-1,0-1.8-.08-2.59h1.54l.1,1.58h0a3.53,3.53,0,0,1,3.17-1.8c1.33,0,3.39.79,3.39,4.08v5.73h-1.75v-5.53c0-1.54-.57-2.83-2.22-2.83a2.47,2.47,0,0,0-2.33,1.78,2.51,2.51,0,0,0-.12.81v5.77h-1.74Zm16.86-5.34v2.75h2.5v1.33h-2.5V297c0,1.18.34,1.86,1.31,1.86a3.83,3.83,0,0,0,1-.12l.08,1.31a4.49,4.49,0,0,1-1.54.23,2.37,2.37,0,0,1-1.88-.73,3.52,3.52,0,0,1-.68-2.49v-5.23h-1.48v-1.33h1.48v-2.3Zm5.31,7.86a3.07,3.07,0,0,0,3.29,3.33,6.3,6.3,0,0,0,2.66-.5l.29,1.25a7.71,7.71,0,0,1-3.19.59c-3,0-4.71-1.94-4.71-4.83s1.7-5.17,4.5-5.17c3.13,0,4,2.75,4,4.52a6.61,6.61,0,0,1-.06.81Zm5.11-1.25c0-1.11-.45-2.83-2.41-2.83a2.89,2.89,0,0,0-2.68,2.83Zm10.68,5.37a6.35,6.35,0,0,1-2.75.55,4.55,4.55,0,0,1-4.77-4.89,4.87,4.87,0,0,1,5.15-5.09,5.72,5.72,0,0,1,2.41.5l-.39,1.34a4.15,4.15,0,0,0-2-.45,3.61,3.61,0,0,0-.06,7.21,4.94,4.94,0,0,0,2.14-.48Zm2-13.71h1.74v6h0a3.19,3.19,0,0,1,1.25-1.22,3.55,3.55,0,0,1,1.78-.5c1.29,0,3.35.79,3.35,4.1v5.71h-1.75v-5.51c0-1.55-.57-2.85-2.21-2.85a2.5,2.5,0,0,0-2.34,1.74,2.11,2.11,0,0,0-.12.83v5.79h-1.74Zm11,7.07c0-1,0-1.8-.08-2.59h1.55l.1,1.58h0a3.51,3.51,0,0,1,3.16-1.8c1.33,0,3.39.79,3.39,4.08v5.73h-1.74v-5.53c0-1.54-.58-2.83-2.22-2.83a2.48,2.48,0,0,0-2.34,1.78,2.51,2.51,0,0,0-.12.81v5.77h-1.74Zm19.67,2.12c0,3.55-2.45,5.09-4.77,5.09-2.6,0-4.6-1.9-4.6-4.93,0-3.21,2.1-5.09,4.76-5.09S1972.59,292.31,1972.59,295.24Zm-7.6.1c0,2.1,1.21,3.69,2.91,3.69s2.91-1.57,2.91-3.73c0-1.62-.81-3.68-2.87-3.68S1965,293.52,1965,295.34Zm9.8-9.29h1.75v14.07h-1.75Zm13.35,9.19c0,3.55-2.45,5.09-4.77,5.09-2.59,0-4.59-1.9-4.59-4.93,0-3.21,2.1-5.09,4.75-5.09S1988.14,292.31,1988.14,295.24Zm-7.6.1c0,2.1,1.21,3.69,2.91,3.69s2.91-1.57,2.91-3.73c0-1.62-.81-3.68-2.87-3.68S1980.54,293.52,1980.54,295.34Zm18.06-4.81c0,.69-.07,1.47-.07,2.63v5.57c0,2.2-.44,3.54-1.37,4.38a5.1,5.1,0,0,1-3.49,1.15,6.16,6.16,0,0,1-3.19-.8l.44-1.32a5.44,5.44,0,0,0,2.81.75c1.79,0,3.09-.93,3.09-3.35v-1.07h0a3.42,3.42,0,0,1-3,1.61c-2.37,0-4.08-2-4.08-4.68,0-3.25,2.12-5.09,4.32-5.09a3.17,3.17,0,0,1,3,1.67h0l.08-1.45Zm-1.8,3.78a2.55,2.55,0,0,0-2.53-2.63c-1.67,0-2.85,1.4-2.85,3.62,0,1.88.95,3.45,2.83,3.45a2.53,2.53,0,0,0,2.41-1.78,3,3,0,0,0,.14-.93Zm6.44-6.47a1,1,0,0,1-1.11,1.07,1,1,0,0,1-1.05-1.07,1.06,1.06,0,0,1,1.09-1.09A1,1,0,0,1,2003.24,287.84Zm-1.94,12.28v-9.59H2003v9.59Zm11.47-.36a6.43,6.43,0,0,1-2.75.55,4.55,4.55,0,0,1-4.78-4.89,4.87,4.87,0,0,1,5.15-5.09,5.82,5.82,0,0,1,2.42.5l-.4,1.34a4.12,4.12,0,0,0-2-.45,3.61,3.61,0,0,0-.06,7.21,4.9,4.9,0,0,0,2.14-.48Zm7.35.36-.14-1.21h-.06a3.56,3.56,0,0,1-2.93,1.42,2.73,2.73,0,0,1-2.93-2.75c0-2.32,2.06-3.58,5.76-3.56v-.2a2,2,0,0,0-2.18-2.22,4.8,4.8,0,0,0-2.49.71l-.4-1.15a6,6,0,0,1,3.15-.85c2.93,0,3.65,2,3.65,3.92v3.59a14.64,14.64,0,0,0,.15,2.3Zm-.26-4.9c-1.9,0-4.06.3-4.06,2.16a1.55,1.55,0,0,0,1.65,1.67,2.38,2.38,0,0,0,2.31-1.61,1.78,1.78,0,0,0,.1-.55Zm4.5-9.17h1.74v14.07h-1.74Zm8.63,14.07v-8.26h-1.35v-1.33H2033V290a3.84,3.84,0,0,1,4.18-4.17,4.73,4.73,0,0,1,2.43.63l-.49,1.33a3.65,3.65,0,0,0-2-.56c-1.84,0-2.38,1.29-2.38,2.81v.48h5.57v9.59h-1.73v-8.26h-3.84v8.26Zm11.15-4.48a3.07,3.07,0,0,0,3.29,3.33,6.21,6.21,0,0,0,2.65-.5l.3,1.25a7.71,7.71,0,0,1-3.19.59c-3,0-4.71-1.94-4.71-4.83s1.7-5.17,4.5-5.17c3.12,0,4,2.75,4,4.52a6.61,6.61,0,0,1-.06.81Zm5.11-1.25c0-1.11-.45-2.83-2.41-2.83a2.89,2.89,0,0,0-2.68,2.83Zm3.85-8.34h1.74v14.07h-1.74Zm13,0v11.59c0,.85,0,1.82.08,2.48h-1.56l-.08-1.67h0a3.56,3.56,0,0,1-3.27,1.88c-2.32,0-4.1-2-4.1-4.87,0-3.19,2-5.15,4.3-5.15a3.22,3.22,0,0,1,2.89,1.47h0v-5.73Zm-1.74,8.38a3,3,0,0,0-.08-.73,2.56,2.56,0,0,0-2.51-2c-1.81,0-2.88,1.58-2.88,3.7,0,1.94.95,3.55,2.84,3.55a2.63,2.63,0,0,0,2.55-2.08,3,3,0,0,0,.08-.75Z"
  /><text class="cls-6" transform="translate(711.76 323.89)">and<tspan
      class="cls-39"
      x="33.84"
      y="0"
    > </tspan><tspan class="cls-37" x="72.27" y="0">y</tspan><tspan
      x="81.7"
      y="0"
    >our</tspan><tspan class="cls-39" x="112.13" y="0"> </tspan><tspan
      class="cls-17"
      x="150.57"
      y="0"
    >business</tspan><tspan class="cls-40" x="228.79" y="0"> </tspan><tspan
      x="267.22"
      y="0"
    >need</tspan><tspan class="cls-41" x="311.8" y="0">s</tspan><tspan
      x="320.79"
      y="0"
    >,</tspan><tspan class="cls-40" x="325.39" y="0"> </tspan><tspan
      class="cls-29"
      x="363.82"
      y="0"
    >w</tspan><tspan x="377.75" y="0">e</tspan><tspan
      class="cls-40"
      x="388.49"
      y="0"
    > </tspan><tspan class="cls-8" x="426.92" y="0">deli</tspan><tspan
      class="cls-36"
      x="460.53"
      y="0"
    >v</tspan><tspan x="470" y="0">er</tspan><tspan
      class="cls-39"
      x="488.26"
      y="0"
    > </tspan><tspan class="cls-17" x="526.7" y="0">secu</tspan><tspan
      class="cls-29"
      x="567.45"
      y="0"
    >r</tspan><tspan x="574.78" y="0">ed</tspan><tspan
      class="cls-39"
      x="597.15"
      y="0"
    > </tspan><tspan x="635.58" y="0">blockchain</tspan><tspan
      class="cls-40"
      x="732.36"
      y="0"
    > </tspan><tspan x="770.8" y="0">solution</tspan><tspan
      class="cls-42"
      x="844.2"
      y="0"
    >s</tspan><tspan class="cls-17" x="853.19" y="0">,</tspan><tspan
      class="cls-40"
      x="857.79"
      y="0"
    > </tspan><tspan x="896.23" y="0">th</tspan><tspan
      class="cls-15"
      x="914.77"
      y="0"
    >a</tspan><tspan x="925.43" y="0">t</tspan><tspan
      class="cls-40"
      x="932.5"
      y="0"
    > </tspan><tspan class="cls-8" x="970.94" y="0">will</tspan><tspan
      class="cls-40"
      x="1002.1"
      y="0"
    > </tspan><tspan class="cls-43" x="1040.54" y="0">b</tspan><tspan
      class="cls-44"
      x="1052.09"
      y="0"
    >r</tspan><tspan x="1059.69" y="0">ing</tspan><tspan
      class="cls-40"
      x="1086.84"
      y="0"
    > </tspan><tspan class="cls-45" x="1125.27" y="0">y</tspan><tspan
      class="cls-8"
      x="1134.7"
      y="0"
    >ou</tspan><tspan class="cls-40" x="1157.6" y="0"> </tspan><tspan
      class="cls-24"
      x="1196.04"
      y="0"
    >c</tspan><tspan class="cls-17" x="1205.33" y="0">ompetiti</tspan><tspan
      class="cls-36"
      x="1280.97"
      y="0"
    >v</tspan><tspan class="cls-17" x="1290.44" y="0">e</tspan><tspan
      class="cls-39"
      x="1301.18"
      y="0"
    > </tspan><tspan x="1339.61" y="0">ad</tspan><tspan
      class="cls-21"
      x="1361.98"
      y="0"
    >v</tspan><tspan class="cls-43" x="1371.57" y="0">a</tspan><tspan
      class="cls-46"
      x="1382.31"
      y="0"
    >n</tspan><tspan x="1393.7" y="0">tage</tspan></text><path
    class="cls-47"
    d="M737.29,145.15l9.15-27.57c1.69-5.78,3.37-11.56,4.58-17.1h.36c1.2,5.42,2.77,11.2,4.69,17.46l9,27.21Zm20-54.06H745.72l-30.34,91.74h10.23l9.63-29.74h31.91L777,182.83h10.6Z"
  /><path
    class="cls-47"
    d="M814.22,138.05h9.63c12.16,0,24.08,5,24.08,18.78s-11.32,18.78-24,18.78a52.28,52.28,0,0,1-9.75-.6Zm0-7.71V99.16a43.11,43.11,0,0,1,10.23-.85c12.53,0,20.47,4.7,20.47,15.54V114c0,9.39-7.82,16.37-20,16.37Zm25.28,3C848.9,130,855,122.15,855,113.12c0-6.86-2.53-12.16-6.87-15.89-5.41-4.57-12.88-6.74-24.2-6.74a99.8,99.8,0,0,0-19.74,1.92v90.18a161.68,161.68,0,0,0,17,1c13.85,0,23.72-2.65,29.86-8.67a24.14,24.14,0,0,0,7.35-18.06c0-13.85-10.24-21.07-18.91-23.12Z"
  /><path
    class="cls-47"
    d="M911.5,98c19.62,0,28.65,20.23,28.65,38.65,0,21-10,39.37-28.89,39.37-18.66,0-28.78-19-28.78-38.53S891.27,98,911.5,98Zm.48-8.3c-23,0-40,18.18-40,48,0,28.66,16.13,46.6,38.89,46.6,21.67,0,39.73-15.89,39.73-48.16C950.63,108.43,935.46,89.65,912,89.65Z"
  /><path
    class="cls-47"
    d="M1032.26,91.21h-10v55.5c0,20.35-8.79,29.26-22,29.26-12,0-21.19-8.43-21.19-29.26V91.21h-10v55.38c0,27.69,13.6,37.69,30.7,37.69,18.3,0,32.51-10.72,32.51-38.29Z"
  /><polygon
    class="cls-47"
    points="1109.67 91.21 1045.62 91.21 1045.62 99.64 1072.59 99.64 1072.59 182.83 1082.58 182.83 1082.58 99.64 1109.67 99.64 1109.67 91.21"
  /><path
    class="cls-47"
    d="M1217.42,91.21h-10v55.5c0,20.35-8.79,29.26-22,29.26-12,0-21.19-8.43-21.19-29.26V91.21h-10v55.38c0,27.69,13.61,37.69,30.7,37.69,18.3,0,32.51-10.72,32.51-38.29Z"
  /><path
    class="cls-47"
    d="M1285.08,94.1c-3.49-2.17-10.11-4.33-18.78-4.33-16.73,0-28,10.23-28,24.2,0,12.64,9.39,20.7,23.23,25.88,11.92,4.82,16.86,10.36,16.86,19.39,0,9.87-7.22,16.49-19.5,16.49a37.43,37.43,0,0,1-19.75-5.66l-2.77,8.31c4.58,3.25,13.61,5.78,21.91,5.78,19.75,0,30.34-11.2,30.34-25.77,0-13.12-7.58-20.71-22.39-27-12.28-5.17-17.82-9.75-17.82-18.78,0-6.62,4.82-14.45,17.58-14.45a31.12,31.12,0,0,1,16.13,4.22Z"
  /><line class="cls-1" x1="649.92" y1="519.32" x2="649.92" y2="938.55" /></svg>
