<svg id="Layer_1" data-name="Layer 1" xmlns="http://www.w3.org/2000/svg" viewBox="0 0 2250.02 667.3"><defs><style>.cls-1{fill:none;stroke:#fff;stroke-linejoin:round;stroke-width:5px;}.cls-2{font-size:19px;font-family:FiraGO-Book, FiraGO;}.cls-19,.cls-2,.cls-28{fill:#fff;}.cls-3{letter-spacing:-0.01em;}.cls-4{letter-spacing:-0.01em;}.cls-5{letter-spacing:0em;}.cls-6{letter-spacing:-0.01em;}.cls-7{letter-spacing:0em;}.cls-8{letter-spacing:0.01em;}.cls-9{letter-spacing:-0.01em;}.cls-10{letter-spacing:-0.01em;}.cls-11{letter-spacing:-0.01em;}.cls-12{letter-spacing:0.03em;}.cls-13{letter-spacing:-0.07em;}.cls-14{letter-spacing:0em;}.cls-15{letter-spacing:-0.01em;}.cls-16{letter-spacing:-0.01em;}.cls-17{letter-spacing:0.09em;}.cls-18{letter-spacing:0.09em;}.cls-20{letter-spacing:-0.01em;}.cls-21{letter-spacing:-0.01em;}.cls-22{letter-spacing:-0.01em;}.cls-23{letter-spacing:-0.01em;}.cls-24{letter-spacing:0em;}.cls-25{letter-spacing:-0.01em;}.cls-26{letter-spacing:-0.01em;}.cls-27{letter-spacing:0em;}.cls-28{font-size:28px;font-family:FiraGO-ExtraBoldItalic, FiraGO;font-weight:800;font-style:italic;}.cls-29{letter-spacing:-0.01em;}.cls-30{letter-spacing:-0.01em;}.cls-31{letter-spacing:-0.01em;}.cls-32{letter-spacing:0em;}.cls-33{letter-spacing:-0.01em;}.cls-34{letter-spacing:0em;}.cls-35{fill:#5f3192;}.cls-36{letter-spacing:0.11em;}.cls-37{letter-spacing:0em;}.cls-38{letter-spacing:0.11em;}.cls-39{letter-spacing:0em;}.cls-40{letter-spacing:-0.01em;}.cls-41{letter-spacing:-0.01em;}.cls-42{letter-spacing:0.11em;}.cls-43{letter-spacing:0em;}.cls-44{letter-spacing:0em;}.cls-45{letter-spacing:0.02em;}.cls-46{letter-spacing:-0.01em;}.cls-47{letter-spacing:-0.02em;}.cls-48{letter-spacing:0.01em;}.cls-49{letter-spacing:-0.02em;}.cls-50{letter-spacing:0em;}.cls-51{letter-spacing:-0.01em;}.cls-52{letter-spacing:0.01em;}.cls-53{letter-spacing:0em;}.cls-54{letter-spacing:0.01em;}.cls-55{letter-spacing:-0.01em;}.cls-56{letter-spacing:0em;}.cls-57{letter-spacing:0em;}.cls-58{letter-spacing:0em;}.cls-59{letter-spacing:-0.01em;}.cls-60{letter-spacing:0em;}.cls-61{letter-spacing:0.03em;}.cls-62{letter-spacing:0.03em;}.cls-63{letter-spacing:0em;}.cls-64{letter-spacing:0.02em;}.cls-65{letter-spacing:0em;}.cls-66{letter-spacing:0.04em;}.cls-67{letter-spacing:-0.01em;}.cls-68{letter-spacing:0.02em;}.cls-69{letter-spacing:0.03em;}.cls-70{letter-spacing:0.04em;}.cls-71{letter-spacing:-0.01em;}.cls-72{letter-spacing:0.01em;}.cls-73{letter-spacing:0.04em;}.cls-74{letter-spacing:-0.04em;}.cls-75{letter-spacing:0em;}.cls-76{letter-spacing:0em;}.cls-77{letter-spacing:0.01em;}.cls-78{letter-spacing:-0.04em;}.cls-79{letter-spacing:-0.01em;}.cls-80{letter-spacing:0.02em;}.cls-81{letter-spacing:0.08em;}.cls-82{letter-spacing:0em;}.cls-83{letter-spacing:0.07em;}.cls-84{letter-spacing:0em;}</style></defs><title>2</title><rect class="cls-1" x="2.5" y="97.01" width="567.79" height="567.79"/><text class="cls-2" transform="translate(88.54 385.44)"><tspan class="cls-3">T</tspan><tspan x="9.59" y="0">he</tspan><tspan class="cls-4" x="30.89" y="0"> </tspan><tspan x="35.72" y="0">d</tspan><tspan class="cls-5" x="46.87" y="0">r</tspan><tspan x="54.15" y="0">iving</tspan><tspan class="cls-6" x="94.64" y="0"> </tspan><tspan class="cls-7" x="99.46" y="0">fa</tspan><tspan class="cls-8" x="116.07" y="0">c</tspan><tspan class="cls-9" x="125.32" y="0">t</tspan><tspan x="132.01" y="0">or</tspan><tspan class="cls-4" x="150.27" y="0"> </tspan><tspan class="cls-10" x="155.09" y="0">f</tspan><tspan x="161.17" y="0">or</tspan><tspan class="cls-4" x="179.43" y="0"> </tspan><tspan x="184.26" y="0">our</tspan><tspan class="cls-4" x="213.44" y="0"> </tspan><tspan class="cls-9" x="218.27" y="0">c</tspan><tspan x="227.2" y="0">ompa</tspan><tspan class="cls-11" x="275.76" y="0">n</tspan><tspan class="cls-12" x="286.53" y="0">y</tspan><tspan class="cls-13" x="296.32" y="0">’</tspan><tspan class="cls-7" x="299.24" y="0">s</tspan><tspan class="cls-4" x="308.08" y="0"> </tspan><tspan class="cls-14" x="312.91" y="0">g</tspan><tspan class="cls-15" x="322.63" y="0">r</tspan><tspan class="cls-16" x="329.68" y="0">o</tspan><tspan x="340.61" y="0">wth</tspan><tspan class="cls-4" x="371.94" y="0"> </tspan><tspan class="cls-7" x="376.76" y="0">is</tspan><tspan class="cls-4" x="390.8" y="0"> </tspan><tspan x="395.63" y="0">due </tspan></text><text class="cls-2" transform="translate(88.54 408.24)"><tspan class="cls-16">t</tspan><tspan x="6.67" y="0">o</tspan><tspan class="cls-17" x="17.71" y="0"> </tspan><tspan x="24.45" y="0">the</tspan><tspan class="cls-17" x="52.53" y="0"> </tspan><tspan x="59.28" y="0">wide</tspan><tspan class="cls-17" x="99.48" y="0"> </tspan><tspan class="cls-14" x="106.23" y="0">r</tspan><tspan x="113.35" y="0">ange</tspan><tspan class="cls-17" x="154.77" y="0"> </tspan><tspan x="161.52" y="0">of</tspan><tspan class="cls-17" x="178.86" y="0"> </tspan><tspan x="185.61" y="0">cus</tspan><tspan class="cls-14" x="214.39" y="0">t</tspan><tspan x="221.08" y="0">omi</tspan><tspan class="cls-16" x="253.47" y="0">z</tspan><tspan x="261.51" y="0">ed</tspan><tspan class="cls-17" x="282.96" y="0"> </tspan><tspan class="cls-7" x="289.71" y="0">solutions</tspan><tspan class="cls-18" x="368.94" y="0"> </tspan><tspan class="cls-11" x="375.68" y="0">f</tspan><tspan x="381.76" y="0">or</tspan><tspan class="cls-17" x="400.02" y="0"> </tspan><tspan x="406.76" y="0">di</tspan></text><text class="cls-2" transform="translate(478.44 408.24)">-</text><path class="cls-19" d="M90.57,421.85,92.38,427a24.11,24.11,0,0,1,.74,2.35h.06c.2-.76.47-1.52.77-2.35l1.79-5.17h1.75L93.88,431h-1.6l-3.49-9.19Zm9.24,4.9a2.94,2.94,0,0,0,3.15,3.19,6.18,6.18,0,0,0,2.55-.47l.28,1.19a7.36,7.36,0,0,1-3.06.57,4.27,4.27,0,0,1-4.52-4.63c0-2.77,1.64-5,4.31-5,3,0,3.8,2.64,3.8,4.33a6.44,6.44,0,0,1,0,.78Zm4.9-1.2a2.38,2.38,0,0,0-2.32-2.71,2.76,2.76,0,0,0-2.56,2.71Zm3.69-.83c0-1.08,0-2-.08-2.87h1.46l.06,1.8h.08a2.75,2.75,0,0,1,2.54-2,1.8,1.8,0,0,1,.48.06v1.57a3.27,3.27,0,0,0-.57,0,2.35,2.35,0,0,0-2.25,2.14,6,6,0,0,0-.07.78V431H108.4Zm6,4.61a4.31,4.31,0,0,0,2.2.67c1.22,0,1.79-.61,1.79-1.37s-.48-1.23-1.71-1.69c-1.65-.59-2.43-1.5-2.43-2.6,0-1.48,1.2-2.7,3.17-2.7a4.62,4.62,0,0,1,2.26.57l-.42,1.22a3.53,3.53,0,0,0-1.88-.54c-1,0-1.54.57-1.54,1.26s.56,1.1,1.75,1.56c1.6.6,2.41,1.4,2.41,2.77,0,1.61-1.25,2.75-3.43,2.75a5.27,5.27,0,0,1-2.59-.62ZM124,419.27a1,1,0,0,1-1.06,1,1,1,0,0,1-1-1,1,1,0,0,1,1-1A1,1,0,0,1,124,419.27ZM122.13,431v-9.19h1.67V431Zm4.62,0v-7.92h-1.29v-1.27h1.29v-.49a3.68,3.68,0,0,1,4-4,4.5,4.5,0,0,1,2.33.61l-.47,1.27a3.48,3.48,0,0,0-1.94-.53c-1.77,0-2.28,1.23-2.28,2.69v.46h5.34V431h-1.65v-7.92H128.4V431Zm10.7-4.29a2.94,2.94,0,0,0,3.15,3.19,6.18,6.18,0,0,0,2.55-.47l.28,1.19a7.4,7.4,0,0,1-3.06.57,4.27,4.27,0,0,1-4.52-4.63c0-2.77,1.63-5,4.31-5,3,0,3.8,2.64,3.8,4.33,0,.34,0,.61-.05.78Zm4.9-1.2a2.38,2.38,0,0,0-2.32-2.71,2.76,2.76,0,0,0-2.56,2.71Zm11.63-8v11.11c0,.82,0,1.75.07,2.37h-1.5l-.08-1.59h0a3.43,3.43,0,0,1-3.14,1.8c-2.22,0-3.93-1.88-3.93-4.67,0-3.06,1.88-4.94,4.12-4.94a3.09,3.09,0,0,1,2.78,1.41h0v-5.49Zm-1.68,8a3.33,3.33,0,0,0-.07-.7,2.47,2.47,0,0,0-2.42-1.94c-1.72,0-2.75,1.52-2.75,3.55,0,1.87.91,3.4,2.72,3.4a2.52,2.52,0,0,0,2.45-2,3.32,3.32,0,0,0,.07-.72Zm11-6.32a1,1,0,0,1-2.07,0,1,1,0,0,1,1-1A1,1,0,0,1,163.29,419.27ZM161.42,431v-9.19h1.68V431Zm4.45-6.7c0-.95,0-1.73-.08-2.49h1.49l.09,1.52h0a3.38,3.38,0,0,1,3-1.73c1.27,0,3.25.76,3.25,3.91V431H172v-5.3c0-1.48-.56-2.71-2.13-2.71a2.37,2.37,0,0,0-2.24,1.71,2.28,2.28,0,0,0-.12.78V431h-1.67Zm18.49-6.78v11.11c0,.82,0,1.75.07,2.37h-1.5l-.07-1.59h0a3.43,3.43,0,0,1-3.14,1.8c-2.22,0-3.93-1.88-3.93-4.67,0-3.06,1.88-4.94,4.12-4.94a3.09,3.09,0,0,1,2.78,1.41h0v-5.49Zm-1.68,8a2.77,2.77,0,0,0-.07-.7A2.47,2.47,0,0,0,180.2,423c-1.73,0-2.76,1.52-2.76,3.55,0,1.87.91,3.4,2.72,3.4a2.52,2.52,0,0,0,2.45-2,2.8,2.8,0,0,0,.07-.72Zm12.14,3c0,.95,0,1.78.08,2.5h-1.48l-.1-1.5h0a3.47,3.47,0,0,1-3,1.71c-1.45,0-3.18-.79-3.18-4v-5.38h1.68v5.09c0,1.75.53,2.93,2.05,2.93a2.41,2.41,0,0,0,2.2-1.52,2.35,2.35,0,0,0,.15-.86v-5.64h1.67Zm2.55.79a4.34,4.34,0,0,0,2.21.67c1.21,0,1.78-.61,1.78-1.37s-.47-1.23-1.71-1.69c-1.65-.59-2.43-1.5-2.43-2.6,0-1.48,1.2-2.7,3.17-2.7a4.62,4.62,0,0,1,2.26.57l-.41,1.22a3.6,3.6,0,0,0-1.89-.54c-1,0-1.53.57-1.53,1.26s.55,1.1,1.74,1.56c1.6.6,2.42,1.4,2.42,2.77,0,1.61-1.26,2.75-3.44,2.75a5.27,5.27,0,0,1-2.59-.62Zm9.77-10.12v2.64h2.39v1.27h-2.39v5c0,1.14.32,1.79,1.25,1.79a3.54,3.54,0,0,0,1-.12l.08,1.26a4.25,4.25,0,0,1-1.49.22,2.31,2.31,0,0,1-1.8-.7,3.37,3.37,0,0,1-.65-2.39v-5h-1.42v-1.27h1.42v-2.2Zm4.27,5.51c0-1.08,0-2-.07-2.87h1.46l.06,1.8h.07a2.77,2.77,0,0,1,2.55-2,1.68,1.68,0,0,1,.47.06v1.57a3.1,3.1,0,0,0-.57,0,2.35,2.35,0,0,0-2.24,2.14,4.61,4.61,0,0,0-.07.78V431h-1.66Zm8.15-5.45a1,1,0,0,1-2.07,0,1,1,0,0,1,1-1A1,1,0,0,1,219.56,419.27ZM217.7,431v-9.19h1.67V431Zm5.38-4.29a2.94,2.94,0,0,0,3.15,3.19,6.18,6.18,0,0,0,2.55-.47l.28,1.19a7.36,7.36,0,0,1-3.06.57,4.27,4.27,0,0,1-4.52-4.63c0-2.77,1.64-5,4.31-5,3,0,3.8,2.64,3.8,4.33a6.44,6.44,0,0,1-.05.78Zm4.9-1.2a2.38,2.38,0,0,0-2.32-2.71,2.76,2.76,0,0,0-2.56,2.71Zm3.46,3.78a4.31,4.31,0,0,0,2.2.67c1.22,0,1.79-.61,1.79-1.37s-.48-1.23-1.71-1.69c-1.65-.59-2.43-1.5-2.43-2.6,0-1.48,1.19-2.7,3.17-2.7a4.62,4.62,0,0,1,2.26.57l-.42,1.22a3.53,3.53,0,0,0-1.88-.54c-1,0-1.54.57-1.54,1.26s.55,1.1,1.75,1.56c1.6.6,2.41,1.4,2.41,2.77,0,1.61-1.25,2.75-3.44,2.75a5.26,5.26,0,0,1-2.58-.62Zm7.14.73a1.12,1.12,0,0,1,1.14-1.2,1.2,1.2,0,0,1,0,2.39A1.12,1.12,0,0,1,238.58,430.06Zm20-5.55c0,4.41-2.68,6.74-5.95,6.74s-5.75-2.62-5.75-6.49c0-4.07,2.52-6.73,5.94-6.73S258.59,420.71,258.59,424.51Zm-9.94.21c0,2.73,1.48,5.18,4.09,5.18s4.1-2.41,4.1-5.31c0-2.55-1.33-5.21-4.08-5.21S248.65,421.91,248.65,424.72Zm19.78,3.82c0,.95,0,1.78.08,2.5H267l-.09-1.5h0a3.46,3.46,0,0,1-3,1.71c-1.44,0-3.17-.79-3.17-4v-5.38h1.67v5.09c0,1.75.53,2.93,2,2.93a2.44,2.44,0,0,0,2.21-1.52,2.58,2.58,0,0,0,.15-.86v-5.64h1.67Zm2.78-3.82c0-1.08,0-2-.08-2.87h1.46l.06,1.8h.08a2.75,2.75,0,0,1,2.54-2,1.8,1.8,0,0,1,.48.06v1.57a3.27,3.27,0,0,0-.57,0,2.35,2.35,0,0,0-2.25,2.14,6,6,0,0,0-.07.78V431h-1.65Zm12.9-5.51v2.64h2.39v1.27h-2.39v5c0,1.14.32,1.79,1.25,1.79a3.54,3.54,0,0,0,1-.12l.07,1.26a4.15,4.15,0,0,1-1.48.22,2.29,2.29,0,0,1-1.8-.7,3.37,3.37,0,0,1-.65-2.39v-5h-1.42v-1.27h1.42v-2.2Zm5.09,7.54a2.94,2.94,0,0,0,3.15,3.19,6.18,6.18,0,0,0,2.55-.47l.28,1.19a7.36,7.36,0,0,1-3.06.57,4.27,4.27,0,0,1-4.52-4.63c0-2.77,1.64-5,4.31-5,3,0,3.8,2.64,3.8,4.33a6.44,6.44,0,0,1,0,.78Zm4.9-1.2a2.38,2.38,0,0,0-2.32-2.71,2.76,2.76,0,0,0-2.56,2.71Zm8.78,5.49-.14-1.15h-.05a3.43,3.43,0,0,1-2.81,1.36,2.62,2.62,0,0,1-2.82-2.64c0-2.22,2-3.44,5.53-3.42V425a1.89,1.89,0,0,0-2.09-2.12,4.57,4.57,0,0,0-2.39.68l-.38-1.1a5.65,5.65,0,0,1,3-.82c2.81,0,3.5,1.92,3.5,3.76v3.44a12.27,12.27,0,0,0,.15,2.2Zm-.25-4.69c-1.82,0-3.89.29-3.89,2.07a1.48,1.48,0,0,0,1.57,1.6,2.3,2.3,0,0,0,2.23-1.54,2,2,0,0,0,.09-.53Zm4.31-2c0-.95,0-1.73-.07-2.49h1.46l.08,1.48h0a3.19,3.19,0,0,1,2.89-1.69,2.7,2.7,0,0,1,2.6,1.84h0a3.81,3.81,0,0,1,1-1.19,3.13,3.13,0,0,1,2-.65c1.22,0,3,.8,3,4V431h-1.63v-5.2c0-1.77-.65-2.83-2-2.83a2.15,2.15,0,0,0-2,1.52,2.62,2.62,0,0,0-.14.83V431H312.7v-5.5c0-1.47-.65-2.53-1.92-2.53a2.29,2.29,0,0,0-2.07,1.67,2.43,2.43,0,0,0-.13.82V431h-1.64Zm28.85,2a4.49,4.49,0,0,1-4.58,4.88,4.37,4.37,0,0,1-4.41-4.73c0-3.07,2-4.88,4.56-4.88S335.79,423.56,335.79,426.37Zm-7.3.1c0,2,1.16,3.53,2.79,3.53s2.8-1.5,2.8-3.57c0-1.56-.78-3.54-2.76-3.54S328.49,424.72,328.49,426.47Zm9.58,4.57v-7.92h-1.3v-1.27h1.3v-.44a4.33,4.33,0,0,1,1.06-3.21,3.18,3.18,0,0,1,2.24-.85,4,4,0,0,1,1.43.26l-.23,1.29a2.59,2.59,0,0,0-1.06-.2c-1.43,0-1.79,1.25-1.79,2.66v.49h2.22v1.27h-2.22V431Zm15.14,0-.13-1.15H353a3.42,3.42,0,0,1-2.81,1.36,2.62,2.62,0,0,1-2.81-2.64c0-2.22,2-3.44,5.52-3.42V425a1.89,1.89,0,0,0-2.09-2.12,4.57,4.57,0,0,0-2.39.68l-.38-1.1a5.65,5.65,0,0,1,3-.82c2.81,0,3.5,1.92,3.5,3.76v3.44a12.27,12.27,0,0,0,.15,2.2Zm-.25-4.69c-1.82,0-3.89.29-3.89,2.07a1.48,1.48,0,0,0,1.57,1.6,2.3,2.3,0,0,0,2.23-1.54A2,2,0,0,0,353,428Zm12.26-8.79v11.11c0,.82,0,1.75.07,2.37h-1.5l-.07-1.59h0a3.43,3.43,0,0,1-3.14,1.8c-2.22,0-3.93-1.88-3.93-4.67,0-3.06,1.88-4.94,4.12-4.94a3.09,3.09,0,0,1,2.78,1.41h0v-5.49Zm-1.68,8a2.77,2.77,0,0,0-.07-.7,2.47,2.47,0,0,0-2.41-1.94c-1.73,0-2.76,1.52-2.76,3.55,0,1.87.91,3.4,2.72,3.4a2.52,2.52,0,0,0,2.45-2,2.8,2.8,0,0,0,.07-.72Zm5.38,1.16a3,3,0,0,0,3.16,3.19,6.16,6.16,0,0,0,2.54-.47l.29,1.19a7.4,7.4,0,0,1-3.06.57,4.27,4.27,0,0,1-4.52-4.63c0-2.77,1.63-5,4.31-5,3,0,3.8,2.64,3.8,4.33a6,6,0,0,1-.06.78Zm4.9-1.2c0-1.06-.43-2.71-2.31-2.71a2.77,2.77,0,0,0-2.57,2.71Zm3.69-.7c0-1.18,0-2.13-.08-3h1.51l.07,1.58h0a3.62,3.62,0,0,1,3.27-1.79c2.22,0,3.89,1.88,3.89,4.67,0,3.31-2,4.94-4.18,4.94a3.23,3.23,0,0,1-2.83-1.44h0v5h-1.65Zm1.65,2.45a3.63,3.63,0,0,0,.08.69,2.58,2.58,0,0,0,2.51,1.95c1.76,0,2.79-1.44,2.79-3.55,0-1.84-1-3.42-2.74-3.42a2.66,2.66,0,0,0-2.52,2.07,2.62,2.62,0,0,0-.12.68Zm11.18-8.09v2.64h2.39v1.27h-2.39v5c0,1.14.32,1.79,1.25,1.79a3.54,3.54,0,0,0,1-.12l.07,1.26a4.15,4.15,0,0,1-1.48.22,2.29,2.29,0,0,1-1.8-.7,3.37,3.37,0,0,1-.65-2.39v-5h-1.42v-1.27h1.42v-2.2ZM399.21,431c0-.62.07-1.55.07-2.37V417.56h1.66v5.77h0a3.42,3.42,0,0,1,3.13-1.69c2.28,0,3.89,1.9,3.88,4.69,0,3.29-2.08,4.92-4.13,4.92a3.25,3.25,0,0,1-3.07-1.73h-.06l-.08,1.52Zm1.73-3.68a3.92,3.92,0,0,0,.07.61,2.59,2.59,0,0,0,2.51,1.95c1.75,0,2.79-1.42,2.79-3.53,0-1.84-.95-3.42-2.73-3.42a2.67,2.67,0,0,0-2.55,2,3.22,3.22,0,0,0-.09.69Zm9.16-9.8h1.67V431H410.1Zm12.8,8.81a4.49,4.49,0,0,1-4.58,4.88,4.37,4.37,0,0,1-4.41-4.73c0-3.07,2-4.88,4.56-4.88S422.9,423.56,422.9,426.37Zm-7.29.1c0,2,1.15,3.53,2.79,3.53s2.79-1.5,2.79-3.57c0-1.56-.78-3.54-2.75-3.54S415.61,424.72,415.61,426.47Zm15.95,4.23a6.08,6.08,0,0,1-2.64.53,4.36,4.36,0,0,1-4.57-4.69,4.66,4.66,0,0,1,4.93-4.88,5.71,5.71,0,0,1,2.32.47l-.38,1.3a3.84,3.84,0,0,0-1.94-.44,3.18,3.18,0,0,0-3.24,3.48,3.14,3.14,0,0,0,3.19,3.43,4.76,4.76,0,0,0,2-.45Zm3.62-4.63h0c.23-.33.55-.72.82-1.05l2.7-3.17h2l-3.55,3.78,4.05,5.41h-2l-3.17-4.4-.85.95V431h-1.66V417.56h1.66ZM449,430.7a6.16,6.16,0,0,1-2.64.53,4.37,4.37,0,0,1-4.58-4.69,4.67,4.67,0,0,1,4.94-4.88,5.75,5.75,0,0,1,2.32.47l-.38,1.3a3.87,3.87,0,0,0-1.94-.44,3.18,3.18,0,0,0-3.25,3.48,3.15,3.15,0,0,0,3.19,3.43,4.72,4.72,0,0,0,2.05-.45Zm2-13.14h1.67v5.73h0a3,3,0,0,1,1.19-1.17,3.4,3.4,0,0,1,1.71-.48c1.24,0,3.21.76,3.21,3.93V431H457.1v-5.28c0-1.48-.55-2.73-2.13-2.73a2.41,2.41,0,0,0-2.24,1.67,2.12,2.12,0,0,0-.11.8V431H451ZM466.58,431l-.13-1.15h-.06a3.42,3.42,0,0,1-2.81,1.36,2.62,2.62,0,0,1-2.81-2.64c0-2.22,2-3.44,5.53-3.42V425a1.89,1.89,0,0,0-2.09-2.12,4.58,4.58,0,0,0-2.4.68l-.38-1.1a5.65,5.65,0,0,1,3-.82c2.82,0,3.5,1.92,3.5,3.76v3.44a13.26,13.26,0,0,0,.15,2.2Zm-.25-4.69c-1.82,0-3.89.29-3.89,2.07A1.48,1.48,0,0,0,464,430a2.29,2.29,0,0,0,2.22-1.54,1.64,1.64,0,0,0,.09-.53Zm6.18-7.08a1,1,0,0,1-2.07,0,1,1,0,0,1,1-1A1,1,0,0,1,472.51,419.27ZM470.65,431v-9.19h1.67V431Zm4.44-6.7c0-.95,0-1.73-.07-2.49h1.48l.09,1.52h0a3.39,3.39,0,0,1,3-1.73c1.28,0,3.25.76,3.25,3.91V431h-1.67v-5.3c0-1.48-.55-2.71-2.13-2.71a2.37,2.37,0,0,0-2.24,1.71,2.3,2.3,0,0,0-.11.78V431h-1.68Z"/><text class="cls-2" transform="translate(88.54 453.84)">de<tspan class="cls-20" x="21.45" y="0">v</tspan><tspan x="30.53" y="0">elopers</tspan><tspan class="cls-21" x="94.87" y="0"> </tspan><tspan class="cls-7" x="99.81" y="0">can</tspan><tspan class="cls-21" x="130.13" y="0"> </tspan><tspan x="135.07" y="0">p</tspan><tspan class="cls-22" x="146.15" y="0">r</tspan><tspan class="cls-23" x="153.18" y="0">o</tspan><tspan x="164.08" y="0">vide</tspan><tspan class="cls-21" x="199.99" y="0"> </tspan><tspan class="cls-22" x="204.93" y="0">y</tspan><tspan class="cls-24" x="213.97" y="0">ou</tspan><tspan class="cls-21" x="235.94" y="0"> </tspan><tspan x="240.88" y="0">with</tspan><tspan class="cls-21" x="277.41" y="0"> </tspan><tspan class="cls-7" x="282.35" y="0">tailo</tspan><tspan class="cls-14" x="321.25" y="0">r</tspan><tspan x="328.37" y="0">-made</tspan><tspan class="cls-25" x="383.91" y="0"> </tspan><tspan x="388.85" y="0">solu</tspan></text><text class="cls-2" transform="translate(478.42 453.84)">-</text><text class="cls-2" transform="translate(88.54 476.64)">tions as per <tspan class="cls-22" x="105.87" y="0">r</tspan><tspan x="112.9" y="0">equi</tspan><tspan class="cls-26" x="150.48" y="0">r</tspan><tspan x="157.51" y="0">eme</tspan><tspan class="cls-27" x="194.25" y="0">n</tspan><tspan x="205.2" y="0">ts</tspan></text><text class="cls-28" transform="translate(88.54 285.31)">Blockchain <tspan class="cls-29" x="144.62" y="0">S</tspan><tspan class="cls-30" x="160.35" y="0">y</tspan><tspan x="174.58" y="0">s</tspan><tspan class="cls-31" x="187.82" y="0">t</tspan><tspan x="198.4" y="0">em</tspan></text><text class="cls-28" transform="translate(88.54 318.91)"><tspan class="cls-32">D</tspan><tspan x="18.12" y="0">e</tspan><tspan class="cls-33" x="33.15" y="0">v</tspan><tspan x="47.15" y="0">elopme</tspan><tspan class="cls-34" x="140.59" y="0">n</tspan><tspan x="156.18" y="0">t</tspan></text><rect class="cls-35" x="823.86" y="2.5" width="567.79" height="567.79"/><rect class="cls-1" x="823.86" y="2.5" width="567.79" height="567.79"/><rect class="cls-1" x="1679.74" y="97.01" width="567.79" height="567.79"/><text class="cls-2" transform="translate(909.9 290.93)">Supply<tspan class="cls-36" x="58.22" y="0"> </tspan><tspan x="65.38" y="0">chain</tspan><tspan class="cls-36" x="111.91" y="0"> </tspan><tspan x="119.07" y="0">manageme</tspan><tspan class="cls-37" x="213.39" y="0">nt</tspan><tspan x="231.06" y="0">,</tspan><tspan class="cls-38" x="235.46" y="0"> </tspan><tspan class="cls-39" x="242.65" y="0">p</tspan><tspan class="cls-20" x="253.72" y="0">r</tspan><tspan class="cls-3" x="260.77" y="0">o</tspan><tspan class="cls-40" x="271.68" y="0">v</tspan><tspan x="280.76" y="0">enan</tspan><tspan class="cls-41" x="323.36" y="0">c</tspan><tspan x="332.27" y="0">e</tspan><tspan class="cls-42" x="342.57" y="0"> </tspan><tspan class="cls-43" x="349.73" y="0">t</tspan><tspan class="cls-44" x="356.51" y="0">r</tspan><tspan x="363.65" y="0">ac</tspan><tspan class="cls-45" x="382.98" y="0">k</tspan><tspan class="cls-39" x="392.86" y="0">in</tspan><tspan class="cls-46" x="409.06" y="0">g</tspan><tspan class="cls-43" x="418.62" y="0">, </tspan></text><text class="cls-2" transform="translate(909.9 313.73)">di<tspan class="cls-14" x="16.36" y="0">g</tspan><tspan class="cls-39" x="26.09" y="0">ital</tspan><tspan class="cls-47" x="53.94" y="0"> </tspan><tspan class="cls-43" x="58.69" y="0">ide</tspan><tspan class="cls-37" x="85.35" y="0">n</tspan><tspan x="96.29" y="0">ti</tspan><tspan class="cls-48" x="108.28" y="0">t</tspan><tspan class="cls-39" x="115.21" y="0">y</tspan><tspan class="cls-49" x="124.45" y="0"> </tspan><tspan x="129.2" y="0">manageme</tspan><tspan class="cls-27" x="223.51" y="0">n</tspan><tspan class="cls-50" x="234.46" y="0">t</tspan><tspan x="241.2" y="0">,</tspan><tspan class="cls-47" x="245.61" y="0"> </tspan><tspan class="cls-43" x="250.36" y="0">healthca</tspan><tspan class="cls-20" x="324.63" y="0">r</tspan><tspan x="331.68" y="0">e</tspan><tspan class="cls-47" x="341.98" y="0"> </tspan><tspan x="346.73" y="0">d</tspan><tspan class="cls-27" x="357.88" y="0">a</tspan><tspan x="368.12" y="0">ta</tspan><tspan class="cls-49" x="385.2" y="0"> </tspan><tspan class="cls-39" x="389.95" y="0">s</tspan><tspan class="cls-16" x="398.78" y="0">t</tspan><tspan x="405.45" y="0">or</tspan></text><text class="cls-2" transform="translate(1299.75 313.73)">-</text><text class="cls-2" transform="translate(909.9 336.53)">ag<tspan class="cls-51" x="20.12" y="0">e</tspan><tspan class="cls-39" x="30.21" y="0">,</tspan><tspan class="cls-52" x="34.62" y="0"> </tspan><tspan x="39.84" y="0">au</tspan><tspan class="cls-14" x="61.07" y="0">t</tspan><tspan class="cls-43" x="67.75" y="0">om</tspan><tspan class="cls-53" x="94.94" y="0">a</tspan><tspan class="cls-41" x="105.16" y="0">t</tspan><tspan x="111.83" y="0">ed</tspan><tspan class="cls-52" x="133.28" y="0"> </tspan><tspan class="cls-39" x="138.51" y="0">insu</tspan><tspan class="cls-14" x="174.47" y="0">r</tspan><tspan x="181.6" y="0">an</tspan><tspan class="cls-41" x="202.9" y="0">c</tspan><tspan x="211.81" y="0">e</tspan><tspan class="cls-54" x="222.11" y="0"> </tspan><tspan x="227.33" y="0">quo</tspan><tspan class="cls-55" x="260.45" y="0">t</tspan><tspan x="267.14" y="0">es</tspan><tspan class="cls-54" x="286.27" y="0"> </tspan><tspan class="cls-43" x="291.49" y="0">or</tspan><tspan class="cls-54" x="309.75" y="0"> </tspan><tspan class="cls-20" x="314.98" y="0">v</tspan><tspan x="324.06" y="0">oting</tspan><tspan class="cls-54" x="367.91" y="0"> </tspan><tspan x="373.14" y="0">–</tspan><tspan class="cls-52" x="383.02" y="0"> </tspan><tspan class="cls-43" x="388.24" y="0">mar</tspan></text><text class="cls-2" transform="translate(1299.77 336.53)">-</text><text class="cls-2" transform="translate(909.9 359.33)">ke<tspan class="cls-14" x="19.87" y="0">t</tspan><tspan x="26.56" y="0">-</tspan><tspan class="cls-20" x="34.2" y="0">r</tspan><tspan x="41.25" y="0">eady</tspan><tspan class="cls-56" x="82.23" y="0"> </tspan><tspan class="cls-39" x="87.36" y="0">business</tspan><tspan class="cls-57" x="162.37" y="0"> </tspan><tspan x="167.5" y="0">blockchain</tspan><tspan class="cls-57" x="260.32" y="0"> </tspan><tspan x="265.44" y="0">use</tspan><tspan class="cls-56" x="295.5" y="0"> </tspan><tspan x="300.63" y="0">cases</tspan><tspan class="cls-56" x="347.92" y="0"> </tspan><tspan x="353.05" y="0">a</tspan><tspan class="cls-20" x="363.35" y="0">r</tspan><tspan x="370.4" y="0">e</tspan><tspan class="cls-57" x="380.7" y="0"> </tspan><tspan x="385.83" y="0">multi</tspan></text><text class="cls-2" transform="translate(1299.81 359.33)">-</text><text class="cls-2" transform="translate(909.9 382.13)">plying</text><text class="cls-28" transform="translate(909.9 190.8)">Business blockchain pl<tspan class="cls-58" x="284.98" y="0">a</tspan><tspan x="300.94" y="0">t</tspan><tspan class="cls-59" x="311.66" y="0">f</tspan><tspan x="321.18" y="0">o</tspan><tspan class="cls-60" x="337.23" y="0">r</tspan><tspan x="348.37" y="0">ms</tspan></text><text class="cls-2" transform="translate(1765.78 385.44)">Launch<tspan class="cls-61" x="61.62" y="0"> </tspan><tspan x="67.24" y="0">a</tspan><tspan class="cls-61" x="77.54" y="0"> </tspan><tspan x="83.16" y="0">standalone</tspan><tspan class="cls-61" x="179.43" y="0"> </tspan><tspan class="cls-16" x="185.06" y="0">c</tspan><tspan x="193.97" y="0">old</tspan><tspan class="cls-61" x="221.73" y="0"> </tspan><tspan class="cls-37" x="227.35" y="0">w</tspan><tspan x="240.84" y="0">allet</tspan><tspan class="cls-62" x="279.35" y="0"> </tspan><tspan class="cls-11" x="284.98" y="0">f</tspan><tspan x="291.06" y="0">or</tspan><tspan class="cls-61" x="309.32" y="0"> </tspan><tspan class="cls-63" x="314.94" y="0">c</tspan><tspan class="cls-64" x="323.96" y="0">r</tspan><tspan x="331.64" y="0">yp</tspan><tspan class="cls-16" x="351.95" y="0">t</tspan><tspan x="358.62" y="0">ocu</tspan><tspan class="cls-65" x="389.61" y="0">r</tspan><tspan class="cls-40" x="396.89" y="0">r</tspan><tspan x="403.93" y="0">en</tspan></text><text class="cls-2" transform="translate(1765.78 408.24)">cies<tspan class="cls-66" x="33.36" y="0"> </tspan><tspan x="39.12" y="0">or</tspan><tspan class="cls-66" x="57.38" y="0"> </tspan><tspan class="cls-63" x="63.14" y="0">in</tspan><tspan class="cls-16" x="79.34" y="0">c</tspan><tspan x="88.25" y="0">o</tspan><tspan class="cls-65" x="99.29" y="0">r</tspan><tspan x="106.57" y="0">po</tspan><tspan class="cls-14" x="128.68" y="0">r</tspan><tspan class="cls-37" x="135.81" y="0">a</tspan><tspan class="cls-67" x="146.05" y="0">t</tspan><tspan x="152.72" y="0">e</tspan><tspan class="cls-66" x="163.02" y="0"> </tspan><tspan x="168.77" y="0">a</tspan><tspan class="cls-66" x="179.07" y="0"> </tspan><tspan x="184.83" y="0">secu</tspan><tspan class="cls-40" x="223.91" y="0">r</tspan><tspan x="230.96" y="0">e</tspan><tspan class="cls-66" x="241.26" y="0"> </tspan><tspan x="247.01" y="0">multi</tspan><tspan class="cls-68" x="291.64" y="0">-</tspan><tspan class="cls-16" x="299.61" y="0">c</tspan><tspan x="308.52" y="0">oin</tspan><tspan class="cls-69" x="335.76" y="0"> </tspan><tspan x="341.52" y="0">blockchain </tspan></text><text class="cls-2" transform="translate(1765.78 431.04)"><tspan class="cls-37">w</tspan><tspan x="13.49" y="0">allet</tspan><tspan class="cls-70" x="52" y="0"> </tspan><tspan x="57.91" y="0">i</tspan><tspan class="cls-44" x="63.12" y="0">n</tspan><tspan class="cls-16" x="74.04" y="0">t</tspan><tspan x="80.71" y="0">o</tspan><tspan class="cls-70" x="91.75" y="0"> </tspan><tspan class="cls-71" x="97.66" y="0">y</tspan><tspan x="106.72" y="0">our</tspan><tspan class="cls-70" x="135.91" y="0"> </tspan><tspan class="cls-50" x="141.81" y="0">e</tspan><tspan x="152.07" y="0">xisting</tspan><tspan class="cls-70" x="208.03" y="0"> </tspan><tspan x="213.94" y="0">p</tspan><tspan class="cls-40" x="225.01" y="0">r</tspan><tspan x="232.06" y="0">odu</tspan><tspan class="cls-72" x="265.18" y="0">c</tspan><tspan class="cls-50" x="274.45" y="0">t</tspan><tspan x="281.2" y="0">.</tspan><tspan class="cls-73" x="285.6" y="0"> </tspan><tspan class="cls-65" x="291.51" y="0">O</tspan><tspan class="cls-63" x="304.72" y="0">ur</tspan><tspan class="cls-70" x="322.86" y="0"> </tspan><tspan x="328.77" y="0">UX/UI</tspan><tspan class="cls-70" x="379.42" y="0"> </tspan><tspan class="cls-67" x="385.33" y="0">t</tspan><tspan x="392" y="0">eam </tspan></text><text class="cls-2" transform="translate(1765.78 453.84)">will<tspan class="cls-74" x="29.89" y="0"> </tspan><tspan x="34.28" y="0">ensu</tspan><tspan class="cls-26" x="75.33" y="0">r</tspan><tspan x="82.36" y="0">e</tspan><tspan class="cls-74" x="92.66" y="0"> </tspan><tspan x="97.05" y="0">its</tspan><tspan class="cls-74" x="117.87" y="0"> </tspan><tspan class="cls-75" x="122.26" y="0">a</tspan><tspan x="132.48" y="0">tt</tspan><tspan class="cls-76" x="146.05" y="0">r</tspan><tspan x="153.18" y="0">a</tspan><tspan class="cls-77" x="163.47" y="0">c</tspan><tspan x="172.73" y="0">ti</tspan><tspan class="cls-71" x="184.71" y="0">v</tspan><tspan x="193.8" y="0">e</tspan><tspan class="cls-78" x="204.09" y="0"> </tspan><tspan x="208.48" y="0">f</tspan><tspan class="cls-79" x="214.79" y="0">r</tspan><tspan x="221.82" y="0">o</tspan><tspan class="cls-44" x="232.86" y="0">n</tspan><tspan class="cls-14" x="243.78" y="0">t</tspan><tspan class="cls-80" x="250.47" y="0">-</tspan><tspan x="258.45" y="0">en</tspan><tspan class="cls-26" x="279.75" y="0">d</tspan><tspan class="cls-63" x="290.71" y="0">,</tspan><tspan class="cls-78" x="295.12" y="0"> </tspan><tspan x="299.51" y="0">while</tspan><tspan class="cls-78" x="345.13" y="0"> </tspan><tspan x="349.52" y="0">our</tspan><tspan class="cls-74" x="378.7" y="0"> </tspan><tspan x="383.09" y="0">block</tspan></text><text class="cls-2" transform="translate(1765.78 476.64)">chain<tspan class="cls-81" x="46.53" y="0"> </tspan><tspan x="53.05" y="0">de</tspan><tspan class="cls-71" x="74.5" y="0">v</tspan><tspan x="83.58" y="0">elopme</tspan><tspan class="cls-82" x="148.01" y="0">n</tspan><tspan x="158.95" y="0">t</tspan><tspan class="cls-83" x="165.73" y="0"> </tspan><tspan class="cls-16" x="172.25" y="0">t</tspan><tspan x="178.92" y="0">eam</tspan><tspan class="cls-81" x="215.67" y="0"> </tspan><tspan x="222.18" y="0">will</tspan><tspan class="cls-83" x="252.07" y="0"> </tspan><tspan x="258.59" y="0">make</tspan><tspan class="cls-81" x="304.91" y="0"> </tspan><tspan x="311.42" y="0">it</tspan><tspan class="cls-83" x="323.41" y="0"> </tspan><tspan class="cls-84" x="329.93" y="0">fully</tspan><tspan class="cls-81" x="367.53" y="0"> </tspan><tspan x="374.05" y="0">secu</tspan><tspan class="cls-40" x="413.13" y="0">r</tspan><tspan x="420.18" y="0">e </tspan></text><text class="cls-2" transform="translate(1765.78 499.44)"><tspan class="cls-16">t</tspan><tspan x="6.67" y="0">o use</tspan></text><text class="cls-28" transform="translate(1765.78 285.31)">Blockchain <tspan class="cls-58" x="144.62" y="0">w</tspan><tspan x="165.48" y="0">allets</tspan></text><line class="cls-1" x1="2.5" y1="97.01" x2="823.86" y2="2.5"/><line class="cls-1" x1="570.29" y1="97.01" x2="823.86" y2="2.5"/><line class="cls-1" x1="823.86" y1="570.29" x2="570.29" y2="664.8"/><line class="cls-1" x1="1391.65" y1="2.5" x2="2247.52" y2="97.01"/><line class="cls-1" x1="1679.74" y1="97.01" x2="1391.65" y2="2.5"/><line class="cls-1" x1="1391.65" y1="570.29" x2="1679.74" y2="664.8"/></svg>